<?xml version="1.0" encoding="utf-8"?><svg xmlns="http://www.w3.org/2000/svg" xmlns:xlink="http://www.w3.org/1999/xlink"><symbol viewBox="0 0 23 25" id="basket" xmlns="http://www.w3.org/2000/svg"><path d="M6.34881 16.2969H19.591C20.341 16.2969 20.9816 16.0312 21.5129 15.5C22.0441 14.9688 22.3097 14.3281 22.3097 13.5781V8.02344C22.3097 8.02344 22.3097 8.01953 22.3097 8.01172C22.3097 8.00391 22.3097 8 22.3097 8C22.3097 7.98438 22.3097 7.97656 22.3097 7.97656C22.3097 7.97656 22.3097 7.96875 22.3097 7.95312C22.3097 7.95312 22.3097 7.94922 22.3097 7.94141C22.3097 7.93359 22.3097 7.92969 22.3097 7.92969C22.3097 7.92969 22.3058 7.92578 22.298 7.91797C22.2902 7.91016 22.2863 7.89844 22.2863 7.88281C22.2863 7.88281 22.2863 7.87891 22.2863 7.87109C22.2863 7.86328 22.2863 7.85938 22.2863 7.85938C22.2863 7.85938 22.2863 7.85547 22.2863 7.84766C22.2863 7.83984 22.2863 7.83594 22.2863 7.83594C22.2863 7.82031 22.2824 7.8125 22.2746 7.8125C22.2668 7.8125 22.2629 7.80469 22.2629 7.78906C22.2629 7.78906 22.2629 7.78516 22.2629 7.77734C22.2629 7.76953 22.2629 7.76562 22.2629 7.76562C22.2629 7.76562 22.259 7.76172 22.2511 7.75391C22.2433 7.74609 22.2394 7.74219 22.2394 7.74219C22.2394 7.72656 22.2394 7.71875 22.2394 7.71875C22.2238 7.70312 22.216 7.69531 22.216 7.69531C22.216 7.69531 22.216 7.6875 22.216 7.67188C22.216 7.67188 22.2082 7.66406 22.1926 7.64844C22.1926 7.64844 22.1926 7.64453 22.1926 7.63672C22.1926 7.62891 22.1926 7.625 22.1926 7.625C22.1769 7.625 22.1691 7.62109 22.1691 7.61328C22.1691 7.60547 22.1691 7.60156 22.1691 7.60156C22.1691 7.60156 22.1652 7.59766 22.1574 7.58984C22.1496 7.58203 22.1457 7.57812 22.1457 7.57812C22.1457 7.57812 22.1418 7.57422 22.134 7.56641C22.1261 7.55859 22.1222 7.55469 22.1222 7.55469C22.1222 7.55469 22.1183 7.55078 22.1105 7.54297C22.1027 7.53516 22.0988 7.53125 22.0988 7.53125C22.0988 7.53125 22.0949 7.52734 22.0871 7.51953C22.0793 7.51172 22.0754 7.50781 22.0754 7.50781C22.0754 7.50781 22.0715 7.50391 22.0636 7.49609C22.0558 7.48828 22.0519 7.48438 22.0519 7.48438C22.0519 7.48438 22.048 7.48047 22.0402 7.47266C22.0324 7.46484 22.0285 7.46094 22.0285 7.46094C22.0129 7.46094 22.0051 7.46094 22.0051 7.46094C21.9894 7.46094 21.9816 7.45703 21.9816 7.44922C21.9816 7.44141 21.9738 7.4375 21.9582 7.4375C21.9582 7.4375 21.9582 7.43359 21.9582 7.42578C21.9582 7.41797 21.9504 7.41406 21.9347 7.41406C21.9347 7.41406 21.9308 7.41406 21.923 7.41406C21.9152 7.41406 21.9113 7.41406 21.9113 7.41406C21.9113 7.39844 21.9074 7.39062 21.8996 7.39062C21.8918 7.39062 21.8879 7.39062 21.8879 7.39062C21.8722 7.39062 21.8644 7.39062 21.8644 7.39062C21.8644 7.39062 21.8566 7.39062 21.841 7.39062C21.841 7.375 21.8371 7.36719 21.8293 7.36719C21.8215 7.36719 21.8176 7.36719 21.8176 7.36719C21.8176 7.36719 21.8136 7.36719 21.8058 7.36719C21.798 7.36719 21.7941 7.36719 21.7941 7.36719C21.7941 7.36719 21.7902 7.36719 21.7824 7.36719C21.7746 7.36719 21.7629 7.36719 21.7472 7.36719C21.7472 7.36719 21.7472 7.36328 21.7472 7.35547C21.7472 7.34766 21.7394 7.34375 21.7238 7.34375L4.96599 5.04688V2.70312C4.96599 2.6875 4.96599 2.67578 4.96599 2.66797C4.96599 2.66016 4.96599 2.64844 4.96599 2.63281C4.96599 2.63281 4.96599 2.625 4.96599 2.60938C4.96599 2.60938 4.96599 2.60547 4.96599 2.59766C4.96599 2.58984 4.96599 2.57812 4.96599 2.5625C4.95037 2.5625 4.94256 2.55859 4.94256 2.55078C4.94256 2.54297 4.94256 2.53906 4.94256 2.53906C4.94256 2.52344 4.94256 2.51562 4.94256 2.51562C4.94256 2.5 4.94256 2.48828 4.94256 2.48047C4.94256 2.47266 4.93474 2.46875 4.91912 2.46875C4.91912 2.46875 4.91912 2.46484 4.91912 2.45703C4.91912 2.44922 4.91912 2.44531 4.91912 2.44531C4.91912 2.42969 4.91912 2.42188 4.91912 2.42188C4.91912 2.42188 4.91131 2.41406 4.89568 2.39844C4.89568 2.39844 4.89568 2.39453 4.89568 2.38672C4.89568 2.37891 4.89568 2.375 4.89568 2.375C4.89568 2.375 4.89177 2.37109 4.88396 2.36328C4.87615 2.35547 4.87224 2.35156 4.87224 2.35156C4.87224 2.35156 4.87224 2.34766 4.87224 2.33984C4.87224 2.33203 4.86443 2.32812 4.84881 2.32812C4.84881 2.32812 4.84881 2.32422 4.84881 2.31641C4.84881 2.30859 4.84881 2.30469 4.84881 2.30469C4.84881 2.30469 4.8449 2.30078 4.83709 2.29297C4.82927 2.28516 4.82537 2.28125 4.82537 2.28125C4.82537 2.28125 4.82146 2.27734 4.81365 2.26953C4.80584 2.26172 4.80193 2.25781 4.80193 2.25781C4.80193 2.25781 4.79802 2.25391 4.79021 2.24609C4.7824 2.23828 4.77849 2.23438 4.77849 2.23438C4.77849 2.23438 4.77849 2.23047 4.77849 2.22266C4.77849 2.21484 4.77068 2.21094 4.75506 2.21094C4.75506 2.21094 4.75115 2.20703 4.74334 2.19922C4.73552 2.19141 4.73162 2.1875 4.73162 2.1875C4.73162 2.1875 4.72771 2.18359 4.7199 2.17578C4.71209 2.16797 4.70818 2.16406 4.70818 2.16406C4.70818 2.16406 4.70427 2.16406 4.69646 2.16406C4.68865 2.16406 4.68474 2.15625 4.68474 2.14062C4.66912 2.14062 4.6574 2.13672 4.64959 2.12891C4.64177 2.12109 4.63787 2.11719 4.63787 2.11719C4.62224 2.10156 4.60662 2.09375 4.59099 2.09375C4.57537 2.09375 4.56756 2.08594 4.56756 2.07031L0.934743 0.546875C0.762868 0.484375 0.590993 0.488281 0.419118 0.558594C0.247243 0.628906 0.122243 0.742188 0.0441176 0.898438C-0.0183824 1.07031 -0.0144761 1.24219 0.0558364 1.41406C0.126149 1.58594 0.247243 1.71094 0.419118 1.78906L3.63006 3.14844V17.7266C3.63006 18.4141 3.86052 19.0156 4.32146 19.5312C4.7824 20.0469 5.34099 20.3438 5.99724 20.4219C5.88787 20.625 5.79802 20.8438 5.72771 21.0781C5.6574 21.3125 5.62224 21.5547 5.62224 21.8047C5.62224 22.5547 5.88396 23.1914 6.4074 23.7148C6.93084 24.2383 7.56756 24.5 8.31756 24.5C9.05193 24.5 9.68084 24.2383 10.2043 23.7148C10.7277 23.1914 10.9894 22.5547 10.9894 21.8047C10.9894 21.5703 10.9582 21.3359 10.8957 21.1016C10.8332 20.8672 10.7472 20.6484 10.6379 20.4453H16.6144C16.5051 20.6484 16.4152 20.8672 16.3449 21.1016C16.2746 21.3359 16.2394 21.5703 16.2394 21.8047C16.2394 22.5547 16.5051 23.1914 17.0363 23.7148C17.5676 24.2383 18.2004 24.5 18.9347 24.5C19.6691 24.5 20.3019 24.2383 20.8332 23.7148C21.3644 23.1914 21.6301 22.5547 21.6301 21.8047C21.6301 21.0703 21.3644 20.4414 20.8332 19.918C20.3019 19.3945 19.6691 19.1328 18.9347 19.1328H6.34881C5.97381 19.1328 5.64959 18.9961 5.37615 18.7227C5.10271 18.4492 4.96599 18.1172 4.96599 17.7266V15.9219C5.16912 16.0469 5.38787 16.1406 5.62224 16.2031C5.85662 16.2656 6.0988 16.2969 6.34881 16.2969ZM9.67693 21.8047C9.67693 22.1797 9.54412 22.5 9.27849 22.7656C9.01287 23.0312 8.69256 23.1641 8.31756 23.1641C7.94256 23.1641 7.62224 23.0312 7.35662 22.7656C7.09099 22.5 6.95818 22.1797 6.95818 21.8047C6.95818 21.4297 7.09099 21.1094 7.35662 20.8438C7.62224 20.5781 7.94256 20.4453 8.31756 20.4453C8.69256 20.4453 9.01287 20.5781 9.27849 20.8438C9.54412 21.1094 9.67693 21.4297 9.67693 21.8047ZM20.2941 21.8047C20.2941 22.1797 20.1613 22.5 19.8957 22.7656C19.6301 23.0312 19.3097 23.1641 18.9347 23.1641C18.5597 23.1641 18.2394 23.0312 17.9738 22.7656C17.7082 22.5 17.5754 22.1797 17.5754 21.8047C17.5754 21.4297 17.7082 21.1094 17.9738 20.8438C18.2394 20.5781 18.5597 20.4453 18.9347 20.4453C19.3097 20.4453 19.6301 20.5781 19.8957 20.8438C20.1613 21.1094 20.2941 21.4297 20.2941 21.8047ZM19.591 14.9609H6.34881C5.97381 14.9609 5.64959 14.8281 5.37615 14.5625C5.10271 14.2969 4.96599 13.9688 4.96599 13.5781V6.38281L20.9738 8.58594V13.5781C20.9738 13.9688 20.8371 14.2969 20.5636 14.5625C20.2902 14.8281 19.966 14.9609 19.591 14.9609Z"/></symbol><symbol viewBox="0 0 15 15" id="check" xmlns="http://www.w3.org/2000/svg"><desc>Created with Pixso.</desc><defs/><path id="bVector" d="M13.67 3.03C14 3.59 14.25 4.17 14.41 4.78C14.57 5.38 14.65 6.02 14.65 6.68C14.65 7.35 14.57 7.99 14.41 8.59C14.25 9.2 14 9.78 13.67 10.34C13.32 10.91 12.93 11.42 12.5 11.86C12.06 12.29 11.55 12.68 10.98 13.03C10.42 13.36 9.83 13.61 9.23 13.77C8.62 13.93 7.99 14.01 7.32 14.01C6.66 14.01 6.02 13.93 5.42 13.77C4.81 13.61 4.23 13.36 3.67 13.03C3.09 12.68 2.59 12.29 2.15 11.86C1.71 11.42 1.32 10.91 0.98 10.34C0.66 9.78 0.41 9.2 0.25 8.59C0.08 7.99 0 7.35 0 6.68C0 6.02 0.08 5.38 0.25 4.78C0.41 4.17 0.66 3.59 0.98 3.03C1.31 2.46 1.7 1.95 2.14 1.51C2.59 1.08 3.09 0.68 3.67 0.34C4.23 0.01 4.81 -0.24 5.42 -0.4C6.02 -0.56 6.66 -0.64 7.32 -0.64C7.99 -0.64 8.62 -0.56 9.23 -0.4C9.83 -0.24 10.42 0.01 10.98 0.34C11.55 0.68 12.06 1.08 12.5 1.51C12.93 1.95 13.32 2.46 13.67 3.03ZM5.59 8.42L3.85 6.68C3.73 6.55 3.56 6.48 3.35 6.48C3.15 6.48 2.96 6.55 2.79 6.68C2.66 6.82 2.59 6.99 2.59 7.19C2.59 7.4 2.66 7.59 2.79 7.76L5.06 10.01C5.19 10.15 5.36 10.22 5.56 10.22C5.76 10.22 5.92 10.15 6.06 10.01L11.79 4.48C11.93 4.35 12 4.18 12 3.97C12 3.77 11.93 3.59 11.79 3.42C11.66 3.28 11.48 3.22 11.28 3.22C11.07 3.22 10.89 3.28 10.73 3.42L5.59 8.42Z" fill-opacity="1.000000" fill-rule="nonzero"/></symbol><symbol viewBox="0 0 9 6" id="error" xmlns="http://www.w3.org/2000/svg"><path d="M4.13408 5.20744L0.712969 1.78633C0.630885 1.70424 0.589844 1.60457 0.589844 1.48731C0.589844 1.37005 0.630885 1.27037 0.712969 1.18829L1.11752 0.792531C1.19961 0.710447 1.29781 0.669405 1.41214 0.669405C1.52647 0.669405 1.62761 0.710447 1.71556 0.792531L4.4331 3.50128L7.15065 0.792531C7.23859 0.710447 7.33973 0.669405 7.45406 0.669405C7.56839 0.669405 7.6666 0.710447 7.74868 0.792531L8.15324 1.18829C8.23532 1.27037 8.27636 1.37005 8.27636 1.48731C8.27636 1.60457 8.23532 1.70424 8.15324 1.78633L4.73212 5.20744C4.65004 5.28952 4.55036 5.33057 4.4331 5.33057C4.31584 5.33057 4.21617 5.28952 4.13408 5.20744Z"/></symbol><symbol viewBox="0 0 15 15" id="facebook" xmlns="http://www.w3.org/2000/svg"><path d="M14.4229 7.75C14.4229 8.59766 14.277 9.39974 13.9854 10.1562C13.6937 10.9128 13.2904 11.5872 12.7754 12.1797C12.2604 12.7721 11.6566 13.2689 10.9639 13.6699C10.262 14.0618 9.51009 14.3216 8.70801 14.4492V9.70508H10.2803L10.5811 7.75H8.70801V6.47852C8.70801 6.20508 8.78548 5.95898 8.94043 5.74023C9.09538 5.52148 9.38249 5.41211 9.80176 5.41211H10.6631V3.74414C10.6631 3.74414 10.5036 3.72363 10.1846 3.68262C9.86556 3.6416 9.51921 3.62109 9.14551 3.62109C8.37077 3.62109 7.7487 3.84668 7.2793 4.29785C6.8099 4.74902 6.5752 5.403 6.5752 6.25977V7.75H4.85254V9.70508H6.5752V14.4492C5.77311 14.3216 5.02116 14.0618 4.31934 13.6699C3.62663 13.2689 3.02279 12.7721 2.50781 12.1797C1.99284 11.5872 1.58952 10.9128 1.29785 10.1562C1.00618 9.39974 0.860352 8.59766 0.860352 7.75C0.860352 6.8112 1.03809 5.93164 1.39355 5.11133C1.74902 4.29102 2.23438 3.57324 2.84961 2.95801C3.46484 2.34277 4.18262 1.85742 5.00293 1.50195C5.82324 1.14648 6.7028 0.96875 7.6416 0.96875C8.5804 0.96875 9.45996 1.14648 10.2803 1.50195C11.1006 1.85742 11.8184 2.34277 12.4336 2.95801C13.0488 3.57324 13.5342 4.29102 13.8896 5.11133C14.2451 5.93164 14.4229 6.8112 14.4229 7.75Z"/></symbol><symbol viewBox="0 0 79 80" id="food-1" xmlns="http://www.w3.org/2000/svg"><path d="M21 76.6699H18.6211C16.9805 76.6699 15.5449 76.1367 14.3145 75.0703C13.084 74.0039 12.3594 72.6777 12.1406 71.0918V71.0098L8.61328 46.3184C8.55859 45.9902 8.4082 45.7168 8.16211 45.498C7.91602 45.2793 7.62891 45.1699 7.30078 45.1699C6.97266 45.1699 6.67188 45.293 6.39844 45.5391C6.125 45.7852 5.98828 46.0996 5.98828 46.4824C5.98828 46.5371 5.98828 46.5781 5.98828 46.6055C5.98828 46.6328 5.98828 46.6465 5.98828 46.6465L9.51562 71.4199C9.89844 73.6621 10.9375 75.5352 12.6328 77.0391C14.3281 78.543 16.3242 79.2949 18.6211 79.2949H21C21.3828 79.2949 21.6973 79.1719 21.9434 78.9258C22.1895 78.6797 22.3125 78.3652 22.3125 77.9824C22.3125 77.5996 22.1895 77.2852 21.9434 77.0391C21.6973 76.793 21.3828 76.6699 21 76.6699ZM36.75 63.5449C36.3672 63.5449 36.0527 63.668 35.8066 63.9141C35.5605 64.1602 35.4375 64.4746 35.4375 64.8574V70.1074C35.4375 71.2012 35.8203 72.1309 36.5859 72.8965C37.3516 73.6621 38.2812 74.0449 39.375 74.0449C40.4688 74.0449 41.3984 73.6621 42.1641 72.8965C42.9297 72.1309 43.3125 71.2012 43.3125 70.1074V54.3574C43.3125 53.2637 42.9297 52.334 42.1641 51.5684C41.3984 50.8027 40.4688 50.4199 39.375 50.4199C38.2812 50.4199 37.3516 50.8027 36.5859 51.5684C35.8203 52.334 35.4375 53.2637 35.4375 54.3574V59.6074C35.4375 59.9902 35.5605 60.3047 35.8066 60.5508C36.0527 60.7969 36.3672 60.9199 36.75 60.9199C37.1328 60.9199 37.4473 60.7969 37.6934 60.5508C37.9395 60.3047 38.0625 59.9902 38.0625 59.6074V54.3574C38.0625 53.9746 38.1855 53.6602 38.4316 53.4141C38.6777 53.168 38.9922 53.0449 39.375 53.0449C39.7578 53.0449 40.0723 53.168 40.3184 53.4141C40.5645 53.6602 40.6875 53.9746 40.6875 54.3574V70.1074C40.6875 70.4902 40.5645 70.8047 40.3184 71.0508C40.0723 71.2969 39.7578 71.4199 39.375 71.4199C38.9922 71.4199 38.6777 71.2969 38.4316 71.0508C38.1855 70.8047 38.0625 70.4902 38.0625 70.1074V64.8574C38.0625 64.4746 37.9395 64.1602 37.6934 63.9141C37.4473 63.668 37.1328 63.5449 36.75 63.5449ZM18.375 50.4199C17.2812 50.4199 16.3516 50.8027 15.5859 51.5684C14.8203 52.334 14.4375 53.2637 14.4375 54.3574V70.1074C14.4375 71.2012 14.8203 72.1309 15.5859 72.8965C16.3516 73.6621 17.2812 74.0449 18.375 74.0449C19.4688 74.0449 20.3984 73.6621 21.1641 72.8965C21.9297 72.1309 22.3125 71.2012 22.3125 70.1074V54.3574C22.3125 53.2637 21.9297 52.334 21.1641 51.5684C20.3984 50.8027 19.4688 50.4199 18.375 50.4199ZM19.6875 70.1074C19.6875 70.4902 19.5645 70.8047 19.3184 71.0508C19.0723 71.2969 18.7578 71.4199 18.375 71.4199C17.9922 71.4199 17.6777 71.2969 17.4316 71.0508C17.1855 70.8047 17.0625 70.4902 17.0625 70.1074V54.3574C17.0625 53.9746 17.1855 53.6602 17.4316 53.4141C17.6777 53.168 17.9922 53.0449 18.375 53.0449C18.7578 53.0449 19.0723 53.168 19.3184 53.4141C19.5645 53.6602 19.6875 53.9746 19.6875 54.3574V70.1074ZM24.9375 54.3574V70.1074C24.9375 71.2012 25.3203 72.1309 26.0859 72.8965C26.8516 73.6621 27.7812 74.0449 28.875 74.0449C29.9688 74.0449 30.8984 73.6621 31.6641 72.8965C32.4297 72.1309 32.8125 71.2012 32.8125 70.1074V54.3574C32.8125 53.2637 32.4297 52.334 31.6641 51.5684C30.8984 50.8027 29.9688 50.4199 28.875 50.4199C27.7812 50.4199 26.8516 50.8027 26.0859 51.5684C25.3203 52.334 24.9375 53.2637 24.9375 54.3574ZM30.1875 54.3574V70.1074C30.1875 70.4902 30.0645 70.8047 29.8184 71.0508C29.5723 71.2969 29.2578 71.4199 28.875 71.4199C28.4922 71.4199 28.1777 71.2969 27.9316 71.0508C27.6855 70.8047 27.5625 70.4902 27.5625 70.1074V54.3574C27.5625 53.9746 27.6855 53.6602 27.9316 53.4141C28.1777 53.168 28.4922 53.0449 28.875 53.0449C29.2578 53.0449 29.5723 53.168 29.8184 53.4141C30.0645 53.6602 30.1875 53.9746 30.1875 54.3574ZM57.75 47.7949C58.1328 47.7949 58.4473 47.6719 58.6934 47.4258C58.9395 47.1797 59.0625 46.8652 59.0625 46.4824C59.0625 46.0996 58.9395 45.7852 58.6934 45.5391C58.4473 45.293 58.1328 45.1699 57.75 45.1699H48.5625C48.1797 45.1699 47.8652 45.293 47.6191 45.5391C47.373 45.7852 47.25 46.0996 47.25 46.4824C47.25 46.8652 47.373 47.1797 47.6191 47.4258C47.8652 47.6719 48.1797 47.7949 48.5625 47.7949H57.75ZM30.1875 45.1699H14.4375C14.0547 45.1699 13.7402 45.293 13.4941 45.5391C13.248 45.7852 13.125 46.0996 13.125 46.4824C13.125 46.8652 13.248 47.1797 13.4941 47.4258C13.7402 47.6719 14.0547 47.7949 14.4375 47.7949H30.1875C30.5703 47.7949 30.8848 47.6719 31.1309 47.4258C31.377 47.1797 31.5 46.8652 31.5 46.4824C31.5 46.0996 31.377 45.7852 31.1309 45.5391C30.8848 45.293 30.5703 45.1699 30.1875 45.1699ZM73.418 54.4395C74.2383 53.8379 74.8945 53.0723 75.3867 52.1426C75.8789 51.2129 76.125 50.2012 76.125 49.1074C76.125 48.7246 76.002 48.4102 75.7559 48.1641C75.5098 47.918 75.1953 47.7949 74.8125 47.7949H72.5977L73.3359 42.5449H74.8125C75.9062 42.5449 76.8359 42.1621 77.6016 41.3965C78.3672 40.6309 78.75 39.7012 78.75 38.6074C78.75 37.5137 78.3672 36.584 77.6016 35.8184C76.8359 35.0527 75.9062 34.6699 74.8125 34.6699H66.6094L67.7578 32.127C68.1953 32.4551 68.6738 32.7148 69.1934 32.9062C69.7129 33.0977 70.2734 33.1934 70.875 33.1934C72.0781 33.1934 73.1445 32.8379 74.0742 32.127C75.0039 31.416 75.6328 30.4863 75.9609 29.3379C76.0156 29.1191 76.0566 28.9004 76.084 28.6816C76.1113 28.4629 76.125 28.2441 76.125 28.0254C76.125 27.9707 76.125 27.9297 76.125 27.9023C76.125 27.875 76.125 27.834 76.125 27.7793C76.8906 27.3418 77.5195 26.7129 78.0117 25.8926C78.5039 25.0723 78.75 24.1973 78.75 23.2676C78.75 22.502 78.5996 21.7773 78.2988 21.0938C77.998 20.4102 77.5742 19.8223 77.0273 19.3301C77.1367 19.1113 77.2598 18.8516 77.3965 18.5508C77.5332 18.25 77.6289 17.9355 77.6836 17.6074H77.7656C77.8203 17.2793 77.875 16.9375 77.9297 16.582C77.9844 16.2266 78.0117 15.8848 78.0117 15.5566C78.0117 14.4629 77.8066 13.4375 77.3965 12.4805C76.9863 11.5234 76.4258 10.6895 75.7148 9.97852C75.6055 9.86914 75.4688 9.78711 75.3047 9.73242C75.1406 9.67773 74.9766 9.65039 74.8125 9.65039C74.4297 9.65039 74.1152 9.77344 73.8691 10.0195C73.623 10.2656 73.5 10.5801 73.5 10.9629C73.5 11.127 73.5273 11.291 73.582 11.4551C73.6367 11.6191 73.7461 11.7559 73.9102 11.8652C74.3477 12.3574 74.7031 12.918 74.9766 13.5469C75.25 14.1758 75.3867 14.8457 75.3867 15.5566C75.3867 16.6504 75.0723 17.6484 74.4434 18.5508C73.8145 19.4531 72.9805 20.0684 71.9414 20.3965V20.4785C71.7227 20.5332 71.5312 20.6699 71.3672 20.8887C71.2031 21.1074 71.1211 21.3535 71.1211 21.627C71.1211 21.791 71.1074 21.9551 71.0801 22.1191C71.0527 22.2832 71.0117 22.4473 70.957 22.6113V22.5293C70.7383 23.4043 70.2734 24.1152 69.5625 24.6621C68.8516 25.209 68.0586 25.4824 67.1836 25.4824C66.2539 25.4824 65.4473 25.209 64.7637 24.6621C64.0801 24.1152 63.6289 23.4316 63.4102 22.6113C63.4102 22.6113 63.4102 22.584 63.4102 22.5293C63.3555 22.4199 63.3145 22.2695 63.2871 22.0781C63.2598 21.8867 63.2461 21.709 63.2461 21.5449C63.2461 20.834 63.4238 20.1777 63.7793 19.5762C64.1348 18.9746 64.5859 18.4824 65.1328 18.0996H65.2148C65.3789 17.9902 65.5293 17.8398 65.666 17.6484C65.8027 17.457 65.8711 17.2246 65.8711 16.9512C65.8711 16.623 65.7344 16.3223 65.4609 16.0488C65.1875 15.7754 64.8867 15.6387 64.5586 15.6387C64.3945 15.6387 64.2578 15.666 64.1484 15.7207C64.0391 15.7754 63.957 15.8301 63.9023 15.8848C62.918 16.4316 62.125 17.2109 61.5234 18.2227C60.9219 19.2344 60.6211 20.3418 60.6211 21.5449C60.6211 21.5996 60.6211 21.6816 60.6211 21.791C60.6211 21.9004 60.6211 22.0098 60.6211 22.1191V22.0371C60.5117 22.0918 60.3887 22.1191 60.252 22.1191C60.1152 22.1191 59.9648 22.1191 59.8008 22.1191C59.6367 22.1191 59.4727 22.1191 59.3086 22.1191C59.1445 22.1191 58.9805 22.0918 58.8164 22.0371H58.8984C58.2969 21.873 57.791 21.6133 57.3809 21.2578C56.9707 20.9023 56.6289 20.4785 56.3555 19.9863C56.3555 19.9316 56.3555 19.9043 56.3555 19.9043C56.2461 19.6309 56.1504 19.3574 56.0684 19.084C55.9863 18.8105 55.9453 18.5098 55.9453 18.1816C55.9453 18.1816 55.9453 18.1543 55.9453 18.0996C55.9453 17.7715 55.8223 17.4707 55.5762 17.1973C55.3301 16.9238 55.0156 16.7871 54.6328 16.7871C54.3047 16.7871 54.0039 16.9102 53.7305 17.1562C53.457 17.4023 53.3203 17.7168 53.3203 18.0996C53.3203 18.0996 53.3203 18.1133 53.3203 18.1406C53.3203 18.168 53.3203 18.1816 53.3203 18.1816C53.3203 18.5098 53.3477 18.8105 53.4023 19.084C53.457 19.3574 53.5117 19.6309 53.5664 19.9043C53.3477 19.959 53.1289 20.0137 52.9102 20.0684C52.6914 20.123 52.4727 20.1504 52.2539 20.1504C52.0898 20.1504 51.9258 20.1367 51.7617 20.1094C51.5977 20.082 51.4336 20.041 51.2695 19.9863C50.832 19.877 50.4492 19.7129 50.1211 19.4941C49.793 19.2754 49.4922 19.002 49.2188 18.6738V18.5918C48.9453 18.2637 48.7266 17.8945 48.5625 17.4844C48.3984 17.0742 48.3164 16.6504 48.3164 16.2129C48.3164 15.2832 48.6035 14.4629 49.1777 13.752C49.752 13.041 50.4492 12.5762 51.2695 12.3574H51.3516C51.5703 12.3027 51.7754 12.1797 51.9668 11.9883C52.1582 11.7969 52.2539 11.5645 52.2539 11.291L52.3359 11.0449C52.3359 10.9902 52.3359 10.9355 52.3359 10.8809C52.3359 10.8262 52.3359 10.7988 52.3359 10.7988C52.6094 9.86914 53.0742 9.07617 53.7305 8.41992C54.3867 7.76367 55.1797 7.32617 56.1094 7.10742C56.1094 7.27148 56.0957 7.47656 56.0684 7.72266C56.041 7.96875 56.0273 8.20117 56.0273 8.41992C56.0273 9.13086 56.123 9.82812 56.3145 10.5117C56.5059 11.1953 56.7656 11.8105 57.0938 12.3574C57.2031 12.5762 57.3535 12.7402 57.5449 12.8496C57.7363 12.959 57.9414 13.0137 58.1602 13.0137C58.543 13.0137 58.8574 12.8906 59.1035 12.6445C59.3496 12.3984 59.4727 12.084 59.4727 11.7012C59.4727 11.5918 59.459 11.4824 59.4316 11.373C59.4043 11.2637 59.3633 11.1543 59.3086 11.0449C59.0898 10.6621 58.9258 10.252 58.8164 9.81445C58.707 9.37695 58.6523 8.91211 58.6523 8.41992C58.6523 8.03711 58.6934 7.6543 58.7754 7.27148C58.8574 6.88867 58.9805 6.50586 59.1445 6.12305C59.582 5.24805 60.2246 4.53711 61.0723 3.99023C61.9199 3.44336 62.8633 3.16992 63.9023 3.16992C65.3242 3.16992 66.5547 3.67578 67.5938 4.6875C68.6328 5.69922 69.1523 6.94336 69.1523 8.41992C69.1523 8.47461 69.1387 8.54297 69.1113 8.625C69.084 8.70703 69.0703 8.80273 69.0703 8.91211V8.83008C69.0703 8.88477 69.0703 8.91211 69.0703 8.91211C69.0703 9.29492 69.207 9.60938 69.4805 9.85547C69.7539 10.1016 70.0547 10.2246 70.3828 10.2246C70.7109 10.2246 70.998 10.1152 71.2441 9.89648C71.4902 9.67773 71.6406 9.4043 71.6953 9.07617C71.6953 8.9668 71.709 8.85742 71.7363 8.74805C71.7637 8.63867 71.7773 8.5293 71.7773 8.41992C71.7773 6.23242 70.998 4.37305 69.4395 2.8418C67.8809 1.31055 66.0352 0.544922 63.9023 0.544922C62.4805 0.544922 61.1816 0.886719 60.0059 1.57031C58.8301 2.25391 57.8867 3.14258 57.1758 4.23633C55.4258 4.29102 53.8809 4.86523 52.541 5.95898C51.2012 7.05273 50.3125 8.41992 49.875 10.0605V10.1426C48.6172 10.6348 47.6191 11.4141 46.8809 12.4805C46.1426 13.5469 45.7734 14.7637 45.7734 16.1309C45.7734 16.7324 45.8418 17.293 45.9785 17.8125C46.1152 18.332 46.293 18.8379 46.5117 19.3301V19.248C46.4023 19.4121 46.2793 19.5898 46.1426 19.7812C46.0059 19.9727 45.9102 20.1504 45.8555 20.3145L45.7734 20.3965L44.707 18.0176C44.2695 17.0879 43.668 16.2812 42.9023 15.5977C42.1367 14.9141 41.2617 14.4355 40.2773 14.1621L40.1953 14.0801C40.0859 14.0254 39.9355 13.9844 39.7441 13.957C39.5527 13.9297 39.375 13.916 39.2109 13.916L39.1289 13.834L38.7188 6.86133C38.7188 6.5332 38.582 6.24609 38.3086 6C38.0352 5.75391 37.7344 5.63086 37.4062 5.63086C37.0234 5.63086 36.709 5.75391 36.4629 6C36.2168 6.24609 36.0938 6.56055 36.0938 6.94336C36.0938 6.94336 36.0938 6.95703 36.0938 6.98438C36.0938 7.01172 36.0938 7.02539 36.0938 7.02539L36.5039 13.916C36.2852 13.9707 36.0664 14.0391 35.8477 14.1211C35.6289 14.2031 35.4102 14.2715 35.1914 14.3262H35.2734L33.4688 8.0918C33.4141 7.81836 33.2637 7.58594 33.0176 7.39453C32.7715 7.20312 32.5117 7.10742 32.2383 7.10742C31.8555 7.10742 31.541 7.23047 31.2949 7.47656C31.0488 7.72266 30.9258 8.03711 30.9258 8.41992C30.9258 8.47461 30.9258 8.5293 30.9258 8.58398C30.9258 8.63867 30.9258 8.7207 30.9258 8.83008V8.74805L31.0078 8.91211L30.8438 8.83008C30.7344 8.7207 30.5977 8.625 30.4336 8.54297C30.2695 8.46094 30.1055 8.41992 29.9414 8.41992C29.7773 8.41992 29.6133 8.44727 29.4492 8.50195C29.2852 8.55664 29.1484 8.66602 29.0391 8.83008V8.74805L25.1016 12.5215C24.9922 12.6855 24.8965 12.8359 24.8145 12.9727C24.7324 13.1094 24.6914 13.2871 24.6914 13.5059C24.6914 13.7246 24.7461 13.9297 24.8555 14.1211C24.9648 14.3125 25.1289 14.4629 25.3477 14.5723L31.1719 18.4277C31.1172 18.5918 31.0625 18.7559 31.0078 18.9199C30.9531 19.084 30.8984 19.2754 30.8438 19.4941C30.7891 19.7676 30.748 20.041 30.7207 20.3145C30.6934 20.5879 30.6797 20.8613 30.6797 21.1348C30.6797 21.2441 30.6797 21.3535 30.6797 21.4629C30.6797 21.5723 30.6797 21.6816 30.6797 21.791C29.6953 21.9551 28.7656 22.2422 27.8906 22.6523C27.0156 23.0625 26.1953 23.5684 25.4297 24.1699L24.5273 23.2676C24.418 23.1582 24.2812 23.0625 24.1172 22.9805C23.9531 22.8984 23.7891 22.8574 23.625 22.8574C23.2969 22.8574 22.9961 22.9941 22.7227 23.2676C22.4492 23.541 22.3125 23.8418 22.3125 24.1699C22.3125 24.334 22.3535 24.498 22.4355 24.6621C22.5176 24.8262 22.6133 24.9629 22.7227 25.0723L22.8047 25.1543C21.7109 25.4277 20.7676 25.9199 19.9746 26.6309C19.1816 27.3418 18.5938 28.2168 18.2109 29.2559H18.1289L18.0469 29.666L14.8477 28.5996C14.793 28.5449 14.7383 28.5176 14.6836 28.5176C14.6289 28.5176 14.5469 28.5176 14.4375 28.5176C14.0547 28.5176 13.7402 28.6406 13.4941 28.8867C13.248 29.1328 13.125 29.4473 13.125 29.8301C13.125 30.1035 13.207 30.3496 13.3711 30.5684C13.5352 30.7871 13.7539 30.9512 14.0273 31.0605L40.4414 40.166C40.6602 40.2754 40.8516 40.4395 41.0156 40.6582C41.1797 40.877 41.2617 41.1504 41.2617 41.4785C41.2617 41.8066 41.1387 42.1074 40.8926 42.3809C40.6465 42.6543 40.332 42.791 39.9492 42.791C39.8945 42.791 39.8262 42.7773 39.7441 42.75C39.6621 42.7227 39.5938 42.709 39.5391 42.709L4.83984 30.6504C4.56641 30.541 4.34766 30.377 4.18359 30.1582C4.01953 29.9395 3.9375 29.6934 3.9375 29.4199C3.9375 29.1465 4.00586 28.9141 4.14258 28.7227C4.2793 28.5312 4.45703 28.3809 4.67578 28.2715C4.78516 28.2168 4.88086 28.1758 4.96289 28.1484C5.04492 28.1211 5.14062 28.1074 5.25 28.1074C5.30469 28.1074 5.37305 28.1074 5.45508 28.1074C5.53711 28.1074 5.60547 28.1348 5.66016 28.1895L9.02344 29.3379C9.13281 29.3926 9.22852 29.4199 9.31055 29.4199C9.39258 29.4199 9.46094 29.4199 9.51562 29.4199C9.89844 29.4199 10.2129 29.2969 10.459 29.0508C10.7051 28.8047 10.8281 28.4902 10.8281 28.1074C10.8281 27.834 10.7461 27.5879 10.582 27.3691C10.418 27.1504 10.1992 26.9863 9.92578 26.877L6.5625 25.7285C6.34375 25.6191 6.125 25.5508 5.90625 25.5234C5.6875 25.4961 5.44141 25.4824 5.16797 25.4824C4.12891 25.4824 3.21289 25.8652 2.41992 26.6309C1.62695 27.3965 1.23047 28.3262 1.23047 29.4199C1.23047 30.2949 1.49023 31.0605 2.00977 31.7168C2.5293 32.373 3.17188 32.8379 3.9375 33.1113L8.36719 34.6699H3.9375C2.84375 34.6699 1.91406 35.0527 1.14844 35.8184C0.382813 36.584 0 37.5137 0 38.6074C0 39.7012 0.382813 40.6309 1.14844 41.3965C1.91406 42.1621 2.84375 42.5449 3.9375 42.5449H31.0898L38.7188 45.1699C38.8828 45.2246 39.0742 45.2793 39.293 45.334C39.5117 45.3887 39.7578 45.416 40.0312 45.416C41.125 45.416 42.0547 45.0332 42.8203 44.2676C43.5859 43.502 43.9688 42.5723 43.9688 41.4785C43.9688 40.6035 43.709 39.8242 43.1895 39.1406C42.6699 38.457 42.0273 37.9785 41.2617 37.7051L40.0312 37.2949H74.8125C75.1953 37.2949 75.5098 37.418 75.7559 37.6641C76.002 37.9102 76.125 38.2246 76.125 38.6074C76.125 38.9902 76.002 39.3047 75.7559 39.5508C75.5098 39.7969 75.1953 39.9199 74.8125 39.9199H47.8242C47.4961 39.9199 47.1953 40.043 46.9219 40.2891C46.6484 40.5352 46.5117 40.8496 46.5117 41.2324C46.5117 41.6152 46.6484 41.9297 46.9219 42.1758C47.1953 42.4219 47.4961 42.5449 47.8242 42.5449H70.7109L69.8906 48.2051C69.5078 48.3691 69.1523 48.5605 68.8242 48.7793C68.4961 48.998 68.1953 49.2168 67.9219 49.4355V49.2715C67.9219 49.1621 67.9219 49.0801 67.9219 49.0254C67.9219 48.9707 67.9219 48.8887 67.9219 48.7793C67.9219 48.3418 67.8398 47.918 67.6758 47.5078C67.5117 47.0977 67.293 46.7285 67.0195 46.4004C66.6914 46.0176 66.2949 45.7305 65.8301 45.5391C65.3652 45.3477 64.8594 45.252 64.3125 45.252C63.7656 45.252 63.2598 45.3477 62.7949 45.5391C62.3301 45.7305 61.9336 46.0176 61.6055 46.4004C61.332 46.7285 61.1133 47.0977 60.9492 47.5078C60.7852 47.918 60.7031 48.3418 60.7031 48.7793C60.7031 48.8887 60.7031 48.9844 60.7031 49.0664C60.7031 49.1484 60.7031 49.2168 60.7031 49.2715L61.1953 53.127C61.0312 53.0723 60.8809 53.0449 60.7441 53.0449C60.6074 53.0449 60.4844 53.0449 60.375 53.0449C59.1172 53.0449 57.9277 53.25 56.8066 53.6602C55.6855 54.0703 54.6875 54.6309 53.8125 55.3418V54.3574C53.8125 53.2637 53.4297 52.334 52.6641 51.5684C51.8984 50.8027 50.9688 50.4199 49.875 50.4199C48.7812 50.4199 47.8516 50.8027 47.0859 51.5684C46.3203 52.334 45.9375 53.2637 45.9375 54.3574V70.1074C45.9375 71.2012 46.3203 72.1309 47.0859 72.8965C47.8516 73.6621 48.7812 74.0449 49.875 74.0449C50.3672 74.0449 50.8457 73.9492 51.3105 73.7578C51.7754 73.5664 52.1992 73.3066 52.582 72.9785C52.9102 73.6895 53.293 74.3457 53.7305 74.9473C54.168 75.5488 54.6328 76.123 55.125 76.6699H26.25C25.8672 76.6699 25.5527 76.793 25.3066 77.0391C25.0605 77.2852 24.9375 77.5996 24.9375 77.9824C24.9375 78.3652 25.0605 78.6797 25.3066 78.9258C25.5527 79.1719 25.8672 79.2949 26.25 79.2949H60.1289C60.1289 79.2949 60.1562 79.2949 60.2109 79.2949C60.2656 79.2949 60.3066 79.2949 60.334 79.2949C60.3613 79.2949 60.375 79.2949 60.375 79.2949C61.0859 79.2949 61.7832 79.2266 62.4668 79.0898C63.1504 78.9531 63.793 78.748 64.3945 78.4746L64.3125 78.5566C64.9141 78.7754 65.543 78.9531 66.1992 79.0898C66.8555 79.2266 67.5391 79.2949 68.25 79.2949C69.4531 79.2949 70.6152 78.9121 71.7363 78.1465C72.8574 77.3809 73.9102 76.2871 74.8945 74.8652C75.0039 74.7559 75.0723 74.6328 75.0996 74.4961C75.127 74.3594 75.1406 74.2363 75.1406 74.127C75.1406 73.7441 75.0176 73.4297 74.7715 73.1836C74.5254 72.9375 74.2109 72.8145 73.8281 72.8145C73.6094 72.8145 73.4043 72.8555 73.2129 72.9375C73.0215 73.0195 72.8711 73.1699 72.7617 73.3887C72.0508 74.4277 71.2988 75.2344 70.5059 75.8086C69.7129 76.3828 68.9609 76.6699 68.25 76.6699C67.6484 76.6699 67.0605 76.6016 66.4863 76.4648C65.9121 76.3281 65.3516 76.123 64.8047 75.8496L64.8867 75.9316C64.7773 75.877 64.6816 75.8359 64.5996 75.8086C64.5176 75.7812 64.4219 75.7676 64.3125 75.7676C64.2031 75.7676 64.1074 75.7812 64.0254 75.8086C63.9434 75.8359 63.8477 75.877 63.7383 75.9316C63.2461 76.1504 62.7129 76.3281 62.1387 76.4648C61.5645 76.6016 60.9766 76.6699 60.375 76.6699C60.375 76.6699 60.3613 76.6699 60.334 76.6699C60.3066 76.6699 60.293 76.6699 60.293 76.6699C58.3242 76.6152 56.5332 75.0156 54.9199 71.8711C53.3066 68.7266 52.5 65.9512 52.5 63.5449C52.5 61.3574 53.2656 59.498 54.7969 57.9668C56.3281 56.4355 58.1875 55.6699 60.375 55.6699C60.5938 55.6699 60.7988 55.6836 60.9902 55.7109C61.1816 55.7383 61.3867 55.752 61.6055 55.752H61.5234V55.834C61.6328 56.5449 61.9473 57.1328 62.4668 57.5977C62.9863 58.0625 63.6016 58.2949 64.3125 58.2949C65.0234 58.2949 65.6387 58.0625 66.1582 57.5977C66.6777 57.1328 66.9922 56.5449 67.1016 55.834V55.752C67.2656 55.752 67.4434 55.7383 67.6348 55.7109C67.8262 55.6836 68.0312 55.6699 68.25 55.6699C70.4375 55.6699 72.2969 56.4355 73.8281 57.9668C75.3594 59.498 76.125 61.3574 76.125 63.5449C76.0703 64.5293 75.9473 65.4863 75.7559 66.416C75.5645 67.3457 75.3047 68.2207 74.9766 69.041V68.959C74.9766 69.0137 74.9629 69.082 74.9355 69.1641C74.9082 69.2461 74.8945 69.3418 74.8945 69.4512C74.8945 69.834 75.0176 70.1484 75.2637 70.3945C75.5098 70.6406 75.8242 70.7637 76.207 70.7637C76.4805 70.7637 76.7402 70.6816 76.9863 70.5176C77.2324 70.3535 77.3828 70.1348 77.4375 69.8613C77.8203 68.9316 78.1211 67.9336 78.3398 66.8672C78.5586 65.8008 78.6953 64.6934 78.75 63.5449C78.75 61.5762 78.2578 59.7852 77.2734 58.1719C76.2891 56.5586 75.0039 55.3145 73.418 54.4395ZM3.9375 39.9199C3.55469 39.9199 3.24023 39.7969 2.99414 39.5508C2.74805 39.3047 2.625 38.9902 2.625 38.6074C2.625 38.2246 2.74805 37.9102 2.99414 37.6641C3.24023 37.418 3.55469 37.2949 3.9375 37.2949H15.9961L23.543 39.9199H3.9375ZM73.5 23.2676C73.5 23.1582 73.5137 23.0488 73.541 22.9395C73.5684 22.8301 73.6094 22.7207 73.6641 22.6113V22.5293C73.9922 22.3652 74.293 22.1875 74.5664 21.9961C74.8398 21.8047 75.1133 21.5996 75.3867 21.3809C75.6055 21.5996 75.7832 21.873 75.9199 22.2012C76.0566 22.5293 76.125 22.8848 76.125 23.2676C76.125 23.8145 75.9473 24.3203 75.5918 24.7852C75.2363 25.25 74.8125 25.5645 74.3203 25.7285H74.2383C73.9648 25.8379 73.7461 26.002 73.582 26.2207C73.418 26.4395 73.3359 26.6855 73.3359 26.959C73.3359 27.0137 73.3359 27.0684 73.3359 27.123C73.3359 27.1777 73.3633 27.2324 73.418 27.2871C73.418 27.3965 73.4316 27.5059 73.459 27.6152C73.4863 27.7246 73.5 27.8613 73.5 28.0254C73.5 28.1348 73.4863 28.2441 73.459 28.3535C73.4316 28.4629 73.418 28.5723 73.418 28.6816V28.5996C73.2539 29.2012 72.9395 29.6797 72.4746 30.0352C72.0098 30.3906 71.4766 30.5684 70.875 30.5684C70.7656 30.5684 70.6426 30.5684 70.5059 30.5684C70.3691 30.5684 70.2461 30.541 70.1367 30.4863H70.2188C69.9453 30.4316 69.6855 30.3223 69.4395 30.1582C69.1934 29.9941 68.9883 29.8027 68.8242 29.584L69.7266 27.5332C69.8906 27.4785 70.0273 27.4238 70.1367 27.3691C70.2461 27.3145 70.3555 27.2598 70.4648 27.2051C71.1758 26.7676 71.8047 26.207 72.3516 25.5234C72.8984 24.8398 73.2812 24.0879 73.5 23.2676ZM66.6914 28.0254L63.7383 34.6699H55.4531L55.7812 33.5215C55.7812 33.5215 55.7949 33.4805 55.8223 33.3984C55.8496 33.3164 55.8633 33.248 55.8633 33.1934C55.8633 33.1934 55.8496 33.166 55.8223 33.1113C55.7949 33.0566 55.7812 33.002 55.7812 32.9473L53.7305 22.6113C53.8945 22.5566 54.0723 22.502 54.2637 22.4473C54.4551 22.3926 54.6328 22.3105 54.7969 22.2012L54.7148 22.2832C55.0977 22.7207 55.5078 23.1035 55.9453 23.4316C56.3828 23.7598 56.8477 24.0332 57.3398 24.252H57.4219L58.9805 32.209C59.0352 32.4824 59.1719 32.7148 59.3906 32.9062C59.6094 33.0977 59.8555 33.1934 60.1289 33.1934C60.1836 33.1934 60.2109 33.1934 60.2109 33.1934C60.2109 33.1934 60.2383 33.1934 60.293 33.1934C60.5664 33.1934 60.8125 33.125 61.0312 32.9883C61.25 32.8516 61.3867 32.6738 61.4414 32.4551H61.5234L63.9844 27.2051C64.3672 27.4785 64.7773 27.6836 65.2148 27.8203C65.6523 27.957 66.1172 28.0254 66.6094 28.0254H66.6914ZM61.3594 24.5801C61.4688 24.7441 61.5645 24.8945 61.6465 25.0312C61.7285 25.168 61.8242 25.291 61.9336 25.4004L60.7852 27.7793L60.2109 24.7441C60.4297 24.7441 60.6348 24.7305 60.8262 24.7031C61.0176 24.6758 61.2227 24.6348 61.4414 24.5801H61.3594ZM51.0234 22.6113L51.5156 24.9902C51.3516 25.0449 51.1875 25.0859 51.0234 25.1133C50.8594 25.1406 50.6953 25.1543 50.5312 25.1543C50.4219 25.1543 50.3125 25.1406 50.2031 25.1133C50.0938 25.0859 49.9844 25.0723 49.875 25.0723C49.3281 24.9082 48.877 24.5938 48.5215 24.1289C48.166 23.6641 47.9883 23.1309 47.9883 22.5293C47.9883 22.4199 47.9883 22.2969 47.9883 22.1602C47.9883 22.0234 48.0156 21.9004 48.0703 21.791V21.873C48.0703 21.7637 48.0977 21.668 48.1523 21.5859C48.207 21.5039 48.2344 21.4355 48.2344 21.3809C48.5625 21.6543 48.918 21.8867 49.3008 22.0781C49.6836 22.2695 50.0938 22.4199 50.5312 22.5293H50.6133C50.668 22.5293 50.7363 22.543 50.8184 22.5703C50.9004 22.5977 50.9688 22.6113 51.0234 22.6113ZM49.2188 27.6152C49.4375 27.6699 49.6562 27.7109 49.875 27.7383C50.0938 27.7656 50.3398 27.7793 50.6133 27.7793C50.832 27.7793 51.0781 27.752 51.3516 27.6973C51.625 27.6426 51.8711 27.5879 52.0898 27.5332H52.0078L53.1562 33.1934L52.7461 34.6699H52.5L49.2188 27.6152ZM49.6289 34.6699H47.0039C47.0586 34.6699 47.1133 34.6562 47.168 34.6289C47.2227 34.6016 47.2773 34.5879 47.332 34.5879L49.1367 33.5215L49.6289 34.6699ZM40.6055 17.1973L39.2109 18.0176C39.0469 18.127 38.8965 18.2773 38.7598 18.4688C38.623 18.6602 38.5547 18.8926 38.5547 19.166C38.5547 19.4941 38.6914 19.7949 38.9648 20.0684C39.2383 20.3418 39.5391 20.4785 39.8672 20.4785C40.0312 20.4785 40.168 20.4512 40.2773 20.3965C40.3867 20.3418 40.4961 20.2871 40.6055 20.2324H40.5234L42.3281 19.248L44.0508 22.7754L42.4922 23.6777C42.3281 23.7871 42.1777 23.9375 42.041 24.1289C41.9043 24.3203 41.8359 24.5527 41.8359 24.8262C41.8359 25.1543 41.9727 25.4551 42.2461 25.7285C42.5195 26.002 42.8203 26.1387 43.1484 26.1387C43.3125 26.1387 43.4492 26.125 43.5586 26.0977C43.668 26.0703 43.7773 26.0293 43.8867 25.9746H43.8047L45.1992 25.1543L47.9883 31.1426L46.0195 32.291C45.8008 32.4004 45.6367 32.5508 45.5273 32.7422C45.418 32.9336 45.3633 33.166 45.3633 33.4395C45.3633 33.7129 45.4453 33.959 45.6094 34.1777C45.7734 34.3965 45.9922 34.5605 46.2656 34.6699H41.6719L40.1953 32.6191L43.5586 30.6504C43.7227 30.541 43.873 30.3906 44.0098 30.1992C44.1465 30.0078 44.2148 29.7754 44.2148 29.502C44.2148 29.1738 44.0781 28.873 43.8047 28.5996C43.5312 28.3262 43.2305 28.1895 42.9023 28.1895C42.793 28.1895 42.6699 28.2031 42.5332 28.2305C42.3965 28.2578 42.3008 28.3262 42.2461 28.4355V28.3535L38.7188 30.4043L36.5039 27.2051L39.1289 25.6465C39.293 25.5371 39.4434 25.3867 39.5801 25.1953C39.7168 25.0039 39.7852 24.7715 39.7852 24.498C39.7852 24.1699 39.6484 23.8691 39.375 23.5957C39.1016 23.3223 38.8008 23.1855 38.4727 23.1855C38.3633 23.1855 38.2539 23.1992 38.1445 23.2266C38.0352 23.2539 37.9258 23.2949 37.8164 23.3496L34.9453 24.9902L34.125 23.8418C33.8516 23.459 33.6465 23.0352 33.5098 22.5703C33.373 22.1055 33.3047 21.627 33.3047 21.1348C33.3047 19.8223 33.7695 18.7012 34.6992 17.7715C35.6289 16.8418 36.7227 16.377 37.9805 16.377C38.2539 16.377 38.5137 16.4043 38.7598 16.459C39.0059 16.5137 39.2383 16.5684 39.457 16.623C39.6758 16.6777 39.8809 16.7598 40.0723 16.8691C40.2637 16.9785 40.4414 17.0879 40.6055 17.1973ZM28.1367 13.3418L29.8594 11.6191L32.4844 14.3262L32.9766 15.8027C32.9219 15.8574 32.8535 15.9258 32.7715 16.0078C32.6895 16.0898 32.6211 16.1582 32.5664 16.2129L28.1367 13.3418ZM20.5898 30.1582C20.918 29.4473 21.4102 28.8457 22.0664 28.3535C22.7227 27.8613 23.4609 27.6152 24.2812 27.6152C24.3359 27.6152 24.3633 27.6152 24.3633 27.6152L24.0352 28.6816C23.8164 29.1738 23.502 29.625 23.0918 30.0352C22.6816 30.4453 22.2031 30.7324 21.6562 30.8965L20.5078 30.5684L20.5898 30.1582ZM24.8555 32.0449C25.1836 31.7168 25.4844 31.3477 25.7578 30.9375C26.0312 30.5273 26.25 30.0762 26.4141 29.584H26.4961L26.6602 29.0098C26.7695 29.1191 26.8926 29.2012 27.0293 29.2559C27.166 29.3105 27.3164 29.3379 27.4805 29.3379C27.8633 29.3379 28.1777 29.2148 28.4238 28.9688C28.6699 28.7227 28.793 28.4082 28.793 28.0254C28.793 27.8613 28.7656 27.7109 28.7109 27.5742C28.6562 27.4375 28.5742 27.3145 28.4648 27.2051L27.3164 26.0566C27.918 25.6191 28.5605 25.25 29.2441 24.9492C29.9277 24.6484 30.625 24.4434 31.3359 24.334H31.418C31.5273 24.498 31.623 24.6621 31.7051 24.8262C31.7871 24.9902 31.8828 25.1543 31.9922 25.3184L38.4727 34.6699H32.4844L24.8555 32.0449ZM51.1875 70.1074C51.1875 70.4902 51.0645 70.8047 50.8184 71.0508C50.5723 71.2969 50.2578 71.4199 49.875 71.4199C49.4922 71.4199 49.1777 71.2969 48.9316 71.0508C48.6855 70.8047 48.5625 70.4902 48.5625 70.1074V54.3574C48.5625 53.9746 48.6855 53.6602 48.9316 53.4141C49.1777 53.168 49.4922 53.0449 49.875 53.0449C50.2578 53.0449 50.5723 53.168 50.8184 53.4141C51.0645 53.6602 51.1875 53.9746 51.1875 54.3574V58.459C50.75 59.2246 50.4219 60.0312 50.2031 60.8789C49.9844 61.7266 49.875 62.6152 49.875 63.5449C49.9297 64.748 50.0801 65.9102 50.3262 67.0312C50.5723 68.1523 50.8867 69.2324 51.2695 70.2715V70.1074H51.1875ZM72.1875 50.4199H73.2539C72.9805 51.1855 72.5156 51.8145 71.8594 52.3066C71.2031 52.7988 70.4375 53.0449 69.5625 53.0449H68.4961C68.7695 52.2793 69.2344 51.6504 69.8906 51.1582C70.5469 50.666 71.3125 50.4199 72.1875 50.4199ZM64.1484 55.5059L63.3281 48.9434C63.3281 48.8887 63.3281 48.8613 63.3281 48.8613C63.3281 48.8613 63.3281 48.834 63.3281 48.7793C63.3281 48.5059 63.4238 48.2734 63.6152 48.082C63.8066 47.8906 64.0391 47.7949 64.3125 47.7949C64.5859 47.7949 64.8184 47.8906 65.0098 48.082C65.2012 48.2734 65.2969 48.5059 65.2969 48.7793C65.2969 48.834 65.2969 48.8613 65.2969 48.8613C65.2969 48.8613 65.2969 48.8887 65.2969 48.9434L64.4766 55.5059C64.4766 55.5605 64.4629 55.6016 64.4355 55.6289C64.4082 55.6562 64.3672 55.6699 64.3125 55.6699C64.2578 55.6699 64.2168 55.6562 64.1895 55.6289C64.1621 55.6016 64.1484 55.5605 64.1484 55.5059ZM70.0547 58.541C70 58.4863 69.918 58.4453 69.8086 58.418C69.6992 58.3906 69.5898 58.377 69.4805 58.377C69.0977 58.377 68.7832 58.5137 68.5371 58.7871C68.291 59.0605 68.168 59.3613 68.168 59.6895C68.168 59.9629 68.2363 60.1953 68.373 60.3867C68.5098 60.5781 68.6602 60.7285 68.8242 60.8379C69.2617 61.0566 69.6172 61.3301 69.8906 61.6582C70.1641 61.9863 70.3828 62.3691 70.5469 62.8066C70.6562 63.0801 70.8203 63.2988 71.0391 63.4629C71.2578 63.627 71.5039 63.709 71.7773 63.709C72.1602 63.709 72.4746 63.5859 72.7207 63.3398C72.9668 63.0938 73.0898 62.7793 73.0898 62.3965C73.0898 62.2871 73.0898 62.1914 73.0898 62.1094C73.0898 62.0273 73.0625 61.959 73.0078 61.9043C72.7344 61.1934 72.3516 60.5508 71.8594 59.9766C71.3672 59.4023 70.793 58.9238 70.1367 58.541H70.0547Z"/></symbol><symbol viewBox="0 0 84 84" id="food-2" xmlns="http://www.w3.org/2000/svg"><path d="M82.7695 81.2949H80.0625C79.8984 80.3652 79.5293 79.5312 78.9551 78.793C78.3809 78.0547 77.6836 77.4941 76.8633 77.1113C76.2617 76.8379 75.6738 76.6738 75.0996 76.6191C74.5254 76.5645 74.0195 76.5645 73.582 76.6191C73.3633 75.8535 73.0078 75.1699 72.5156 74.5684C72.0234 73.9668 71.4219 73.502 70.7109 73.1738C70.0547 72.8457 69.4121 72.6816 68.7832 72.6816C68.1543 72.6816 67.6211 72.709 67.1836 72.7637C67.1836 72.709 67.1836 71.9434 67.1836 70.4668C67.1836 68.9902 67.1836 67.3906 67.1836 65.668C67.1836 63.9453 67.1836 62.373 67.1836 60.9512C67.1836 59.4746 67.1836 58.7363 67.1836 58.7363L71.2852 54.6348H74.8125C77.0547 54.6348 78.9688 53.8418 80.5547 52.2559C82.1406 50.6699 82.9336 48.7559 82.9336 46.5137V43.1504C82.9336 42.6582 82.7422 42.2207 82.3594 41.8379C81.9766 41.4551 81.5391 41.2637 81.0469 41.2637H77.6836C75.4414 41.2637 73.5273 42.0703 71.9414 43.6836C70.3555 45.2969 69.5625 47.2246 69.5625 49.4668V52.9121L67.1836 55.291V41.1816L69.6445 38.7207C71.2305 37.1348 72.0234 35.2207 72.0234 32.9785C72.0234 30.7363 71.2305 28.8223 69.6445 27.2363L67.2656 24.8574C67.1016 24.6934 66.9102 24.5566 66.6914 24.4473C66.4727 24.3379 66.2266 24.2832 65.9531 24.2832C65.6797 24.2832 65.4336 24.3379 65.2148 24.4473C64.9961 24.5566 64.8047 24.6934 64.6406 24.8574L62.2617 27.2363C60.6758 28.8223 59.8828 30.7363 59.8828 32.9785C59.8828 35.2207 60.6758 37.1348 62.2617 38.7207L64.7227 41.1816V62.6738L62.3438 60.2949V55.209C62.3438 52.2012 61.2773 49.6309 59.1445 47.498C57.0117 45.3652 54.4414 44.2988 51.4336 44.2988H46.5117C45.9648 44.2988 45.5137 44.4766 45.1582 44.832C44.8027 45.1875 44.625 45.6387 44.625 46.1855V51.1074C44.625 54.1152 45.6914 56.6855 47.8242 58.8184C49.957 60.9512 52.5273 62.0176 55.5352 62.0176H60.6211L64.7227 66.1191V70.6309C63.793 69.7559 62.6035 68.9219 61.1543 68.1289C59.7051 67.3359 58.0234 66.8848 56.1094 66.7754C56.0547 66.7754 55.8633 66.7617 55.5352 66.7344C55.207 66.707 54.7969 66.7207 54.3047 66.7754C53.9219 66.7754 53.6211 66.9121 53.4023 67.1855C53.1836 67.459 53.1016 67.7598 53.1562 68.0879C53.1562 68.416 53.293 68.6895 53.5664 68.9082C53.8398 69.127 54.1406 69.2363 54.4688 69.2363C54.9062 69.1816 55.248 69.168 55.4941 69.1953C55.7402 69.2227 55.8906 69.2363 55.9453 69.2363C58.4062 69.4004 60.3887 70.1387 61.8926 71.4512C63.3965 72.7637 64.4219 73.8027 64.9688 74.5684C65.2422 74.9512 65.584 75.2109 65.9941 75.3477C66.4043 75.4844 66.8281 75.4707 67.2656 75.3066C67.5938 75.1973 67.9629 75.1289 68.373 75.1016C68.7832 75.0742 69.207 75.1699 69.6445 75.3887C70.082 75.6074 70.4375 75.8945 70.7109 76.25C70.9844 76.6055 71.1758 77.0293 71.2852 77.5215C71.4492 78.0684 71.75 78.4922 72.1875 78.793C72.625 79.0938 73.1172 79.1895 73.6641 79.0801C73.9375 79.0254 74.2656 78.998 74.6484 78.998C75.0312 78.998 75.4141 79.1074 75.7969 79.3262C76.1797 79.4902 76.5215 79.75 76.8223 80.1055C77.123 80.4609 77.3555 80.8574 77.5195 81.2949H39.0469C39.1016 80.9668 39.2246 80.6387 39.416 80.3105C39.6074 79.9824 39.8398 79.7363 40.1133 79.5723C40.3867 79.3535 40.6738 79.2305 40.9746 79.2031C41.2754 79.1758 41.5352 79.1895 41.7539 79.2441C42.3008 79.2988 42.793 79.1621 43.2305 78.834C43.668 78.5059 43.9414 78.0957 44.0508 77.6035C44.1602 76.8379 44.3652 76.127 44.666 75.4707C44.9668 74.8145 45.3086 74.2129 45.6914 73.666C46.1836 73.0098 46.7305 72.4219 47.332 71.9023C47.9336 71.3828 48.6172 70.9316 49.3828 70.5488C49.7109 70.3848 49.916 70.1387 49.998 69.8105C50.0801 69.4824 50.0664 69.1816 49.957 68.9082C49.793 68.5801 49.5469 68.3613 49.2188 68.252C48.8906 68.1426 48.5898 68.1699 48.3164 68.334C47.3867 68.8262 46.5391 69.3867 45.7734 70.0156C45.0078 70.6445 44.3242 71.3691 43.7227 72.1895C43.2305 72.8457 42.8203 73.5566 42.4922 74.3223C42.1641 75.0879 41.8906 75.8809 41.6719 76.7012C41.5625 76.7012 41.4395 76.7012 41.3027 76.7012C41.166 76.7012 41.043 76.7285 40.9336 76.7832C40.7148 75.9629 40.3594 75.2383 39.8672 74.6094C39.375 73.9805 38.7461 73.502 37.9805 73.1738C37.2148 72.791 36.4766 72.6133 35.7656 72.6406C35.0547 72.668 34.4805 72.7637 34.043 72.9277C33.2773 71.8887 31.9102 70.5898 29.9414 69.0312C27.9727 67.4727 25.5117 66.6934 22.5586 66.6934V58.9004L26.7422 54.7988H30.1875C32.4297 54.7988 34.3438 54.0059 35.9297 52.4199C37.5156 50.834 38.3086 48.9199 38.3086 46.6777V43.3145C38.3086 42.8223 38.1309 42.3848 37.7754 42.002C37.4199 41.6191 36.9688 41.4277 36.4219 41.4277H33.1406C30.8984 41.4277 28.9707 42.2344 27.3574 43.8477C25.7441 45.4609 24.9375 47.3887 24.9375 49.6309V53.0762L22.5586 55.4551V36.752L26.7422 32.6504H30.1875C32.4297 32.6504 34.3438 31.8574 35.9297 30.2715C37.5156 28.6855 38.3086 26.7715 38.3086 24.5293V21.166C38.3086 20.6738 38.1309 20.2363 37.7754 19.8535C37.4199 19.4707 36.9688 19.2793 36.4219 19.2793H33.1406C30.8984 19.2793 28.9707 20.0859 27.3574 21.6992C25.7441 23.3125 24.9375 25.2402 24.9375 27.4824V30.9277L22.5586 33.3066V16.9004L25.0195 14.4395C26.6055 12.8535 27.3984 10.9395 27.3984 8.69727C27.3984 6.45508 26.6055 4.54102 25.0195 2.95508L22.7227 0.576172C22.5039 0.412109 22.2852 0.289062 22.0664 0.207031C21.8477 0.125 21.6016 0.0839844 21.3281 0.0839844C21.1094 0.0839844 20.877 0.125 20.6309 0.207031C20.3848 0.289062 20.1797 0.412109 20.0156 0.576172L17.6367 2.95508C16.0508 4.54102 15.2578 6.45508 15.2578 8.69727C15.2578 10.9395 16.0508 12.8535 17.6367 14.4395L20.0977 16.9004V40.6895L17.7188 38.3105V33.2246C17.7188 32.4043 17.6367 31.5977 17.4727 30.8047C17.3086 30.0117 17.0352 29.2324 16.6523 28.4668C16.4883 28.1934 16.2559 28.002 15.9551 27.8926C15.6543 27.7832 15.3398 27.7832 15.0117 27.8926C14.7383 28.0566 14.5332 28.3027 14.3965 28.6309C14.2598 28.959 14.2734 29.2598 14.4375 29.5332C14.7109 30.1348 14.916 30.7363 15.0527 31.3379C15.1895 31.9395 15.2578 32.5684 15.2578 33.2246V35.8496L10.5 31.0098C10.2266 30.791 9.92578 30.6816 9.59766 30.6816C9.26953 30.6816 8.96875 30.791 8.69531 31.0098C8.47656 31.2832 8.36719 31.584 8.36719 31.9121C8.36719 32.2402 8.47656 32.5137 8.69531 32.7324L13.5352 37.5723H10.9102C8.61328 37.5723 6.63086 36.752 4.96289 35.1113C3.29492 33.4707 2.46094 31.4746 2.46094 29.123V24.7754H6.80859C7.57422 24.7754 8.32617 24.8711 9.06445 25.0625C9.80273 25.2539 10.4727 25.541 11.0742 25.9238C11.4023 26.0879 11.7305 26.1289 12.0586 26.0469C12.3867 25.9648 12.6328 25.7871 12.7969 25.5137C12.9609 25.1855 13.002 24.8574 12.9199 24.5293C12.8379 24.2012 12.6602 23.9551 12.3867 23.791C11.5117 23.2988 10.6094 22.9297 9.67969 22.6836C8.75 22.4375 7.79297 22.3145 6.80859 22.3145H1.88672C1.33984 22.3145 0.888672 22.4922 0.533203 22.8477C0.177734 23.2031 0 23.6543 0 24.2012V29.123C0 32.1309 1.06641 34.7012 3.19922 36.834C5.33203 38.9668 7.90234 40.0332 10.9102 40.0332H15.9961L20.0977 44.1348V65.2988L18.5391 63.7402V59.3926C18.5391 56.7676 17.6094 54.5117 15.75 52.625C13.8906 50.7383 11.6211 49.7949 8.94141 49.7949H4.75781C4.26562 49.7949 3.82812 49.9863 3.44531 50.3691C3.0625 50.752 2.87109 51.1895 2.87109 51.6816V55.8652C2.87109 58.4902 3.81445 60.7461 5.70117 62.6328C7.58789 64.5195 9.87109 65.4629 12.5508 65.4629H16.8164L18.6211 67.2676C17.3633 67.541 16.0371 68.0605 14.6426 68.8262C13.248 69.5918 12.0312 70.7129 10.9922 72.1895C10.5 72.8457 10.0898 73.5566 9.76172 74.3223C9.43359 75.0879 9.16016 75.8809 8.94141 76.7012C8.55859 76.7012 8.10742 76.7559 7.58789 76.8652C7.06836 76.9746 6.5625 77.1934 6.07031 77.5215C5.41406 77.9043 4.89453 78.4375 4.51172 79.1211C4.12891 79.8047 3.91016 80.5293 3.85547 81.2949H1.23047C0.902344 81.2949 0.615234 81.418 0.369141 81.6641C0.123047 81.9102 0 82.1973 0 82.5254C0 82.9082 0.123047 83.209 0.369141 83.4277C0.615234 83.6465 0.902344 83.7559 1.23047 83.7559H82.7695C83.0977 83.7559 83.3848 83.6465 83.6309 83.4277C83.877 83.209 84 82.9082 84 82.5254C84 82.1973 83.877 81.9102 83.6309 81.6641C83.3848 81.418 83.0977 81.2949 82.7695 81.2949ZM72.0234 49.4668C72.0234 47.8809 72.584 46.5273 73.7051 45.4062C74.8262 44.2852 76.1523 43.7246 77.6836 43.7246H80.4727V46.5137C80.4727 48.0449 79.9121 49.3711 78.791 50.4922C77.6699 51.6133 76.3438 52.1738 74.8125 52.1738H73.7461L76.2891 49.7129C76.5078 49.4395 76.6172 49.1387 76.6172 48.8105C76.6172 48.4824 76.5078 48.209 76.2891 47.9902C76.0156 47.7168 75.7148 47.5801 75.3867 47.5801C75.0586 47.5801 74.7578 47.7168 74.4844 47.9902L72.0234 50.4512V49.4668ZM59.8828 57.834L55.043 52.9941C54.8242 52.7754 54.5371 52.666 54.1816 52.666C53.8262 52.666 53.5391 52.7754 53.3203 52.9941C53.1016 53.2676 52.9922 53.5684 52.9922 53.8965C52.9922 54.2246 53.1016 54.498 53.3203 54.7168L58.1602 59.5566H55.5352C53.1836 59.5566 51.1875 58.7363 49.5469 57.0957C47.9062 55.4551 47.0859 53.459 47.0859 51.1074V46.7598H51.4336C53.7305 46.7598 55.7129 47.5801 57.3809 49.2207C59.0488 50.8613 59.8828 52.8574 59.8828 55.209V57.834ZM65.9531 32.9785C65.625 32.9785 65.3379 33.1016 65.0918 33.3477C64.8457 33.5938 64.7227 33.8809 64.7227 34.209V37.7363L63.9844 36.998C62.8906 35.9043 62.3438 34.5645 62.3438 32.9785C62.3438 31.3926 62.8906 30.0527 63.9844 28.959L65.9531 26.9902L67.9219 28.959C69.0156 30.0527 69.5625 31.3926 69.5625 32.9785C69.5625 34.5645 69.0156 35.9043 67.9219 36.998L67.1836 37.7363V34.209C67.1836 33.8809 67.0605 33.5938 66.8145 33.3477C66.5684 33.1016 66.2812 32.9785 65.9531 32.9785ZM27.3984 49.6309C27.3984 48.0449 27.959 46.6914 29.0801 45.5703C30.2012 44.4492 31.5547 43.8887 33.1406 43.8887H35.8477V46.6777C35.8477 48.209 35.3008 49.5352 34.207 50.6562C33.1133 51.7773 31.7734 52.3379 30.1875 52.3379H29.2031L31.6641 49.877C31.8828 49.6035 31.9922 49.3027 31.9922 48.9746C31.9922 48.6465 31.8828 48.373 31.6641 48.1543C31.3906 47.8809 31.0898 47.7441 30.7617 47.7441C30.4336 47.7441 30.1602 47.8809 29.9414 48.1543L27.3984 50.6152V49.6309ZM27.3984 27.4824C27.3984 25.8965 27.959 24.543 29.0801 23.4219C30.2012 22.3008 31.5547 21.7402 33.1406 21.7402H35.8477V24.5293C35.8477 26.0605 35.3008 27.3867 34.207 28.5078C33.1133 29.6289 31.7734 30.1895 30.1875 30.1895H29.2031L31.6641 27.7285C31.8828 27.4551 31.9922 27.1543 31.9922 26.8262C31.9922 26.498 31.8828 26.2246 31.6641 26.0059C31.3906 25.7324 31.0898 25.5957 30.7617 25.5957C30.4336 25.5957 30.1602 25.7324 29.9414 26.0059L27.3984 28.4668V27.4824ZM16.0781 61.2793L12.2227 57.4238C12.0039 57.1504 11.7168 57.0137 11.3613 57.0137C11.0059 57.0137 10.7188 57.1504 10.5 57.4238C10.2812 57.6426 10.1719 57.9297 10.1719 58.2852C10.1719 58.6406 10.2812 58.9277 10.5 59.1465L14.3555 63.002H12.5508C10.582 63.002 8.88672 62.3047 7.46484 60.9102C6.04297 59.5156 5.33203 57.834 5.33203 55.8652V52.2559H8.94141C10.9102 52.2559 12.5918 52.9531 13.9863 54.3477C15.3809 55.7422 16.0781 57.4238 16.0781 59.3926V61.2793ZM20.0977 9.92773V13.4551L19.4414 12.7168C18.293 11.623 17.7188 10.2969 17.7188 8.73828C17.7188 7.17969 18.293 5.82617 19.4414 4.67773L21.3281 2.79102L23.2969 4.67773C24.3906 5.82617 24.9375 7.17969 24.9375 8.73828C24.9375 10.2969 24.3906 11.623 23.2969 12.7168L22.5586 13.4551V9.92773C22.5586 9.59961 22.4492 9.3125 22.2305 9.06641C22.0117 8.82031 21.7109 8.69727 21.3281 8.69727C21 8.69727 20.7129 8.82031 20.4668 9.06641C20.2207 9.3125 20.0977 9.59961 20.0977 9.92773ZM36.5039 81.2949H21.4922C21.4375 81.2949 21.4102 81.2949 21.4102 81.2949C21.4102 81.2949 21.3828 81.2949 21.3281 81.2949C21.3281 81.2949 21.3145 81.2949 21.2871 81.2949C21.2598 81.2949 21.2461 81.2949 21.2461 81.2949H6.31641C6.37109 80.9668 6.49414 80.6387 6.68555 80.3105C6.87695 79.9824 7.10938 79.7363 7.38281 79.5723C7.65625 79.3535 7.94336 79.2305 8.24414 79.2031C8.54492 79.1758 8.80469 79.1895 9.02344 79.2441C9.57031 79.2988 10.0625 79.1621 10.5 78.834C10.9375 78.5059 11.2109 78.0957 11.3203 77.6035C11.4297 76.8379 11.6348 76.127 11.9355 75.4707C12.2363 74.8145 12.5781 74.2129 12.9609 73.666C14.7109 71.2051 16.8438 69.8516 19.3594 69.6055C21.875 69.3594 23.1602 69.2363 23.2148 69.2363C25.6758 69.4004 27.6582 70.1387 29.1621 71.4512C30.666 72.7637 31.6914 73.8027 32.2383 74.5684C32.5117 74.9512 32.8672 75.2109 33.3047 75.3477C33.7422 75.4844 34.1523 75.4707 34.5352 75.3066C34.8633 75.1973 35.2324 75.1289 35.6426 75.1016C36.0527 75.0742 36.4766 75.1699 36.9141 75.3887C37.3516 75.6074 37.7207 75.9082 38.0215 76.291C38.3223 76.6738 38.5273 77.1113 38.6367 77.6035C38.0352 78.041 37.5566 78.5879 37.2012 79.2441C36.8457 79.9004 36.6133 80.584 36.5039 81.2949Z"/></symbol><symbol viewBox="0 0 84 72" id="food-3" xmlns="http://www.w3.org/2000/svg"><path d="M14.9297 49.4551C13.0703 49.4551 11.4707 50.125 10.1309 51.4648C8.79102 52.8047 8.12109 54.4043 8.12109 56.2637C8.12109 58.123 8.79102 59.709 10.1309 61.0215C11.4707 62.334 13.0703 62.9902 14.9297 62.9902C16.7891 62.9902 18.375 62.334 19.6875 61.0215C21 59.709 21.6562 58.123 21.6562 56.2637C21.6562 54.4043 21 52.8047 19.6875 51.4648C18.375 50.125 16.7891 49.4551 14.9297 49.4551ZM14.9297 60.2832C13.7812 60.2832 12.8105 59.8867 12.0176 59.0938C11.2246 58.3008 10.8281 57.3574 10.8281 56.2637C10.8281 55.1152 11.2246 54.1445 12.0176 53.3516C12.8105 52.5586 13.7812 52.1621 14.9297 52.1621C16.0234 52.1621 16.9668 52.5586 17.7598 53.3516C18.5527 54.1445 18.9492 55.1152 18.9492 56.2637C18.9492 57.3574 18.5527 58.3008 17.7598 59.0938C16.9668 59.8867 16.0234 60.2832 14.9297 60.2832ZM72.7617 33.2129L76.4531 35.6738C76.5625 35.7832 76.6855 35.8516 76.8223 35.8789C76.959 35.9062 77.082 35.9199 77.1914 35.9199H82.6055C82.9883 35.9199 83.3164 35.7832 83.5898 35.5098C83.8633 35.2363 84 34.9082 84 34.5254V29.1113C84 28.7832 83.8633 28.4824 83.5898 28.209C83.3164 27.9355 82.9883 27.7988 82.6055 27.7988H80.3086L76.6172 25.3379C76.5078 25.2285 76.3848 25.1602 76.248 25.1328C76.1113 25.1055 75.9883 25.0918 75.8789 25.0918H70.4648V8.84961H71.7773C72.1602 8.84961 72.4883 8.71289 72.7617 8.43945C73.0352 8.16602 73.1719 7.83789 73.1719 7.45508V2.04102C73.1719 1.6582 73.0352 1.34375 72.7617 1.09766C72.4883 0.851562 72.1602 0.728516 71.7773 0.728516H42C41.8359 0.728516 41.6719 0.755859 41.5078 0.810547C41.3438 0.865234 41.1797 0.947266 41.0156 1.05664L35.6016 6.4707C35.4375 6.68945 35.3281 6.93555 35.2734 7.20898C35.2188 7.48242 35.2461 7.72852 35.3555 7.94727C35.4648 8.2207 35.6289 8.43945 35.8477 8.60352C36.0664 8.76758 36.3125 8.84961 36.5859 8.84961H67.7578V15.5762H63.6562C63.2734 15.5762 62.959 15.7129 62.7129 15.9863C62.4668 16.2598 62.3438 16.5879 62.3438 16.9707V23.6973C62.3438 24.0801 62.207 24.4082 61.9336 24.6816C61.6602 24.9551 61.332 25.0918 60.9492 25.0918H52.8281C52.4453 25.0918 52.1309 25.2285 51.8848 25.502C51.6387 25.7754 51.5156 26.0762 51.5156 26.4043V31.8184C51.5156 32.2012 51.6387 32.5293 51.8848 32.8027C52.1309 33.0762 52.4453 33.2129 52.8281 33.2129H55.4531L43.8867 41.5801C43.7227 41.7441 43.5996 41.9219 43.5176 42.1133C43.4355 42.3047 43.3945 42.5098 43.3945 42.7285V46.748H35.1914V44.041H36.5859C36.9688 44.041 37.2832 43.9043 37.5293 43.6309C37.7754 43.3574 37.8984 43.0566 37.8984 42.7285V38.627H42C42.1641 38.627 42.3281 38.5996 42.4922 38.5449C42.6562 38.4902 42.8203 38.3809 42.9844 38.2168L45.6914 35.5098L43.7227 33.623L41.4258 35.9199H37.8984V32.3926L50.1211 20.252L51.8438 21.9746L53.8125 20.0879L48.3984 14.6738L46.4297 16.5605L48.2344 18.2832L37.8984 28.6191V26.4043C37.8984 26.0762 37.7754 25.7754 37.5293 25.502C37.2832 25.2285 36.9688 25.0918 36.5859 25.0918H32.4844V23.6973C32.4844 23.3691 32.3613 23.0684 32.1152 22.7949C31.8691 22.5215 31.5547 22.3848 31.1719 22.3848H29.7773V15.5762C29.7773 14.4824 29.3809 13.5391 28.5879 12.7461C27.7949 11.9531 26.8516 11.5566 25.7578 11.5566H21.6562V14.2637H25.7578C26.1406 14.2637 26.4551 14.3867 26.7012 14.6328C26.9473 14.8789 27.0703 15.1934 27.0703 15.5762V22.3848H25.7578C25.375 22.3848 25.0469 22.5215 24.7734 22.7949C24.5 23.0684 24.3633 23.3691 24.3633 23.6973V27.7988H14.9297C13.7812 27.7988 12.8105 28.1953 12.0176 28.9883C11.2246 29.7812 10.8281 30.7246 10.8281 31.8184V43.3027C10.5 43.4121 10.1582 43.5352 9.80273 43.6719C9.44727 43.8086 9.10547 43.959 8.77734 44.123L7.71094 43.0566C7.4375 42.8379 7.12305 42.7285 6.76758 42.7285C6.41211 42.7285 6.09766 42.8379 5.82422 43.0566L1.72266 47.1582C1.50391 47.4316 1.39453 47.7461 1.39453 48.1016C1.39453 48.457 1.50391 48.7715 1.72266 49.0449L2.78906 50.1113C2.625 50.4395 2.48828 50.7812 2.37891 51.1367C2.26953 51.4922 2.13281 51.834 1.96875 52.1621H1.39453C1.01172 52.1621 0.683594 52.2988 0.410156 52.5723C0.136719 52.8457 0 53.1738 0 53.5566V58.9707C0 59.3535 0.136719 59.668 0.410156 59.9141C0.683594 60.1602 1.01172 60.2832 1.39453 60.2832H1.96875C2.07812 60.666 2.20117 61.0215 2.33789 61.3496C2.47461 61.6777 2.65234 62.0059 2.87109 62.334L1.72266 63.4004C1.50391 63.6738 1.39453 64.002 1.39453 64.3848C1.39453 64.7676 1.50391 65.0957 1.72266 65.3691L5.82422 69.3887C6.09766 69.6621 6.41211 69.7988 6.76758 69.7988C7.12305 69.7988 7.4375 69.6621 7.71094 69.3887L8.77734 68.3223C9.10547 68.4863 9.44727 68.6367 9.80273 68.7734C10.1582 68.9102 10.5 69.0332 10.8281 69.1426V69.7988C10.8281 70.1816 10.9648 70.4961 11.2383 70.7422C11.5117 70.9883 11.8398 71.1113 12.2227 71.1113H17.6367C18.0195 71.1113 18.334 70.9883 18.5801 70.7422C18.8262 70.4961 18.9492 70.1816 18.9492 69.7988V69.1426C19.332 69.0332 19.6875 68.9102 20.0156 68.7734C20.3438 68.6367 20.6719 68.4863 21 68.3223L22.0664 69.3887C22.3398 69.6621 22.668 69.7988 23.0508 69.7988C23.4336 69.7988 23.7344 69.6621 23.9531 69.3887L28.0547 65.3691C28.3281 65.0957 28.4648 64.7676 28.4648 64.3848C28.4648 64.002 28.3281 63.6738 28.0547 63.4004L26.9883 62.334C27.1523 62.0059 27.3027 61.6777 27.4395 61.3496C27.5762 61.0215 27.6992 60.666 27.8086 60.2832H28.4648C28.8477 60.2832 29.1621 60.1602 29.4082 59.9141C29.6543 59.668 29.7773 59.3535 29.7773 58.9707V57.5762H32.4844V58.9707C32.4844 59.3535 32.6211 59.668 32.8945 59.9141C33.168 60.1602 33.4961 60.2832 33.8789 60.2832H44.707C45.0898 60.2832 45.418 60.1602 45.6914 59.9141C45.9648 59.668 46.1016 59.3535 46.1016 58.9707V57.5762H50.6953C50.8594 58.2871 51.0781 58.9844 51.3516 59.668C51.625 60.3516 51.9531 60.9941 52.3359 61.5957L51.8438 62.0879C51.7344 62.1973 51.6523 62.334 51.5977 62.498C51.543 62.6621 51.5156 62.8262 51.5156 62.9902C51.5156 63.209 51.543 63.4004 51.5977 63.5645C51.6523 63.7285 51.7344 63.8652 51.8438 63.9746L55.9453 68.0762C56.2188 68.2949 56.5469 68.4043 56.9297 68.4043C57.3125 68.4043 57.6133 68.2949 57.832 68.0762L58.3242 67.584C58.9258 67.9668 59.5684 68.2949 60.252 68.5684C60.9355 68.8418 61.6328 69.0879 62.3438 69.3066V69.7988C62.3438 70.1816 62.4668 70.4961 62.7129 70.7422C62.959 70.9883 63.2734 71.1113 63.6562 71.1113H69.0703C69.4531 71.1113 69.7812 70.9883 70.0547 70.7422C70.3281 70.4961 70.4648 70.1816 70.4648 69.7988V69.3066C71.1758 69.0879 71.873 68.8418 72.5566 68.5684C73.2402 68.2949 73.8828 67.9668 74.4844 67.584L74.8945 68.0762C75.0586 68.1855 75.2227 68.2676 75.3867 68.3223C75.5508 68.377 75.7148 68.4043 75.8789 68.4043C76.043 68.4043 76.207 68.377 76.3711 68.3223C76.5352 68.2676 76.6992 68.1855 76.8633 68.0762L80.8828 63.9746C81.1562 63.7012 81.293 63.373 81.293 62.9902C81.293 62.6074 81.1562 62.3066 80.8828 62.0879L80.4727 61.6777C80.8555 61.0215 81.1836 60.3516 81.457 59.668C81.7305 58.9844 81.9492 58.2871 82.1133 57.5762H82.6055C82.9883 57.5762 83.3164 57.4531 83.5898 57.207C83.8633 56.9609 84 56.6465 84 56.2637V50.8496C84 50.4668 83.8633 50.1387 83.5898 49.8652C83.3164 49.5918 82.9883 49.4551 82.6055 49.4551H82.1133C81.9492 48.7441 81.7305 48.0605 81.457 47.4043C81.1836 46.748 80.8555 46.0918 80.4727 45.4355L80.8828 45.0254C80.9922 44.8613 81.0879 44.6973 81.1699 44.5332C81.252 44.3691 81.293 44.2051 81.293 44.041C81.293 43.877 81.252 43.7129 81.1699 43.5488C81.0879 43.3848 80.9922 43.2207 80.8828 43.0566L76.8633 39.0371C76.5898 38.7637 76.2617 38.627 75.8789 38.627C75.4961 38.627 75.168 38.7637 74.8945 39.0371L74.4844 39.4473C73.8281 39.0645 73.1719 38.7363 72.5156 38.4629C71.8594 38.1895 71.1758 37.9707 70.4648 37.8066V37.3145C70.4648 36.9316 70.3281 36.6035 70.0547 36.3301C69.7812 36.0566 69.4531 35.9199 69.0703 35.9199H67.7578V33.2129H72.7617ZM42.5742 3.43555H70.4648V6.14258H39.8672L42.5742 3.43555ZM79.1602 30.2598C79.2695 30.3691 79.3926 30.4375 79.5293 30.4648C79.666 30.4922 79.7891 30.5059 79.8984 30.5059H81.293V33.2129H77.6016L73.9102 30.752C73.8008 30.6426 73.6777 30.5742 73.541 30.5469C73.4043 30.5195 73.2812 30.5059 73.1719 30.5059H66.9375L69.6445 27.7988H75.4688L79.1602 30.2598ZM54.2227 27.7988H60.9492C62.0977 27.7988 63.0684 27.4023 63.8613 26.6094C64.6543 25.8164 65.0508 24.8457 65.0508 23.6973V18.2832H67.7578V25.9121L63.082 30.5059H54.2227V27.7988ZM43.3945 49.4551V52.1621H35.1914V49.4551H43.3945ZM32.4844 31.8184V27.7988H35.1914V41.334H29.7773V33.2129H31.1719C31.5547 33.2129 31.8691 33.0762 32.1152 32.8027C32.3613 32.5293 32.4844 32.2012 32.4844 31.8184ZM27.0703 25.0918H29.7773V30.5059H27.0703V25.0918ZM14.9297 30.5059H18.9492V35.9199H13.5352V31.8184C13.5352 31.4902 13.6719 31.1895 13.9453 30.916C14.2188 30.6426 14.5469 30.5059 14.9297 30.5059ZM27.0703 57.5762H26.7422C26.4141 57.5762 26.127 57.6719 25.8809 57.8633C25.6348 58.0547 25.4844 58.3145 25.4297 58.6426C25.3203 59.2441 25.1562 59.8184 24.9375 60.3652C24.7188 60.9121 24.4453 61.4043 24.1172 61.8418C23.9531 62.1152 23.8984 62.416 23.9531 62.7441C24.0078 63.0723 24.1445 63.3457 24.3633 63.5645L25.1836 64.3848L23.0508 66.5176L22.2305 65.6973C22.0117 65.4785 21.7383 65.3418 21.4102 65.2871C21.082 65.2324 20.7812 65.2871 20.5078 65.4512C20.0156 65.7793 19.4961 66.0527 18.9492 66.2715C18.4023 66.4902 17.8555 66.6816 17.3086 66.8457C16.9805 66.9004 16.7207 67.0508 16.5293 67.2969C16.3379 67.543 16.2422 67.8301 16.2422 68.1582V68.4043H13.5352V68.1582C13.5352 67.8301 13.4395 67.543 13.248 67.2969C13.0566 67.0508 12.7969 66.873 12.4688 66.7637C11.9219 66.6543 11.3887 66.4902 10.8691 66.2715C10.3496 66.0527 9.81641 65.7793 9.26953 65.4512C8.99609 65.2871 8.70898 65.2324 8.4082 65.2871C8.10742 65.3418 7.84766 65.4785 7.62891 65.6973L6.80859 66.5176L4.59375 64.3848L5.49609 63.4824C5.71484 63.2637 5.83789 63.0039 5.86523 62.7031C5.89258 62.4023 5.82422 62.1152 5.66016 61.8418C5.33203 61.3496 5.05859 60.8301 4.83984 60.2832C4.62109 59.7363 4.45703 59.1895 4.34766 58.6426C4.29297 58.3145 4.14258 58.0547 3.89648 57.8633C3.65039 57.6719 3.36328 57.5762 3.03516 57.5762H2.70703V54.8691H3.03516C3.36328 54.8691 3.65039 54.7734 3.89648 54.582C4.14258 54.3906 4.29297 54.1309 4.34766 53.8027C4.51172 53.2559 4.70312 52.709 4.92188 52.1621C5.14062 51.6152 5.38672 51.0957 5.66016 50.6035C5.82422 50.3301 5.89258 50.043 5.86523 49.7422C5.83789 49.4414 5.71484 49.1816 5.49609 48.9629L4.59375 48.1426L6.80859 45.9277L7.62891 46.8301C7.84766 47.0488 8.10742 47.1719 8.4082 47.1992C8.70898 47.2266 8.99609 47.1582 9.26953 46.9941C9.76172 46.666 10.2812 46.3926 10.8281 46.1738C11.375 45.9551 11.9219 45.791 12.4688 45.6816C12.7969 45.627 13.0566 45.4766 13.248 45.2305C13.4395 44.9844 13.5352 44.6973 13.5352 44.3691V44.041H16.2422V44.3691C16.2422 44.6973 16.3379 44.9844 16.5293 45.2305C16.7207 45.4766 16.9805 45.627 17.3086 45.6816C17.8555 45.791 18.4023 45.9551 18.9492 46.1738C19.4961 46.3926 20.0156 46.666 20.5078 46.9941C20.7812 47.1582 21.0684 47.2266 21.3691 47.1992C21.6699 47.1719 21.9297 47.0488 22.1484 46.8301L23.0508 45.9277L25.1836 48.1426L24.3633 48.9629C24.1445 49.1816 24.0078 49.4414 23.9531 49.7422C23.8984 50.043 23.9531 50.3301 24.1172 50.6035C24.4453 51.1504 24.7188 51.6836 24.9375 52.2031C25.1562 52.7227 25.3203 53.2559 25.4297 53.8027C25.5391 54.1309 25.7168 54.3906 25.9629 54.582C26.209 54.7734 26.4961 54.8691 26.8242 54.8691H27.0703V57.5762ZM29.7773 54.8691V53.5566C29.7773 53.1738 29.6543 52.8457 29.4082 52.5723C29.1621 52.2988 28.8477 52.1621 28.4648 52.1621H27.8086C27.6992 51.834 27.5762 51.5059 27.4395 51.1777C27.3027 50.8496 27.1523 50.5215 26.9883 50.1934L28.0547 49.0449C28.3281 48.7715 28.4648 48.457 28.4648 48.1016C28.4648 47.7461 28.3281 47.4316 28.0547 47.1582L23.9531 43.0566C23.7344 42.8379 23.4336 42.7285 23.0508 42.7285C22.668 42.7285 22.3398 42.8379 22.0664 43.0566L21 44.2051C20.6719 43.9863 20.3301 43.8086 19.9746 43.6719C19.6191 43.5352 19.2773 43.4121 18.9492 43.3027V42.7285C18.9492 42.3457 18.8262 42.0176 18.5801 41.7441C18.334 41.4707 18.0195 41.334 17.6367 41.334H13.5352V38.627H20.3438C20.7266 38.627 21.041 38.4902 21.2871 38.2168C21.5332 37.9434 21.6562 37.6426 21.6562 37.3145V30.5059H24.3633V31.8184C24.3633 32.2012 24.5 32.5293 24.7734 32.8027C25.0469 33.0762 25.375 33.2129 25.7578 33.2129H27.0703V42.7285C27.0703 43.0566 27.207 43.3574 27.4805 43.6309C27.7539 43.9043 28.082 44.041 28.4648 44.041H32.4844V54.8691H29.7773ZM35.1914 57.5762V54.8691H43.3945V57.5762H35.1914ZM68.8242 40.1855C69.7539 40.3496 70.6426 40.6094 71.4902 40.9648C72.3379 41.3203 73.1445 41.7715 73.9102 42.3184C74.1836 42.4824 74.4844 42.5508 74.8125 42.5234C75.1406 42.4961 75.4141 42.373 75.6328 42.1543L75.8789 41.9082L78.0117 44.041L77.7656 44.2871C77.5469 44.5059 77.4238 44.7793 77.3965 45.1074C77.3691 45.4355 77.4375 45.7363 77.6016 46.0098C78.1484 46.7754 78.5996 47.582 78.9551 48.4297C79.3105 49.2773 79.5703 50.166 79.7344 51.0957C79.7891 51.4238 79.9395 51.6836 80.1855 51.875C80.4316 52.0664 80.7188 52.1621 81.0469 52.1621H81.293V54.8691H81.0469C80.7188 54.8691 80.4316 54.9785 80.1855 55.1973C79.9395 55.416 79.7891 55.6895 79.7344 56.0176C79.5156 56.9473 79.2422 57.8359 78.9141 58.6836C78.5859 59.5312 78.1484 60.3379 77.6016 61.1035C77.4375 61.377 77.3691 61.6641 77.3965 61.9648C77.4238 62.2656 77.5469 62.5527 77.7656 62.8262L78.0117 62.9902L75.8789 65.2051L75.6328 64.959C75.4141 64.7402 75.1406 64.6172 74.8125 64.5898C74.4844 64.5625 74.1836 64.6309 73.9102 64.7949C73.1445 65.2871 72.3379 65.7109 71.4902 66.0664C70.6426 66.4219 69.7539 66.6816 68.8242 66.8457C68.4961 66.9004 68.2363 67.0508 68.0449 67.2969C67.8535 67.543 67.7578 67.8301 67.7578 68.1582V68.4043H65.0508V68.1582C65.0508 67.8301 64.9414 67.543 64.7227 67.2969C64.5039 67.0508 64.2305 66.9004 63.9023 66.8457C63.0273 66.6816 62.166 66.4219 61.3184 66.0664C60.4707 65.7109 59.6367 65.2871 58.8164 64.7949C58.543 64.5762 58.2559 64.4941 57.9551 64.5488C57.6543 64.6035 57.3945 64.7402 57.1758 64.959L56.9297 65.2051L54.7969 62.9902L54.9609 62.7441C55.2344 62.5254 55.3848 62.2656 55.4121 61.9648C55.4395 61.6641 55.3438 61.377 55.125 61.1035C54.6328 60.2832 54.209 59.4492 53.8535 58.6016C53.498 57.7539 53.2383 56.8926 53.0742 56.0176C53.0195 55.6895 52.8691 55.416 52.623 55.1973C52.377 54.9785 52.0898 54.8691 51.7617 54.8691H51.5156V52.1621H51.7617C52.0898 52.1621 52.377 52.0664 52.623 51.875C52.8691 51.6836 53.0195 51.4238 53.0742 51.0957C53.2383 50.166 53.498 49.2773 53.8535 48.4297C54.209 47.582 54.6328 46.7754 55.125 46.0098C55.2891 45.7363 55.3574 45.4355 55.3301 45.1074C55.3027 44.7793 55.1797 44.5059 54.9609 44.2871L54.7148 44.041L56.9297 41.9082L57.0938 42.1543C57.3672 42.373 57.6543 42.4961 57.9551 42.5234C58.2559 42.5508 58.543 42.4824 58.8164 42.3184C59.582 41.7715 60.3887 41.334 61.2363 41.0059C62.084 40.6777 62.9727 40.4043 63.9023 40.1855C64.2305 40.1309 64.5039 39.9805 64.7227 39.7344C64.9414 39.4883 65.0508 39.2012 65.0508 38.873V38.627H67.7578V38.873C67.7578 39.2012 67.8535 39.4883 68.0449 39.7344C68.2363 39.9805 68.4961 40.1309 68.8242 40.1855ZM65.0508 35.9199H63.6562C63.2734 35.9199 62.959 36.0566 62.7129 36.3301C62.4668 36.6035 62.3438 36.9316 62.3438 37.3145V37.8066C61.6328 37.9707 60.9355 38.1895 60.252 38.4629C59.5684 38.7363 58.8984 39.0645 58.2422 39.4473L57.832 39.0371C57.7227 38.9277 57.5859 38.832 57.4219 38.75C57.2578 38.668 57.0938 38.627 56.9297 38.627C56.7109 38.627 56.5195 38.668 56.3555 38.75C56.1914 38.832 56.0547 38.9277 55.9453 39.0371L51.8438 43.0566C51.625 43.3301 51.5156 43.6582 51.5156 44.041C51.5156 44.4238 51.625 44.752 51.8438 45.0254L52.3359 45.4355C51.9531 46.0371 51.625 46.6797 51.3516 47.3633C51.0781 48.0469 50.8594 48.7441 50.6953 49.4551H50.1211C49.7383 49.4551 49.4238 49.5918 49.1777 49.8652C48.9316 50.1387 48.8086 50.4668 48.8086 50.8496V54.8691H46.1016V43.3848L60.0469 33.2129H65.0508V35.9199ZM56.9297 53.5566C56.9297 56.1816 57.8457 58.4102 59.6777 60.2422C61.5098 62.0742 63.7383 62.9902 66.3633 62.9902C68.9883 62.9902 71.2305 62.0742 73.0898 60.2422C74.9492 58.4102 75.8789 56.1816 75.8789 53.5566C75.8789 50.9316 74.9492 48.6895 73.0898 46.8301C71.2305 44.9707 68.9883 44.041 66.3633 44.041C63.7383 44.041 61.5098 44.9707 59.6777 46.8301C57.8457 48.6895 56.9297 50.9316 56.9297 53.5566ZM73.1719 53.5566C73.1719 55.416 72.502 57.002 71.1621 58.3145C69.8223 59.627 68.2227 60.2832 66.3633 60.2832C64.5039 60.2832 62.918 59.627 61.6055 58.3145C60.293 57.002 59.6367 55.416 59.6367 53.5566C59.6367 51.6973 60.293 50.0977 61.6055 48.7578C62.918 47.418 64.5039 46.748 66.3633 46.748C68.2227 46.748 69.8223 47.418 71.1621 48.7578C72.502 50.0977 73.1719 51.6973 73.1719 53.5566Z"/></symbol><symbol viewBox="0 0 14 13" id="instagram" xmlns="http://www.w3.org/2000/svg"><path d="M6.98535 3.60547C7.42285 3.60547 7.83301 3.6875 8.21582 3.85156C8.59863 4.01562 8.93132 4.23893 9.21387 4.52148C9.49642 4.80404 9.71973 5.13672 9.88379 5.51953C10.0479 5.90234 10.1299 6.3125 10.1299 6.75C10.1299 7.17839 10.0479 7.58398 9.88379 7.9668C9.71973 8.34961 9.49642 8.68457 9.21387 8.97168C8.93132 9.25879 8.59863 9.48438 8.21582 9.64844C7.83301 9.8125 7.42285 9.89453 6.98535 9.89453C6.55697 9.89453 6.15137 9.8125 5.76855 9.64844C5.38574 9.48438 5.05078 9.25879 4.76367 8.97168C4.47656 8.68457 4.25098 8.34961 4.08691 7.9668C3.92285 7.58398 3.84082 7.17839 3.84082 6.75C3.84082 6.3125 3.92285 5.90234 4.08691 5.51953C4.25098 5.13672 4.47656 4.80404 4.76367 4.52148C5.05078 4.23893 5.38574 4.01562 5.76855 3.85156C6.15137 3.6875 6.55697 3.60547 6.98535 3.60547ZM6.98535 8.78711C7.55046 8.78711 8.03353 8.58887 8.43457 8.19238C8.83561 7.7959 9.03613 7.3151 9.03613 6.75C9.03613 6.1849 8.83561 5.70182 8.43457 5.30078C8.03353 4.89974 7.55046 4.69922 6.98535 4.69922C6.42025 4.69922 5.93945 4.89974 5.54297 5.30078C5.14648 5.70182 4.94824 6.1849 4.94824 6.75C4.94824 7.3151 5.14876 7.7959 5.5498 8.19238C5.95085 8.58887 6.42936 8.78711 6.98535 8.78711ZM10.9912 3.48242C10.9912 3.68294 10.9206 3.85384 10.7793 3.99512C10.638 4.13639 10.4626 4.20703 10.2529 4.20703C10.0524 4.20703 9.88151 4.13639 9.74023 3.99512C9.59896 3.85384 9.52832 3.68294 9.52832 3.48242C9.52832 3.27279 9.59896 3.09733 9.74023 2.95605C9.88151 2.81478 10.0524 2.74414 10.2529 2.74414C10.4626 2.74414 10.638 2.81478 10.7793 2.95605C10.9206 3.09733 10.9912 3.27279 10.9912 3.48242ZM13.0693 4.2207C13.0876 4.47591 13.1012 4.83594 13.1104 5.30078C13.1104 5.75651 13.1104 6.2373 13.1104 6.74316C13.1104 7.24902 13.1104 7.73438 13.1104 8.19922C13.1012 8.66406 13.0876 9.02409 13.0693 9.2793C13.0511 9.76237 12.9714 10.2204 12.8301 10.6533C12.6888 11.0863 12.4404 11.4805 12.085 11.8359C11.7295 12.2005 11.3353 12.4512 10.9023 12.5879C10.4694 12.7246 10.0068 12.8066 9.51465 12.834C9.25944 12.8431 8.89941 12.8522 8.43457 12.8613C7.97884 12.8704 7.49805 12.875 6.99219 12.875C6.48633 12.875 6.00098 12.8704 5.53613 12.8613C5.07129 12.8522 4.71126 12.8431 4.45605 12.834C3.96387 12.8066 3.50358 12.7246 3.0752 12.5879C2.64681 12.4512 2.25033 12.2005 1.88574 11.8359C1.53027 11.4805 1.28418 11.0863 1.14746 10.6533C1.01074 10.2204 0.928711 9.76237 0.901367 9.2793C0.883138 9.02409 0.874023 8.66406 0.874023 8.19922C0.864909 7.73438 0.860352 7.24902 0.860352 6.74316C0.860352 6.2373 0.864909 5.75195 0.874023 5.28711C0.874023 4.83138 0.883138 4.47591 0.901367 4.2207C0.928711 3.72852 1.01074 3.26595 1.14746 2.83301C1.28418 2.40007 1.53027 2.00586 1.88574 1.65039C2.25033 1.29492 2.64909 1.04655 3.08203 0.905273C3.51497 0.763997 3.97298 0.684245 4.45605 0.666016C4.71126 0.647786 5.07129 0.634114 5.53613 0.625C6.00098 0.625 6.48633 0.625 6.99219 0.625C7.49805 0.625 7.97884 0.625 8.43457 0.625C8.89941 0.634114 9.25944 0.647786 9.51465 0.666016C10.0068 0.693359 10.4694 0.775391 10.9023 0.912109C11.3353 1.04883 11.7295 1.29492 12.085 1.65039C12.4404 2.01497 12.6888 2.41146 12.8301 2.83984C12.9714 3.26823 13.0511 3.72852 13.0693 4.2207ZM11.7705 10.3594C11.8434 10.1589 11.8981 9.89909 11.9346 9.58008C11.971 9.26107 11.9961 8.92839 12.0098 8.58203C12.0234 8.23568 12.0257 7.89844 12.0166 7.57031C12.0166 7.24219 12.0166 6.96875 12.0166 6.75C12.0166 6.52214 12.0166 6.24414 12.0166 5.91602C12.0257 5.58789 12.0234 5.25065 12.0098 4.9043C11.9961 4.55794 11.971 4.22982 11.9346 3.91992C11.8981 3.60091 11.8434 3.34115 11.7705 3.14062C11.6611 2.86719 11.5062 2.63021 11.3057 2.42969C11.1051 2.22917 10.8682 2.07422 10.5947 1.96484C10.3942 1.89193 10.1344 1.83724 9.81543 1.80078C9.50553 1.76432 9.17741 1.73926 8.83105 1.72559C8.4847 1.71191 8.14746 1.70964 7.81934 1.71875C7.49121 1.71875 7.21322 1.71875 6.98535 1.71875C6.7666 1.71875 6.49316 1.71875 6.16504 1.71875C5.83691 1.70964 5.49967 1.71191 5.15332 1.72559C4.80697 1.73926 4.47428 1.76432 4.15527 1.80078C3.83626 1.83724 3.5765 1.89193 3.37598 1.96484C3.10254 2.07422 2.86556 2.22917 2.66504 2.42969C2.46452 2.63021 2.31413 2.86719 2.21387 3.14062C2.13184 3.34115 2.07259 3.60091 2.03613 3.91992C1.99967 4.22982 1.97689 4.55794 1.96777 4.9043C1.95866 5.25065 1.9541 5.58789 1.9541 5.91602C1.96322 6.24414 1.96777 6.52214 1.96777 6.75C1.96777 6.96875 1.96322 7.24219 1.9541 7.57031C1.9541 7.89844 1.95866 8.23568 1.96777 8.58203C1.97689 8.92839 1.99967 9.26107 2.03613 9.58008C2.07259 9.89909 2.13184 10.1589 2.21387 10.3594C2.32324 10.6328 2.47819 10.8675 2.67871 11.0635C2.87923 11.2594 3.11165 11.4121 3.37598 11.5215C3.5765 11.6035 3.83626 11.6628 4.15527 11.6992C4.47428 11.7357 4.80697 11.7585 5.15332 11.7676C5.49967 11.7767 5.83691 11.7812 6.16504 11.7812C6.49316 11.7721 6.7666 11.7676 6.98535 11.7676C7.21322 11.7676 7.49121 11.7721 7.81934 11.7812C8.14746 11.7812 8.4847 11.7767 8.83105 11.7676C9.17741 11.7585 9.50553 11.7357 9.81543 11.6992C10.1344 11.6628 10.3942 11.6035 10.5947 11.5215C10.8682 11.4121 11.1051 11.2572 11.3057 11.0566C11.5062 10.8561 11.6611 10.6237 11.7705 10.3594Z"/></symbol><symbol viewBox="0 0 25 35" id="location" xmlns="http://www.w3.org/2000/svg"><path d="M12.4215 31.0625C12.2653 31.0625 12.1246 31.0156 11.9996 30.9219C11.8746 30.8281 11.7809 30.7188 11.7184 30.5938C11.2184 29.1875 10.5309 27.8984 9.65589 26.7266C8.78089 25.5547 7.85902 24.3906 6.89027 23.2344C6.01527 22.1719 5.14808 21.0781 4.2887 19.9531C3.42933 18.8281 2.70277 17.6094 2.10902 16.2969C2.04652 16.1094 2.05433 15.9141 2.13245 15.7109C2.21058 15.5078 2.34339 15.375 2.53089 15.3125C2.71839 15.2188 2.90589 15.2109 3.09339 15.2891C3.28089 15.3672 3.42152 15.5 3.51527 15.6875C4.04652 16.9062 4.71058 18.0391 5.50745 19.0859C6.30433 20.1328 7.14027 21.1875 8.01527 22.25C9.01527 23.4375 9.9762 24.6562 10.8981 25.9062C11.82 27.1562 12.5621 28.5469 13.1246 30.0781C13.1871 30.2656 13.1793 30.4531 13.1012 30.6406C13.0231 30.8281 12.8903 30.9531 12.7028 31.0156C12.6403 31.0469 12.5856 31.0625 12.5387 31.0625C12.4918 31.0625 12.4528 31.0625 12.4215 31.0625ZM12.4215 31.0625C12.3903 31.0625 12.3512 31.0625 12.3043 31.0625C12.2575 31.0625 12.2184 31.0469 12.1871 31.0156C11.9684 30.9531 11.82 30.8281 11.7418 30.6406C11.6637 30.4531 11.6559 30.2656 11.7184 30.0781C12.2809 28.5469 13.0231 27.1562 13.945 25.9062C14.8668 24.6562 15.8278 23.4375 16.8278 22.25C17.7028 21.1875 18.5387 20.1328 19.3356 19.0859C20.1325 18.0391 20.7965 16.9062 21.3278 15.6875C21.4215 15.5 21.5621 15.3672 21.7496 15.2891C21.9371 15.2109 22.1403 15.2188 22.359 15.3125C22.5465 15.375 22.6715 15.5078 22.734 15.7109C22.7965 15.9141 22.7965 16.1094 22.734 16.2969C22.1403 17.6094 21.4215 18.8281 20.5778 19.9531C19.734 21.0781 18.859 22.1719 17.9528 23.2344C16.984 24.3906 16.0621 25.5547 15.1871 26.7266C14.3121 27.8984 13.6246 29.1875 13.1246 30.5938C13.0621 30.7188 12.9684 30.8281 12.8434 30.9219C12.7184 31.0156 12.5778 31.0625 12.4215 31.0625ZM12.4215 17.75C10.7965 17.75 9.39027 17.1562 8.20277 15.9688C7.01527 14.7812 6.42152 13.375 6.42152 11.75C6.42152 10.125 7.01527 8.71875 8.20277 7.53125C9.39027 6.34375 10.7965 5.75 12.4215 5.75C14.0465 5.75 15.4528 6.34375 16.6403 7.53125C17.8278 8.71875 18.4215 10.125 18.4215 11.75C18.4215 13.375 17.8278 14.7812 16.6403 15.9688C15.4528 17.1562 14.0465 17.75 12.4215 17.75ZM12.4215 7.25C11.2028 7.25 10.1481 7.69531 9.25745 8.58594C8.36683 9.47656 7.92152 10.5312 7.92152 11.75C7.92152 12.9688 8.36683 14.0234 9.25745 14.9141C10.1481 15.8047 11.2028 16.25 12.4215 16.25C13.6403 16.25 14.695 15.8047 15.5856 14.9141C16.4762 14.0234 16.9215 12.9688 16.9215 11.75C16.9215 10.5312 16.4762 9.47656 15.5856 8.58594C14.695 7.69531 13.6403 7.25 12.4215 7.25ZM22.0309 16.7188C21.9684 16.7188 21.9137 16.7188 21.8668 16.7188C21.82 16.7188 21.7809 16.7031 21.7496 16.6719C21.5621 16.5781 21.4293 16.4375 21.3512 16.25C21.2731 16.0625 21.2653 15.875 21.3278 15.6875C21.9528 14.25 22.2184 12.7656 22.1246 11.2344C22.0309 9.70312 21.5934 8.25 20.8121 6.875C19.9996 5.5 18.945 4.39062 17.6481 3.54688C16.3512 2.70312 14.9371 2.20312 13.4059 2.04688C11.9059 1.89062 10.4371 2.08594 8.99964 2.63281C7.56214 3.17969 6.32777 4.01562 5.29652 5.14062C3.98402 6.54688 3.1637 8.21875 2.83558 10.1562C2.50745 12.0938 2.73402 13.9375 3.51527 15.6875C3.57777 15.875 3.57777 16.0625 3.51527 16.25C3.45277 16.4375 3.32777 16.5781 3.14027 16.6719C2.92152 16.7656 2.71839 16.7734 2.53089 16.6953C2.34339 16.6172 2.20277 16.4844 2.10902 16.2969C1.23402 14.2656 0.984017 12.1328 1.35902 9.89844C1.73402 7.66406 2.67152 5.73438 4.17152 4.10938C5.35902 2.82812 6.78089 1.875 8.43714 1.25C10.0934 0.625 11.7965 0.390625 13.5465 0.546875C15.3278 0.734375 16.9684 1.3125 18.4684 2.28125C19.9684 3.25 21.1715 4.53125 22.0778 6.125C23.0153 7.71875 23.5387 9.39844 23.6481 11.1641C23.7575 12.9297 23.4528 14.6406 22.734 16.2969C22.6715 16.4219 22.5778 16.5234 22.4528 16.6016C22.3278 16.6797 22.1871 16.7188 22.0309 16.7188ZM12.4684 35C11.1871 35 9.79652 34.9219 8.29652 34.7656C6.79652 34.6094 5.34339 34.2812 3.93714 33.7812C3.37464 33.5938 2.50745 33.1719 1.33558 32.5156C0.163705 31.8594 -0.219108 30.9062 0.187142 29.6562C0.280892 29.3125 0.468392 28.9844 0.749642 28.6719C1.03089 28.3594 1.39027 28.0781 1.82777 27.8281C2.51527 27.3906 3.23402 27.0547 3.98402 26.8203C4.73402 26.5859 5.43714 26.3906 6.09339 26.2344C6.28089 26.2031 6.46839 26.2422 6.65589 26.3516C6.84339 26.4609 6.95277 26.6094 6.98402 26.7969C7.04652 27.0156 7.02308 27.2109 6.9137 27.3828C6.80433 27.5547 6.64027 27.6562 6.42152 27.6875C5.67152 27.875 4.98402 28.0703 4.35902 28.2734C3.73402 28.4766 3.15589 28.75 2.62464 29.0938C2.34339 29.25 2.11683 29.4141 1.94495 29.5859C1.77308 29.7578 1.65589 29.9375 1.59339 30.125C1.49964 30.5 1.68714 30.875 2.15589 31.25C2.62464 31.625 3.39027 32 4.45277 32.375C5.92152 32.9062 7.45277 33.2266 9.04652 33.3359C10.6403 33.4453 12.0778 33.5 13.359 33.5C15.1403 33.4688 16.7184 33.3203 18.0934 33.0547C19.4684 32.7891 20.6715 32.3906 21.7028 31.8594C22.0153 31.7031 22.3903 31.4531 22.8278 31.1094C23.2653 30.7656 23.3903 30.3906 23.2028 29.9844C22.859 29.2969 22.2028 28.7969 21.234 28.4844C20.2653 28.1719 19.4059 27.9375 18.6559 27.7812L18.4215 27.6875C18.234 27.6562 18.0778 27.5547 17.9528 27.3828C17.8278 27.2109 17.7965 27.0156 17.859 26.7969C17.8903 26.6094 17.9996 26.4609 18.1871 26.3516C18.3746 26.2422 18.5621 26.2031 18.7496 26.2344L18.984 26.2812C19.8903 26.5 20.9137 26.8125 22.0543 27.2188C23.195 27.625 24.0153 28.3125 24.5153 29.2812C24.859 30 24.8434 30.7031 24.4684 31.3906C24.0934 32.0781 23.4059 32.6719 22.4059 33.1719C21.2496 33.7656 19.9293 34.2109 18.445 34.5078C16.9606 34.8047 15.2809 34.9688 13.4059 35C13.2496 35 13.0934 35 12.9371 35C12.7809 35 12.6246 35 12.4684 35Z"/></symbol><symbol viewBox="0 0 31 29" id="mail" xmlns="http://www.w3.org/2000/svg"><path d="M30.2705 11.3223C30.2705 11.3027 30.2705 11.2783 30.2705 11.249C30.2705 11.2197 30.2607 11.1953 30.2412 11.1758C30.2217 11.0977 30.1875 11.0195 30.1387 10.9414C30.0898 10.8633 30.0264 10.7949 29.9482 10.7363L25.6416 7.77734V4.55469C25.6416 4.33984 25.5684 4.15918 25.4219 4.0127C25.2754 3.86621 25.0947 3.79297 24.8799 3.79297H19.958L15.7393 0.863281C15.6025 0.785156 15.4561 0.746094 15.2998 0.746094C15.1436 0.746094 14.9971 0.785156 14.8604 0.863281L10.6416 3.79297H5.71973C5.50488 3.79297 5.32422 3.86621 5.17773 4.0127C5.03125 4.15918 4.95801 4.33984 4.95801 4.55469V7.71875L0.62207 10.707C0.524414 10.7852 0.446289 10.8779 0.387695 10.9854C0.329102 11.0928 0.299805 11.2051 0.299805 11.3223C0.299805 11.3223 0.299805 11.3271 0.299805 11.3369C0.299805 11.3467 0.299805 11.3516 0.299805 11.3516L0.329102 27.9922C0.329102 28.0898 0.348633 28.1875 0.387695 28.2852C0.426758 28.3828 0.475586 28.4707 0.53418 28.5488C0.612305 28.6074 0.700195 28.6562 0.797852 28.6953C0.895508 28.7344 0.993164 28.7539 1.09082 28.7539L29.5381 28.7246C29.7529 28.7246 29.9336 28.6514 30.0801 28.5049C30.2266 28.3584 30.2998 28.1777 30.2998 27.9629L30.2705 11.3223ZM25.6416 9.62305L28.1025 11.3516L25.6416 13.0508V9.62305ZM15.2998 2.44531L17.2627 3.79297H13.3369L15.2998 2.44531ZM6.48145 5.3457H24.1182V14.1055L18.2002 18.2363L15.7686 16.3613C15.6318 16.2637 15.4756 16.21 15.2998 16.2002C15.124 16.1904 14.9678 16.2441 14.8311 16.3613L12.3994 18.2363L6.48145 14.1641V5.3457ZM4.95801 9.59375V13.0801L2.40918 11.3516L4.95801 9.59375ZM1.85254 12.8164L11.1396 19.2324L1.85254 26.4395V12.8164ZM3.34668 27.2305L15.2998 17.9434L27.2529 27.2012L3.34668 27.2305ZM19.46 19.2324L28.7471 12.7578V26.4395L19.46 19.2324ZM20.5146 8.39258H10.085C9.88965 8.39258 9.71387 8.4707 9.55762 8.62695C9.40137 8.7832 9.32324 8.96875 9.32324 9.18359C9.32324 9.39844 9.40137 9.5791 9.55762 9.72559C9.71387 9.87207 9.88965 9.94531 10.085 9.94531H20.5146C20.71 9.94531 20.8857 9.87207 21.042 9.72559C21.1982 9.5791 21.2764 9.39844 21.2764 9.18359C21.2764 8.96875 21.1982 8.7832 21.042 8.62695C20.8857 8.4707 20.71 8.39258 20.5146 8.39258ZM20.5146 12.4062H10.085C9.88965 12.4062 9.71387 12.4795 9.55762 12.626C9.40137 12.7725 9.32324 12.9531 9.32324 13.168C9.32324 13.3828 9.40137 13.5635 9.55762 13.71C9.71387 13.8564 9.88965 13.9297 10.085 13.9297H20.5146C20.71 13.9297 20.8857 13.8564 21.042 13.71C21.1982 13.5635 21.2764 13.3828 21.2764 13.168C21.2764 12.9531 21.1982 12.7725 21.042 12.626C20.8857 12.4795 20.71 12.4062 20.5146 12.4062Z"/></symbol><symbol viewBox="0 0 15 12" id="mail-footer" xmlns="http://www.w3.org/2000/svg"><path d="M14.2207 4.22266C14.2663 4.17708 14.321 4.17025 14.3848 4.20215C14.4486 4.23405 14.4805 4.2819 14.4805 4.3457V9.9375C14.4805 10.3021 14.3529 10.612 14.0977 10.8672C13.8424 11.1224 13.5326 11.25 13.168 11.25H1.79297C1.42839 11.25 1.11849 11.1224 0.863281 10.8672C0.608073 10.612 0.480469 10.3021 0.480469 9.9375V4.3457C0.480469 4.2819 0.510091 4.23405 0.569336 4.20215C0.628581 4.17025 0.685547 4.17708 0.740234 4.22266C1.05013 4.45964 1.48307 4.7832 2.03906 5.19336C2.59505 5.60352 3.57031 6.31445 4.96484 7.32617C5.2474 7.53581 5.61654 7.80697 6.07227 8.13965C6.52799 8.47233 6.9974 8.63411 7.48047 8.625C7.97266 8.63411 8.44661 8.47005 8.90234 8.13281C9.35807 7.79557 9.72721 7.52669 10.0098 7.32617C11.4043 6.31445 12.3773 5.60352 12.9287 5.19336C13.4801 4.7832 13.9108 4.45964 14.2207 4.22266ZM7.48047 7.75C7.16146 7.75911 6.80371 7.61328 6.40723 7.3125C6.01074 7.01172 5.69857 6.7793 5.4707 6.61523C3.6569 5.30273 2.51758 4.47103 2.05273 4.12012C1.58789 3.76921 1.14583 3.42969 0.726562 3.10156C0.653646 3.03776 0.594401 2.96029 0.548828 2.86914C0.503255 2.778 0.480469 2.68229 0.480469 2.58203V2.0625C0.480469 1.69792 0.608073 1.38802 0.863281 1.13281C1.11849 0.877604 1.42839 0.75 1.79297 0.75H13.168C13.5326 0.75 13.8424 0.877604 14.0977 1.13281C14.3529 1.38802 14.4805 1.69792 14.4805 2.0625V2.58203C14.4805 2.68229 14.4577 2.778 14.4121 2.86914C14.3665 2.96029 14.3073 3.03776 14.2344 3.10156C13.8151 3.42969 13.373 3.76921 12.9082 4.12012C12.4434 4.47103 11.304 5.30273 9.49023 6.61523C9.26237 6.7793 8.9502 7.01172 8.55371 7.3125C8.15723 7.61328 7.79948 7.75911 7.48047 7.75Z"/></symbol><symbol viewBox="0 0 31 31" id="phane" xmlns="http://www.w3.org/2000/svg"><path d="M29.7183 24.2168L23.8296 18.3281C23.4976 17.9961 23.0826 17.8301 22.5845 17.8301C22.0865 17.8301 21.6617 17.9961 21.3101 18.3281L19.7574 19.8809C19.523 20.1152 19.3667 20.3936 19.2886 20.7158C19.2105 21.0381 19.2202 21.3457 19.3179 21.6387L18.732 22.2246C18.5367 22.4199 17.8677 22.3027 16.7251 21.873C15.5826 21.4434 14.2398 20.457 12.6968 18.9141C11.1538 17.3711 10.1675 16.0283 9.73783 14.8857C9.30814 13.7432 9.19095 13.0742 9.38626 12.8789L9.9722 12.293C10.0503 12.3125 10.1333 12.332 10.2212 12.3516C10.3091 12.3711 10.3921 12.3809 10.4702 12.3809C10.7046 12.3809 10.9292 12.3369 11.1441 12.249C11.3589 12.1611 11.5542 12.0293 11.73 11.8535L13.2827 10.3008C13.6148 9.94922 13.7808 9.52441 13.7808 9.02637C13.7808 8.52832 13.6148 8.11328 13.2827 7.78125L7.39408 1.89258C7.2183 1.7168 7.02298 1.58496 6.80814 1.49707C6.5933 1.40918 6.35892 1.36523 6.10501 1.36523C5.87064 1.36523 5.64603 1.40918 5.43119 1.49707C5.21634 1.58496 5.02103 1.7168 4.84525 1.89258L3.32181 3.41602C3.08744 3.65039 2.93119 3.92871 2.85306 4.25098C2.77494 4.57324 2.77494 4.89062 2.85306 5.20312C2.85306 5.20312 2.77005 5.28613 2.60404 5.45215C2.43802 5.61816 2.35501 5.70117 2.35501 5.70117C1.5347 6.61914 1.0513 7.7666 0.90482 9.14355C0.758335 10.5205 0.958531 12.0586 1.50541 13.7578C1.75931 14.5977 2.09134 15.4473 2.5015 16.3066C2.91166 17.1465 3.39017 17.9863 3.93705 18.8262C4.48392 19.666 5.08939 20.4961 5.75345 21.3164C6.41751 22.1367 7.13041 22.9375 7.89212 23.7188C8.67337 24.4805 9.47416 25.1934 10.2945 25.8574C11.1148 26.5215 11.9449 27.127 12.7847 27.6738C13.6245 28.2207 14.4644 28.6992 15.3042 29.1094C16.1636 29.5195 17.0132 29.8516 17.8531 30.1055C18.5171 30.3203 19.1617 30.4814 19.7867 30.5889C20.4117 30.6963 21.0074 30.75 21.5738 30.75C22.5113 30.75 23.3609 30.6084 24.1226 30.3252C24.8843 30.042 25.5386 29.627 26.0855 29.0801L26.4077 28.7578C26.5054 28.7773 26.5933 28.792 26.6714 28.8018C26.7495 28.8115 26.8277 28.8164 26.9058 28.8164C27.1597 28.8164 27.3941 28.7725 27.6089 28.6846C27.8238 28.5967 28.0191 28.4648 28.1949 28.2891L29.7183 26.7656C30.0699 26.4141 30.2456 25.9893 30.2456 25.4912C30.2456 24.9932 30.0699 24.5684 29.7183 24.2168ZM6.10501 3.15234L11.9937 9.04102L10.4702 10.5645L4.58158 4.67578L6.10501 3.15234ZM24.8257 27.791C24.1812 28.4355 23.3023 28.8115 22.189 28.9189C21.0757 29.0264 19.8062 28.8555 18.3804 28.4062C17.6187 28.1523 16.8472 27.8398 16.066 27.4688C15.2847 27.0781 14.5035 26.6338 13.7222 26.1357C12.941 25.6377 12.1695 25.0762 11.4077 24.4512C10.646 23.8262 9.90384 23.1523 9.18119 22.4297C8.45853 21.707 7.7847 20.9648 7.1597 20.2031C6.5347 19.4414 5.97318 18.6699 5.47513 17.8887C4.97709 17.1074 4.53275 16.3262 4.14212 15.5449C3.77103 14.7637 3.45853 13.9922 3.20462 13.2305C2.75541 11.8047 2.58451 10.5352 2.69193 9.42188C2.79935 8.30859 3.17533 7.42969 3.81986 6.78516L3.96634 6.60938L8.53666 11.1797L8.1265 11.5898C7.69681 12.0391 7.48197 12.5957 7.48197 13.2598C7.5015 13.9238 7.67728 14.6465 8.00931 15.4277C8.34134 16.209 8.81009 17.0195 9.41556 17.8594C10.021 18.6797 10.6851 19.4609 11.4077 20.2031C12.521 21.2969 13.7076 22.2246 14.9673 22.9863C16.2271 23.748 17.355 24.1289 18.3511 24.1289C18.6636 24.1289 18.9615 24.0752 19.2447 23.9678C19.5279 23.8604 19.7867 23.6992 20.021 23.4844L20.4312 23.0742L25.0015 27.6445L24.8257 27.791ZM26.9351 27.0293L21.0464 21.1406L22.5699 19.6172L28.4585 25.5059C28.4585 25.5059 28.2046 25.7598 27.6968 26.2676C27.189 26.7754 26.9351 27.0293 26.9351 27.0293ZM23.6538 7.95703C22.7945 7.11719 21.813 6.46777 20.7095 6.00879C19.606 5.5498 18.4488 5.32031 17.2378 5.32031C16.9839 5.32031 16.7691 5.4082 16.5933 5.58398C16.4175 5.75977 16.3296 5.96484 16.3296 6.19922C16.3296 6.45312 16.4175 6.66797 16.5933 6.84375C16.7691 7.01953 16.9839 7.10742 17.2378 7.10742C18.2144 7.10742 19.1421 7.29297 20.021 7.66406C20.8999 8.03516 21.6812 8.5625 22.3648 9.24609C23.0484 9.92969 23.5757 10.7109 23.9468 11.5898C24.3179 12.4688 24.5035 13.3965 24.5035 14.373C24.5035 14.627 24.5913 14.8418 24.7671 15.0176C24.9429 15.1934 25.1577 15.2812 25.4117 15.2812C25.646 15.2812 25.8511 15.1934 26.0269 15.0176C26.2027 14.8418 26.2906 14.627 26.2906 14.373C26.2906 13.1621 26.0611 12.0049 25.6021 10.9014C25.1431 9.79785 24.4937 8.81641 23.6538 7.95703ZM26.8765 4.73438C26.232 4.08984 25.5386 3.52344 24.7964 3.03516C24.0542 2.52734 23.273 2.10742 22.4527 1.77539C21.6324 1.44336 20.7827 1.18945 19.9038 1.01367C19.0445 0.837891 18.1558 0.75 17.2378 0.75C16.9839 0.75 16.7691 0.837891 16.5933 1.01367C16.4175 1.18945 16.3296 1.4043 16.3296 1.6582C16.3296 1.89258 16.4175 2.09766 16.5933 2.27344C16.7691 2.44922 16.9839 2.53711 17.2378 2.53711C18.8199 2.53711 20.3286 2.83496 21.7642 3.43066C23.1997 4.02637 24.4742 4.89062 25.5874 6.02344C26.7202 7.13672 27.5845 8.41113 28.1802 9.84668C28.7759 11.2822 29.0738 12.791 29.0738 14.373C29.0738 14.627 29.1617 14.8418 29.3374 15.0176C29.5132 15.1934 29.7183 15.2812 29.9527 15.2812C30.2066 15.2812 30.4214 15.1934 30.5972 15.0176C30.773 14.8418 30.8609 14.627 30.8609 14.373C30.8609 13.4551 30.773 12.5664 30.5972 11.707C30.4214 10.8281 30.1675 9.97852 29.8355 9.1582C29.5035 8.33789 29.0835 7.55664 28.5757 6.81445C28.0874 6.07227 27.521 5.37891 26.8765 4.73438ZM20.4019 11.209C19.9722 10.7598 19.4888 10.4277 18.9517 10.2129C18.4146 9.99805 17.8433 9.89062 17.2378 9.89062C16.9839 9.89062 16.7691 9.97852 16.5933 10.1543C16.4175 10.3301 16.3296 10.5352 16.3296 10.7695C16.3296 11.0234 16.4175 11.2383 16.5933 11.4141C16.7691 11.5898 16.9839 11.6777 17.2378 11.6777C17.6089 11.6777 17.9556 11.7461 18.2779 11.8828C18.6001 12.0195 18.8882 12.2148 19.1421 12.4688C19.396 12.7227 19.5913 13.0107 19.7281 13.333C19.8648 13.6553 19.9331 14.002 19.9331 14.373C19.9331 14.627 20.021 14.8418 20.1968 15.0176C20.3726 15.1934 20.5874 15.2812 20.8413 15.2812C21.0757 15.2812 21.2808 15.1934 21.4566 15.0176C21.6324 14.8418 21.7202 14.627 21.7202 14.373C21.7202 13.7676 21.6128 13.1963 21.398 12.6592C21.1831 12.1221 20.8511 11.6387 20.4019 11.209Z"/></symbol><symbol viewBox="0 0 12 15" id="pi" xmlns="http://www.w3.org/2000/svg"><path d="M6.18848 0.927734C6.83561 0.927734 7.4554 1.03255 8.04785 1.24219C8.6403 1.46094 9.16211 1.76628 9.61328 2.1582C10.0645 2.55013 10.4268 3.01953 10.7002 3.56641C10.9736 4.1224 11.1104 4.73763 11.1104 5.41211C11.1104 6.05013 11.0283 6.68815 10.8643 7.32617C10.7002 7.97331 10.445 8.55208 10.0986 9.0625C9.75228 9.57292 9.31478 9.99219 8.78613 10.3203C8.25749 10.6393 7.62858 10.7988 6.89941 10.7988C6.55306 10.7988 6.19303 10.7145 5.81934 10.5459C5.44564 10.3773 5.17676 10.1335 5.0127 9.81445C4.69369 11.0449 4.45898 11.904 4.30859 12.3916C4.1582 12.8792 3.74121 13.5924 3.05762 14.5312C2.9847 14.5586 2.94596 14.5723 2.94141 14.5723C2.93685 14.5723 2.91178 14.5449 2.86621 14.4902C2.83887 14.235 2.81152 13.9798 2.78418 13.7246C2.75684 13.4694 2.74316 13.2142 2.74316 12.959C2.74316 12.5397 2.78418 12.0794 2.86621 11.5781C2.94824 11.0859 3.05078 10.5846 3.17383 10.0742C3.29688 9.5638 3.4222 9.06706 3.5498 8.58398C3.68652 8.0918 3.80046 7.64062 3.8916 7.23047C3.79134 7.02083 3.72298 6.79525 3.68652 6.55371C3.65007 6.31217 3.63184 6.07747 3.63184 5.84961C3.63184 5.30273 3.764 4.87435 4.02832 4.56445C4.29264 4.25456 4.58659 4.06543 4.91016 3.99707C5.23372 3.92871 5.52767 3.99023 5.79199 4.18164C6.06543 4.37305 6.20215 4.69206 6.20215 5.13867C6.20215 5.67643 6.08138 6.19824 5.83984 6.7041C5.59831 7.20996 5.47754 7.72266 5.47754 8.24219C5.47754 8.59766 5.60286 8.88704 5.85352 9.11035C6.10417 9.33366 6.39811 9.44531 6.73535 9.44531C7.20931 9.44531 7.60579 9.29492 7.9248 8.99414C8.2347 8.69336 8.48535 8.32878 8.67676 7.90039C8.86816 7.47201 9.00488 7.01628 9.08691 6.5332C9.16895 6.05013 9.20996 5.6263 9.20996 5.26172C9.20996 4.77865 9.12793 4.35026 8.96387 3.97656C8.7998 3.60286 8.57422 3.28841 8.28711 3.0332C8 2.778 7.65592 2.58659 7.25488 2.45898C6.86296 2.33138 6.43457 2.26758 5.96973 2.26758C5.42285 2.26758 4.91699 2.35872 4.45215 2.54102C3.9873 2.72331 3.58171 2.98079 3.23535 3.31348C2.889 3.64616 2.62012 4.04492 2.42871 4.50977C2.22819 4.9655 2.12793 5.47135 2.12793 6.02734C2.12793 6.55599 2.23503 6.96387 2.44922 7.25098C2.66341 7.53809 2.77051 7.74544 2.77051 7.87305C2.77051 7.98242 2.73405 8.17155 2.66113 8.44043C2.58822 8.70931 2.4834 8.84375 2.34668 8.84375C2.01855 8.84375 1.64714 8.58171 1.23242 8.05762C0.817708 7.53353 0.610352 6.78841 0.610352 5.82227C0.610352 5.06575 0.769857 4.38672 1.08887 3.78516C1.40788 3.17448 1.82715 2.6595 2.34668 2.24023C2.86621 1.82096 3.46322 1.4974 4.1377 1.26953C4.80306 1.04167 5.48665 0.927734 6.18848 0.927734Z"/></symbol><symbol viewBox="0 0 24 25" id="search" xmlns="http://www.w3.org/2000/svg"><path d="M23.7891 23.2812L17.9531 17.4453C18.7344 16.5391 19.3477 15.5156 19.793 14.375C20.2383 13.2344 20.4609 12.0234 20.4609 10.7422C20.4609 9.32031 20.1953 7.99219 19.6641 6.75781C19.1328 5.50781 18.4023 4.42188 17.4727 3.5C16.543 2.57812 15.4531 1.84375 14.2031 1.29688C12.9688 0.765625 11.6484 0.5 10.2422 0.5C8.82031 0.5 7.49219 0.765625 6.25781 1.29688C5.00781 1.84375 3.92188 2.57812 3 3.5C2.07812 4.42188 1.34375 5.50781 0.796875 6.75781C0.265625 7.99219 0 9.32031 0 10.7422C0 12.1484 0.265625 13.4688 0.796875 14.7031C1.34375 15.9531 2.07812 17.0391 3 17.9609C3.92188 18.8828 5.00781 19.6172 6.25781 20.1641C7.49219 20.6953 8.82031 20.9609 10.2422 20.9609C11.5234 20.9609 12.7344 20.7383 13.875 20.293C15.0156 19.8477 16.0391 19.2344 16.9453 18.4531L22.7812 24.2891C22.8438 24.3516 22.9219 24.4023 23.0156 24.4414C23.1094 24.4805 23.1953 24.5 23.2734 24.5C23.3672 24.5 23.4609 24.4844 23.5547 24.4531C23.6484 24.4219 23.7266 24.3672 23.7891 24.2891C23.9297 24.1484 24 23.9805 24 23.7852C24 23.5898 23.9297 23.4219 23.7891 23.2812ZM1.42969 10.7422C1.42969 9.52344 1.66406 8.38281 2.13281 7.32031C2.58594 6.24219 3.21094 5.30469 4.00781 4.50781C4.80469 3.71094 5.74219 3.08594 6.82031 2.63281C7.88281 2.16406 9.02344 1.92969 10.2422 1.92969C11.4453 1.92969 12.5859 2.16406 13.6641 2.63281C14.7266 3.08594 15.6562 3.71094 16.4531 4.50781C17.25 5.30469 17.875 6.24219 18.3281 7.32031C18.7969 8.38281 19.0312 9.52344 19.0312 10.7422C19.0312 11.9453 18.7969 13.0859 18.3281 14.1641C17.875 15.2266 17.25 16.1562 16.4531 16.9531C15.6562 17.75 14.7266 18.3828 13.6641 18.8516C12.5859 19.3047 11.4453 19.5312 10.2422 19.5312C9.02344 19.5312 7.88281 19.3047 6.82031 18.8516C5.74219 18.3828 4.80469 17.75 4.00781 16.9531C3.21094 16.1562 2.58594 15.2266 2.13281 14.1641C1.66406 13.0859 1.42969 11.9453 1.42969 10.7422Z"/></symbol><symbol viewBox="0 0 15 12" id="twitter" xmlns="http://www.w3.org/2000/svg"><path d="M13.4248 2.89258C13.4248 2.95638 13.4248 3.02018 13.4248 3.08398C13.4248 3.14779 13.4248 3.21159 13.4248 3.27539C13.4248 4.22331 13.2471 5.18034 12.8916 6.14648C12.5361 7.11263 12.0143 7.98763 11.3262 8.77148C10.638 9.55534 9.78353 10.1979 8.7627 10.6992C7.75098 11.1914 6.58431 11.4375 5.2627 11.4375C4.86165 11.4375 4.46517 11.4102 4.07324 11.3555C3.68132 11.2917 3.30078 11.2051 2.93164 11.0957C2.5625 10.9863 2.20475 10.8542 1.8584 10.6992C1.51204 10.5352 1.17936 10.3529 0.860352 10.1523C0.978841 10.1615 1.09505 10.1683 1.20898 10.1729C1.32292 10.1774 1.43913 10.1797 1.55762 10.1797C2.22298 10.1797 2.85872 10.0726 3.46484 9.8584C4.07096 9.64421 4.62012 9.3457 5.1123 8.96289C4.4834 8.94466 3.92513 8.7487 3.4375 8.375C2.94987 8.0013 2.61491 7.5319 2.43262 6.9668C2.52376 6.97591 2.61263 6.98503 2.69922 6.99414C2.78581 7.00326 2.87923 7.00781 2.97949 7.00781C3.1071 7.00781 3.2347 7.00098 3.3623 6.9873C3.48991 6.97363 3.61296 6.94857 3.73145 6.91211C3.0752 6.77539 2.52832 6.44727 2.09082 5.92773C1.65332 5.4082 1.43457 4.79753 1.43457 4.0957V4.06836C1.62598 4.16862 1.83105 4.25065 2.0498 4.31445C2.26855 4.37826 2.49186 4.41471 2.71973 4.42383C2.33691 4.16862 2.0293 3.83138 1.79688 3.41211C1.56445 2.99284 1.44824 2.53255 1.44824 2.03125C1.44824 1.76693 1.48242 1.514 1.55078 1.27246C1.61914 1.03092 1.71257 0.805339 1.83105 0.595703C2.18652 1.02409 2.58301 1.41602 3.02051 1.77148C3.45801 2.12695 3.92741 2.43457 4.42871 2.69434C4.93001 2.9541 5.46322 3.16146 6.02832 3.31641C6.58431 3.47135 7.15853 3.5625 7.75098 3.58984C7.73275 3.48047 7.7168 3.37109 7.70312 3.26172C7.68945 3.15234 7.68262 3.04297 7.68262 2.93359C7.68262 2.54167 7.75553 2.16797 7.90137 1.8125C8.05631 1.46615 8.26367 1.16309 8.52344 0.90332C8.7832 0.643555 9.08626 0.440755 9.43262 0.294922C9.77897 0.139974 10.1527 0.0625 10.5537 0.0625C10.9639 0.0625 11.349 0.144531 11.709 0.308594C12.069 0.472656 12.3812 0.691406 12.6455 0.964844C12.9736 0.910156 13.2904 0.823567 13.5957 0.705078C13.901 0.586589 14.1904 0.445312 14.4639 0.28125C14.3636 0.609375 14.2041 0.910156 13.9854 1.18359C13.7666 1.45703 13.5068 1.68034 13.2061 1.85352C13.4977 1.82617 13.7826 1.77376 14.0605 1.69629C14.3385 1.61882 14.6051 1.52539 14.8604 1.41602C14.6689 1.69857 14.4502 1.96517 14.2041 2.21582C13.958 2.46647 13.6982 2.69206 13.4248 2.89258Z"/></symbol></svg>