<svg width="15.000000" height="15.000000" viewBox="0 0 15 15" fill="none" xmlns="http://www.w3.org/2000/svg" xmlns:xlink="http://www.w3.org/1999/xlink">
	<desc>
			Created with Pixso.
	</desc>
	<defs/>
	<path id="Vector" d="M13.67 3.03C14 3.59 14.25 4.17 14.41 4.78C14.57 5.38 14.65 6.02 14.65 6.68C14.65 7.35 14.57 7.99 14.41 8.59C14.25 9.2 14 9.78 13.67 10.34C13.32 10.91 12.93 11.42 12.5 11.86C12.06 12.29 11.55 12.68 10.98 13.03C10.42 13.36 9.83 13.61 9.23 13.77C8.62 13.93 7.99 14.01 7.32 14.01C6.66 14.01 6.02 13.93 5.42 13.77C4.81 13.61 4.23 13.36 3.67 13.03C3.09 12.68 2.59 12.29 2.15 11.86C1.71 11.42 1.32 10.91 0.98 10.34C0.66 9.78 0.41 9.2 0.25 8.59C0.08 7.99 0 7.35 0 6.68C0 6.02 0.08 5.38 0.25 4.78C0.41 4.17 0.66 3.59 0.98 3.03C1.31 2.46 1.7 1.95 2.14 1.51C2.59 1.08 3.09 0.68 3.67 0.34C4.23 0.01 4.81 -0.24 5.42 -0.4C6.02 -0.56 6.66 -0.64 7.32 -0.64C7.99 -0.64 8.62 -0.56 9.23 -0.4C9.83 -0.24 10.42 0.01 10.98 0.34C11.55 0.68 12.06 1.08 12.5 1.51C12.93 1.95 13.32 2.46 13.67 3.03ZM5.59 8.42L3.85 6.68C3.73 6.55 3.56 6.48 3.35 6.48C3.15 6.48 2.96 6.55 2.79 6.68C2.66 6.82 2.59 6.99 2.59 7.19C2.59 7.4 2.66 7.59 2.79 7.76L5.06 10.01C5.19 10.15 5.36 10.22 5.56 10.22C5.76 10.22 5.92 10.15 6.06 10.01L11.79 4.48C11.93 4.35 12 4.18 12 3.97C12 3.77 11.93 3.59 11.79 3.42C11.66 3.28 11.48 3.22 11.28 3.22C11.07 3.22 10.89 3.28 10.73 3.42L5.59 8.42Z" fill="#C5CE38" fill-opacity="1.000000" fill-rule="nonzero"/>
</svg>
