<?xml version="1.0" encoding="utf-8"?><svg viewBox="0 0 84 84" xmlns="http://www.w3.org/2000/svg" xmlns:xlink="http://www.w3.org/1999/xlink"><style>:root>svg{display:none}:root>svg:target{display:block}</style><svg fill="none" viewBox="0 0 23 25" id="basket" xmlns="http://www.w3.org/2000/svg"><path d="M6.349 16.297H19.59c.75 0 1.39-.266 1.922-.797a2.62 2.62 0 0 0 .797-1.922V7.93l-.012-.012c-.008-.008-.012-.02-.012-.035v-.047c0-.016-.004-.024-.011-.024-.008 0-.012-.007-.012-.023v-.023l-.012-.012-.012-.012V7.72l-.023-.024v-.023l-.023-.024v-.023c-.016 0-.024-.004-.024-.012v-.011l-.012-.012-.011-.012-.012-.012-.012-.011-.012-.012-.011-.012-.012-.011-.012-.012-.011-.012a29.072 29.072 0 0 0-.012-.012l-.012-.011a14.553 14.553 0 0 0-.011-.012h-.024c-.016 0-.023-.004-.023-.012s-.008-.011-.024-.011v-.012c0-.008-.008-.012-.023-.012h-.024c0-.016-.004-.023-.011-.023H21.84c0-.016-.004-.024-.012-.024h-.082v-.012c0-.007-.008-.011-.023-.011L4.966 5.047V2.563c-.016 0-.023-.004-.023-.012V2.48c0-.007-.008-.011-.024-.011v-.047l-.023-.024v-.023l-.012-.012-.012-.011V2.34c0-.008-.008-.012-.023-.012v-.023l-.012-.012-.012-.012-.011-.011-.012-.012-.012-.012-.012-.012v-.011c0-.008-.007-.012-.023-.012l-.012-.012-.011-.011-.012-.012-.012-.012h-.012c-.007 0-.011-.008-.011-.023-.016 0-.028-.004-.035-.012l-.012-.012c-.016-.015-.031-.023-.047-.023s-.023-.008-.023-.024L.935.547a.693.693 0 0 0-.516.012.698.698 0 0 0-.375.34.693.693 0 0 0 .012.515c.07.172.191.297.363.375L3.63 3.15v14.578c0 .687.23 1.289.691 1.804.461.516 1.02.813 1.676.89-.11.204-.199.423-.27.657-.07.235-.105.477-.105.727a2.6 2.6 0 0 0 .785 1.91 2.6 2.6 0 0 0 1.91.785c.735 0 1.364-.262 1.887-.785a2.6 2.6 0 0 0 .785-1.91c0-.235-.03-.47-.093-.703a3.023 3.023 0 0 0-.258-.657h5.976c-.109.203-.199.422-.27.657-.07.234-.105.468-.105.703 0 .75.266 1.386.797 1.91a2.611 2.611 0 0 0 1.899.785c.734 0 1.367-.262 1.898-.785a2.58 2.58 0 0 0 .797-1.91c0-.735-.266-1.364-.797-1.887a2.611 2.611 0 0 0-1.898-.785H6.349c-.375 0-.7-.137-.973-.41a1.356 1.356 0 0 1-.41-.996v-1.805c.203.125.422.219.656.281.235.063.477.094.727.094Zm3.328 5.508c0 .375-.133.695-.399.96a1.31 1.31 0 0 1-.96.4 1.31 1.31 0 0 1-.961-.4 1.31 1.31 0 0 1-.399-.96c0-.375.133-.696.399-.961a1.31 1.31 0 0 1 .96-.399c.376 0 .696.133.961.399.266.265.399.586.399.96Zm10.617 0c0 .375-.133.695-.398.96a1.31 1.31 0 0 1-.961.4 1.31 1.31 0 0 1-.961-.4 1.31 1.31 0 0 1-.399-.96c0-.375.133-.696.399-.961a1.31 1.31 0 0 1 .96-.399c.376 0 .696.133.962.399.265.265.398.586.398.96Zm-.703-6.844H6.349c-.375 0-.7-.133-.973-.399a1.318 1.318 0 0 1-.41-.984V6.383l16.008 2.203v4.992c0 .39-.137.719-.41.985a1.349 1.349 0 0 1-.973.398Z" fill="#1F1E17"/></svg><svg fill="none" viewBox="0 0 15 15" id="check" xmlns="http://www.w3.org/2000/svg"><path d="M13.67 3.03c.33.56.58 1.14.74 1.75.16.6.24 1.24.24 1.9 0 .67-.08 1.31-.24 1.91-.16.61-.41 1.19-.74 1.75-.35.57-.74 1.08-1.17 1.52-.44.43-.95.82-1.52 1.17-.56.33-1.15.58-1.75.74-.61.16-1.24.24-1.91.24-.66 0-1.3-.08-1.9-.24-.61-.16-1.19-.41-1.75-.74-.58-.35-1.08-.74-1.52-1.17-.44-.44-.83-.95-1.17-1.52C.66 9.78.41 9.2.25 8.59.08 7.99 0 7.35 0 6.68c0-.66.08-1.3.25-1.9.16-.61.41-1.19.73-1.75.33-.57.72-1.08 1.16-1.52.45-.43.95-.83 1.53-1.17.56-.33 1.14-.58 1.75-.74.6-.16 1.24-.24 1.9-.24.67 0 1.3.08 1.91.24.6.16 1.19.41 1.75.74.57.34 1.08.74 1.52 1.17.43.44.82.95 1.17 1.52ZM5.59 8.42 3.85 6.68a.655.655 0 0 0-.5-.2c-.2 0-.39.07-.56.2-.13.14-.2.31-.2.51 0 .21.07.4.2.57l2.27 2.25c.13.14.3.21.5.21s.36-.07.5-.21l5.73-5.53c.14-.13.21-.3.21-.51 0-.2-.07-.38-.21-.55a.67.67 0 0 0-.51-.2c-.21 0-.39.06-.55.2l-5.14 5Z" fill="#C5CE38"/></svg><svg fill="none" viewBox="0 0 9 6" id="error" xmlns="http://www.w3.org/2000/svg"><path d="M4.134 5.207.713 1.787a.407.407 0 0 1-.123-.3c0-.117.04-.217.123-.299l.405-.395a.402.402 0 0 1 .294-.124c.114 0 .216.041.304.124L4.433 3.5 7.151.793a.432.432 0 0 1 .303-.124c.114 0 .213.041.295.124l.404.395a.407.407 0 0 1 .123.3.407.407 0 0 1-.123.298l-3.42 3.421a.407.407 0 0 1-.3.124.407.407 0 0 1-.299-.124Z" fill="#878680"/></svg><svg fill="none" viewBox="0 0 15 15" id="facebook" xmlns="http://www.w3.org/2000/svg"><path d="M14.423 7.75c0 .848-.146 1.65-.438 2.406a6.768 6.768 0 0 1-1.21 2.024 7.084 7.084 0 0 1-1.811 1.49 6.774 6.774 0 0 1-2.256.78V9.704h1.572l.301-1.955H8.708V6.479c0-.274.077-.52.232-.739.155-.219.442-.328.862-.328h.861V3.744l-.478-.061a8.172 8.172 0 0 0-1.04-.062c-.774 0-1.396.226-1.866.677-.47.451-.704 1.105-.704 1.962v1.49H4.853v1.955h1.722v4.744a6.773 6.773 0 0 1-2.256-.78 7.083 7.083 0 0 1-1.811-1.49 6.768 6.768 0 0 1-1.21-2.023A6.63 6.63 0 0 1 .86 7.75c0-.939.178-1.818.534-2.639.355-.82.84-1.538 1.456-2.153a6.885 6.885 0 0 1 2.153-1.456c.82-.356 1.7-.533 2.639-.533.938 0 1.818.177 2.638.533.82.355 1.538.84 2.154 1.456a6.885 6.885 0 0 1 1.456 2.153c.355.82.533 1.7.533 2.639Z" fill="#1F1E17"/></svg><svg fill="none" viewBox="0 0 79 80" id="food-1" xmlns="http://www.w3.org/2000/svg"><path d="M21 76.67h-2.379c-1.64 0-3.076-.533-4.306-1.6-1.231-1.066-1.956-2.392-2.174-3.978v-.082L8.613 46.318a1.367 1.367 0 0 0-.45-.82 1.256 1.256 0 0 0-.862-.328c-.328 0-.63.123-.903.37-.273.245-.41.56-.41.942v.165L9.516 71.42c.382 2.242 1.421 4.115 3.117 5.62 1.695 1.503 3.691 2.255 5.988 2.255H21c.383 0 .697-.123.943-.37.246-.245.37-.56.37-.943 0-.382-.123-.697-.37-.943-.246-.246-.56-.37-.943-.37Zm15.75-13.125c-.383 0-.697.123-.943.37-.247.245-.37.56-.37.942v5.25c0 1.094.383 2.024 1.149 2.79.766.765 1.695 1.148 2.789 1.148s2.023-.383 2.79-1.148c.765-.766 1.148-1.696 1.148-2.79v-15.75c0-1.093-.383-2.023-1.149-2.789-.766-.765-1.695-1.148-2.789-1.148s-2.023.383-2.79 1.148c-.765.766-1.148 1.696-1.148 2.79v5.25c0 .382.123.697.37.943.246.246.56.369.943.369.383 0 .697-.123.943-.37.247-.245.37-.56.37-.943v-5.25c0-.382.122-.697.369-.943.246-.246.56-.37.943-.37.383 0 .697.124.943.37.247.246.37.56.37.943v15.75c0 .383-.123.698-.37.944-.246.246-.56.369-.943.369-.383 0-.697-.123-.943-.37-.247-.245-.37-.56-.37-.943v-5.25c0-.382-.122-.697-.369-.943-.246-.246-.56-.37-.943-.37ZM18.375 50.42c-1.094 0-2.023.383-2.79 1.148-.765.766-1.148 1.696-1.148 2.79v15.75c0 1.093.383 2.023 1.149 2.788.766.766 1.695 1.149 2.789 1.149s2.023-.383 2.79-1.148c.765-.766 1.148-1.696 1.148-2.79v-15.75c0-1.093-.383-2.023-1.149-2.789-.766-.765-1.695-1.148-2.789-1.148Zm1.313 19.687c0 .383-.123.698-.37.944-.246.246-.56.369-.943.369-.383 0-.697-.123-.943-.37-.246-.245-.37-.56-.37-.943v-15.75c0-.382.123-.697.37-.943.246-.246.56-.37.943-.37.383 0 .697.124.943.37s.37.56.37.943v15.75Zm5.25-15.75v15.75c0 1.094.382 2.024 1.148 2.79.766.765 1.695 1.148 2.789 1.148s2.023-.383 2.79-1.148c.765-.766 1.148-1.696 1.148-2.79v-15.75c0-1.093-.383-2.023-1.149-2.789-.766-.765-1.695-1.148-2.789-1.148s-2.023.383-2.79 1.148c-.765.766-1.148 1.696-1.148 2.79Zm5.25 0v15.75c0 .383-.123.698-.37.944-.246.246-.56.369-.943.369-.383 0-.697-.123-.943-.37-.246-.245-.37-.56-.37-.943v-15.75c0-.382.123-.697.37-.943.246-.246.56-.37.943-.37.383 0 .697.124.943.37s.37.56.37.943Zm27.562-6.562c.383 0 .697-.123.943-.37.247-.245.37-.56.37-.943 0-.382-.123-.697-.37-.943-.246-.246-.56-.37-.943-.37h-9.188c-.382 0-.697.124-.943.37s-.369.56-.369.943c0 .383.123.698.37.944.245.246.56.369.943.369h9.187ZM30.187 45.17h-15.75c-.382 0-.697.123-.943.37-.246.245-.369.56-.369.942 0 .383.123.698.37.944.245.246.56.369.943.369h15.75c.382 0 .697-.123.943-.37.246-.245.369-.56.369-.943 0-.382-.123-.697-.37-.943-.245-.246-.56-.37-.942-.37Zm43.231 9.27a6.68 6.68 0 0 0 1.969-2.297c.492-.93.738-1.942.738-3.036 0-.382-.123-.697-.37-.943-.245-.246-.56-.37-.942-.37h-2.215l.738-5.25h1.477c1.093 0 2.023-.382 2.789-1.147.765-.766 1.148-1.696 1.148-2.79 0-1.093-.383-2.023-1.148-2.789-.766-.765-1.696-1.148-2.79-1.148H66.61l1.149-2.543c.437.328.916.588 1.435.78.52.19 1.08.286 1.682.286 1.203 0 2.27-.355 3.2-1.066.929-.711 1.558-1.64 1.886-2.79a5.544 5.544 0 0 0 .164-1.312v-.246c.766-.437 1.394-1.066 1.887-1.886.492-.82.738-1.696.738-2.625 0-.766-.15-1.49-.451-2.174a5.116 5.116 0 0 0-1.272-1.764c.11-.219.233-.478.37-.78.136-.3.232-.614.287-.943h.082c.054-.328.109-.67.164-1.025.054-.355.082-.697.082-1.025 0-1.094-.205-2.12-.615-3.077a7.9 7.9 0 0 0-1.682-2.501 1.029 1.029 0 0 0-.41-.247 1.548 1.548 0 0 0-.493-.082c-.382 0-.697.123-.943.37-.246.246-.369.56-.369.943 0 .164.027.328.082.492a.79.79 0 0 0 .328.41 6.282 6.282 0 0 1 1.067 1.682c.273.629.41 1.299.41 2.01a5.12 5.12 0 0 1-.944 2.994 4.699 4.699 0 0 1-2.502 1.846v.082c-.218.054-.41.19-.574.41a1.2 1.2 0 0 0-.246.738c0 .164-.014.328-.04.492a3.242 3.242 0 0 1-.124.492v-.082a3.77 3.77 0 0 1-1.394 2.133c-.711.547-1.504.82-2.38.82-.93 0-1.736-.273-2.42-.82a3.837 3.837 0 0 1-1.353-2.05v-.083a1.51 1.51 0 0 1-.123-.45 3.8 3.8 0 0 1 .492-2.502 4.682 4.682 0 0 1 1.354-1.477h.082c.164-.11.314-.26.451-.452.137-.191.205-.423.205-.697 0-.328-.137-.629-.41-.902-.273-.274-.574-.41-.902-.41a.913.913 0 0 0-.657.246c-.984.547-1.777 1.326-2.379 2.338a6.382 6.382 0 0 0-.902 3.322V22.119v-.082a.814.814 0 0 1-.369.082H59.309c-.164 0-.328-.027-.493-.082h.082c-.601-.164-1.107-.424-1.517-.78a4.66 4.66 0 0 1-1.026-1.27v-.083a9.74 9.74 0 0 1-.287-.82 3.129 3.129 0 0 1-.123-.902V18.1c0-.329-.123-.63-.369-.903a1.212 1.212 0 0 0-.943-.41c-.328 0-.63.123-.903.37-.273.245-.41.56-.41.943v.082c0 .328.028.629.082.902l.164.82-.656.164a2.701 2.701 0 0 1-.656.082c-.164 0-.328-.013-.492-.04a3.247 3.247 0 0 1-.492-.124 3.643 3.643 0 0 1-1.149-.492 4.228 4.228 0 0 1-.902-.82v-.082a4.089 4.089 0 0 1-.657-1.108 3.393 3.393 0 0 1-.246-1.271c0-.93.287-1.75.862-2.461.574-.711 1.271-1.176 2.092-1.395h.082c.218-.054.423-.177.615-.369a.95.95 0 0 0 .287-.697l.082-.246v-.246a5.497 5.497 0 0 1 1.395-2.38 4.872 4.872 0 0 1 2.378-1.312c0 .164-.013.37-.04.616a6.316 6.316 0 0 0-.042.697c0 .71.096 1.408.288 2.092.19.683.45 1.298.779 1.845.11.22.26.383.45.493.192.109.397.164.616.164.383 0 .697-.123.944-.37.246-.246.369-.56.369-.943 0-.11-.014-.219-.041-.328a1.601 1.601 0 0 0-.123-.328 4.825 4.825 0 0 1-.493-1.23 5.732 5.732 0 0 1 .328-3.692 5.352 5.352 0 0 1 1.928-2.133 5.11 5.11 0 0 1 2.83-.82c1.422 0 2.653.506 3.692 1.518 1.039 1.011 1.558 2.255 1.558 3.732a.673.673 0 0 1-.04.205.91.91 0 0 0-.042.287V8.83v.082c0 .383.137.697.41.943.274.247.575.37.903.37.328 0 .615-.11.861-.329.246-.218.397-.492.451-.82 0-.11.014-.219.041-.328.028-.11.041-.219.041-.328 0-2.188-.779-4.047-2.338-5.578C67.881 1.31 66.035.545 63.902.545c-1.422 0-2.72.342-3.896 1.025-1.176.684-2.12 1.573-2.83 2.666-1.75.055-3.295.63-4.635 1.723-1.34 1.094-2.228 2.46-2.666 4.101v.083c-1.258.492-2.256 1.271-2.994 2.337-.738 1.067-1.108 2.284-1.108 3.65 0 .602.069 1.163.205 1.683.137.519.315 1.025.534 1.517v-.082c-.11.164-.233.342-.37.533-.136.192-.232.37-.287.534l-.082.081-1.066-2.378a7.48 7.48 0 0 0-1.805-2.42 6.506 6.506 0 0 0-2.625-1.436l-.082-.082a1.51 1.51 0 0 0-.45-.123 3.792 3.792 0 0 0-.534-.041l-.082-.082-.41-6.973c0-.328-.137-.615-.41-.861-.274-.246-.575-.37-.903-.37-.383 0-.697.124-.943.37s-.37.56-.37.943v.082l.41 6.891a6.051 6.051 0 0 0-.655.205c-.22.082-.438.15-.657.205h.082L33.47 8.092a1.158 1.158 0 0 0-.451-.697 1.25 1.25 0 0 0-.78-.288c-.383 0-.697.123-.943.37-.246.246-.37.56-.37.943V8.83v-.082l.083.164-.164-.082a1.561 1.561 0 0 0-.41-.287 1.092 1.092 0 0 0-.493-.123c-.164 0-.328.027-.492.082a.79.79 0 0 0-.41.328v-.082l-3.937 3.774c-.11.163-.206.314-.288.45a1.025 1.025 0 0 0-.123.534c0 .219.055.424.165.615.109.191.273.342.492.451l5.824 3.856-.164.492c-.055.164-.11.355-.164.574a8.471 8.471 0 0 0-.164 1.64v.657c-.985.164-1.914.451-2.79.861-.874.41-1.695.916-2.46 1.518l-.903-.902a1.56 1.56 0 0 0-.41-.288 1.091 1.091 0 0 0-.492-.123c-.328 0-.629.137-.902.41-.274.274-.41.575-.41.903 0 .164.04.328.123.492.082.164.177.3.287.41l.082.082c-1.094.274-2.037.766-2.83 1.477a6.466 6.466 0 0 0-1.764 2.625h-.082l-.082.41-3.2-1.066c-.054-.055-.109-.082-.163-.082h-.246c-.383 0-.698.123-.944.369s-.369.56-.369.943c0 .274.082.52.246.738.164.22.383.383.656.492l26.414 9.106c.22.11.41.274.575.492.164.219.246.492.246.82 0 .329-.123.63-.37.903-.245.273-.56.41-.943.41a.676.676 0 0 1-.205-.041.675.675 0 0 0-.205-.041L4.84 30.65a1.493 1.493 0 0 1-.655-.492 1.2 1.2 0 0 1-.247-.738c0-.274.069-.506.206-.697.136-.192.314-.342.533-.451.11-.055.205-.096.287-.124a.91.91 0 0 1 .287-.04h.205c.082 0 .15.027.205.081l3.363 1.149a.66.66 0 0 0 .288.082h.205c.382 0 .697-.123.943-.37.246-.245.37-.56.37-.943a1.2 1.2 0 0 0-.247-.738 1.492 1.492 0 0 0-.656-.492l-3.364-1.148a2.027 2.027 0 0 0-.656-.206 6.005 6.005 0 0 0-.738-.04c-1.04 0-1.955.382-2.748 1.148-.793.765-1.19 1.695-1.19 2.789 0 .875.26 1.64.78 2.297a4.238 4.238 0 0 0 1.928 1.394l4.43 1.559h-4.43c-1.094 0-2.024.383-2.79 1.148C.383 36.584 0 37.514 0 38.608c0 1.093.383 2.023 1.148 2.789.766.765 1.696 1.148 2.79 1.148H31.09l7.629 2.625c.164.055.355.11.574.164.219.055.465.082.738.082 1.094 0 2.024-.383 2.79-1.148.765-.766 1.148-1.696 1.148-2.79 0-.875-.26-1.654-.78-2.337-.52-.684-1.162-1.163-1.927-1.436l-1.23-.41h34.78c.383 0 .698.123.944.37.246.245.369.56.369.942 0 .383-.123.698-.37.944-.245.246-.56.369-.942.369H47.823c-.328 0-.629.123-.902.37-.274.245-.41.56-.41.942 0 .383.136.698.41.944.273.246.574.369.902.369h22.887l-.82 5.66a6.604 6.604 0 0 0-1.067.574c-.328.219-.629.438-.902.656v-.656c0-.437-.082-.861-.246-1.271a4.089 4.089 0 0 0-.657-1.108 3.1 3.1 0 0 0-1.189-.86 3.948 3.948 0 0 0-1.517-.288c-.547 0-1.053.096-1.518.287a3.1 3.1 0 0 0-1.19.861 4.089 4.089 0 0 0-.656 1.108c-.164.41-.246.834-.246 1.271v.493l.492 3.855a1.437 1.437 0 0 0-.45-.082h-.37c-1.258 0-2.447.205-3.568.615-1.122.41-2.12.97-2.995 1.682v-.985c0-1.093-.382-2.023-1.148-2.789-.766-.765-1.695-1.148-2.789-1.148s-2.023.383-2.79 1.148c-.765.766-1.148 1.696-1.148 2.79v15.75c0 1.093.383 2.023 1.149 2.788.766.766 1.695 1.149 2.789 1.149.492 0 .97-.096 1.435-.287a4.68 4.68 0 0 0 1.272-.78c.328.712.711 1.368 1.148 1.97.438.6.903 1.175 1.395 1.722H26.25c-.383 0-.697.123-.943.37-.246.245-.37.56-.37.942 0 .383.123.698.37.944.246.246.56.369.943.369H60.375c.71 0 1.408-.068 2.092-.205a8.822 8.822 0 0 0 1.927-.615l-.082.082c.602.218 1.231.396 1.887.533.657.137 1.34.205 2.051.205 1.203 0 2.365-.383 3.486-1.148 1.121-.766 2.174-1.86 3.158-3.282a.714.714 0 0 0 .206-.369c.027-.137.04-.26.04-.369 0-.383-.122-.697-.368-.943-.247-.246-.561-.37-.944-.37-.219 0-.424.042-.615.124a.905.905 0 0 0-.451.45c-.711 1.04-1.463 1.846-2.256 2.42-.793.575-1.545.862-2.256.862a7.584 7.584 0 0 1-3.445-.82l.082.082a2.26 2.26 0 0 0-.287-.123.907.907 0 0 0-.287-.041.907.907 0 0 0-.288.04 2.26 2.26 0 0 0-.287.124 9.143 9.143 0 0 1-1.6.533 7.584 7.584 0 0 1-1.763.205h-.082c-1.969-.055-3.76-1.654-5.373-4.799-1.613-3.144-2.42-5.92-2.42-8.326 0-2.188.766-4.047 2.297-5.578 1.531-1.532 3.39-2.297 5.578-2.297.219 0 .424.014.615.04.192.028.397.042.615.042h-.082v.082c.11.71.424 1.299.944 1.764.52.465 1.135.697 1.846.697.71 0 1.326-.233 1.845-.697.52-.465.834-1.053.944-1.764v-.082c.164 0 .341-.014.533-.041.191-.027.396-.041.615-.041 2.188 0 4.047.765 5.578 2.297 1.531 1.531 2.297 3.39 2.297 5.578a19.618 19.618 0 0 1-.37 2.871c-.19.93-.45 1.805-.778 2.625v-.082a.674.674 0 0 1-.041.205.91.91 0 0 0-.042.287c0 .383.124.697.37.944.246.246.56.369.943.369.274 0 .533-.082.78-.246.245-.165.396-.383.45-.657.383-.93.684-1.927.903-2.994a21.63 21.63 0 0 0 .41-3.322c0-1.969-.492-3.76-1.477-5.373-.984-1.613-2.27-2.857-3.855-3.732ZM3.938 39.92c-.383 0-.698-.123-.944-.37-.246-.245-.369-.56-.369-.943 0-.382.123-.697.37-.943.245-.246.56-.37.942-.37h12.06l7.546 2.626H3.938ZM73.5 23.268c0-.11.014-.22.041-.329.027-.109.068-.218.123-.328v-.082c.328-.164.629-.341.902-.533.274-.191.547-.396.82-.615.22.219.397.492.534.82.137.328.205.684.205 1.067 0 .546-.178 1.052-.533 1.517-.356.465-.78.78-1.272.944h-.082c-.273.109-.492.273-.656.492a1.2 1.2 0 0 0-.246.738v.164c0 .055.027.11.082.164 0 .11.014.219.041.328.027.11.041.246.041.41 0 .11-.014.22-.041.329-.027.109-.041.218-.041.328V28.6c-.164.601-.479 1.08-.943 1.435a2.562 2.562 0 0 1-1.6.533h-.37a.814.814 0 0 1-.368-.082h.082a2.158 2.158 0 0 1-.78-.328 2.48 2.48 0 0 1-.615-.574l.903-2.05c.164-.055.3-.11.41-.165l.328-.164a7.324 7.324 0 0 0 1.887-1.682 6.094 6.094 0 0 0 1.148-2.255Zm-6.809 4.757-2.953 6.645h-8.285l.328-1.148.041-.124a.676.676 0 0 0 .041-.205l-.04-.082a.363.363 0 0 1-.042-.164l-2.05-10.336c.163-.054.341-.109.533-.164.191-.054.369-.136.533-.246l-.082.082c.383.438.793.82 1.23 1.149.438.328.903.601 1.395.82h.082l1.559 7.957c.054.273.19.506.41.697.218.192.465.287.738.287h.164c.273 0 .52-.068.738-.205a.87.87 0 0 0 .41-.533h.082l2.461-5.25c.383.274.793.479 1.23.615a4.65 4.65 0 0 0 1.395.205h.082ZM61.36 24.58c.11.164.206.315.288.451.081.137.177.26.287.37l-1.149 2.378-.574-3.035c.219 0 .424-.014.615-.04.192-.028.397-.07.615-.124h-.082Zm-10.336-1.969.493 2.38a3.242 3.242 0 0 1-.493.122 2.993 2.993 0 0 1-.492.041 1.35 1.35 0 0 1-.328-.04 1.345 1.345 0 0 0-.328-.042 2.614 2.614 0 0 1-1.353-.943 2.562 2.562 0 0 1-.534-1.6v-.369c0-.137.028-.26.082-.369v.082c0-.11.028-.205.082-.287a.399.399 0 0 0 .082-.205c.328.273.684.506 1.067.697.383.192.793.342 1.23.451h.082c.055 0 .123.014.205.041.082.028.15.041.205.041Zm-1.804 5.004c.218.055.437.096.656.123.219.028.465.041.738.041.219 0 .465-.027.739-.082.273-.054.52-.11.738-.164h-.082l1.148 5.66-.41 1.477H52.5l-3.281-7.055Zm.41 7.055h-2.625c.055 0 .11-.014.164-.041a.364.364 0 0 1 .164-.041l1.805-1.066.492 1.148Zm-9.023-17.473-1.395.82c-.164.11-.314.26-.451.452a1.167 1.167 0 0 0-.205.697c0 .328.136.629.41.902.273.274.574.41.902.41.164 0 .301-.027.41-.082l.328-.164h-.082l1.805-.984 1.723 3.527-1.559.903c-.164.11-.314.26-.451.45a1.168 1.168 0 0 0-.205.698c0 .328.137.63.41.902.273.274.574.41.902.41.164 0 .301-.013.41-.04.11-.028.22-.069.329-.123h-.082l1.394-.82 2.79 5.988-1.97 1.148a1.13 1.13 0 0 0-.492.451c-.109.192-.164.424-.164.698 0 .273.082.519.246.738.164.219.383.383.657.492h-4.594l-1.477-2.05 3.364-1.97c.164-.109.314-.26.45-.45.138-.192.206-.425.206-.698 0-.328-.137-.629-.41-.902-.274-.274-.575-.41-.903-.41-.109 0-.232.013-.369.04a.384.384 0 0 0-.287.206v-.082l-3.527 2.05-2.215-3.199 2.625-1.558c.164-.11.314-.26.451-.452.137-.191.205-.424.205-.697 0-.328-.137-.629-.41-.902-.273-.274-.574-.41-.902-.41-.11 0-.22.013-.328.04-.11.028-.22.069-.329.124l-2.87 1.64-.821-1.148a4.217 4.217 0 0 1-.615-1.272 5.058 5.058 0 0 1-.205-1.435c0-1.313.465-2.434 1.394-3.364.93-.93 2.024-1.394 3.282-1.394.273 0 .533.027.779.082.246.055.478.11.697.164.219.055.424.137.615.246.192.11.37.219.533.328Zm-12.47-3.855 1.723-1.723 2.625 2.707.493 1.477-.205.205-.206.205-4.43-2.871ZM20.59 30.158c.328-.71.82-1.312 1.476-1.805a3.6 3.6 0 0 1 2.215-.738h.082l-.328 1.067a4.487 4.487 0 0 1-.943 1.353c-.41.41-.889.697-1.436.861l-1.148-.328.082-.41Zm4.265 1.887c.329-.328.63-.697.903-1.108.273-.41.492-.86.656-1.353h.082l.164-.574c.11.11.233.191.37.246.136.055.286.082.45.082.383 0 .698-.123.944-.37.246-.245.369-.56.369-.943 0-.164-.027-.314-.082-.45a1.093 1.093 0 0 0-.246-.37l-1.149-1.148a10.367 10.367 0 0 1 1.928-1.108c.684-.3 1.381-.506 2.092-.615h.082a4.6 4.6 0 0 1 .287.492c.082.164.178.328.287.492l6.48 9.352h-5.988l-7.629-2.625Zm26.332 38.062c0 .383-.122.698-.369.944-.246.246-.56.369-.943.369-.383 0-.697-.123-.943-.37-.247-.245-.37-.56-.37-.943v-15.75c0-.382.123-.697.37-.943.246-.246.56-.37.943-.37.383 0 .697.124.943.37.247.246.37.56.37.943v4.102a9.786 9.786 0 0 0-.985 2.42 10.631 10.631 0 0 0-.328 2.666c.055 1.203.205 2.365.451 3.486.246 1.121.56 2.201.944 3.24v-.164h-.083Zm21-19.687h1.067a3.989 3.989 0 0 1-1.395 1.887c-.656.492-1.421.738-2.296.738h-1.067a3.989 3.989 0 0 1 1.395-1.887c.656-.492 1.421-.738 2.296-.738Zm-8.039 5.086-.82-6.563v-.164a.95.95 0 0 1 .287-.697.95.95 0 0 1 .697-.287.95.95 0 0 1 .698.287.95.95 0 0 1 .287.697v.164l-.82 6.563c0 .054-.014.096-.041.123-.028.027-.069.04-.124.04-.054 0-.095-.013-.123-.04-.027-.027-.04-.069-.04-.123Zm5.907 3.035a.52.52 0 0 0-.246-.123 1.346 1.346 0 0 0-.328-.041c-.383 0-.698.137-.944.41-.246.273-.369.574-.369.903 0 .273.068.505.205.697.137.191.287.341.451.45.438.22.793.493 1.067.821.273.328.492.711.656 1.149.11.273.273.492.492.656a1.2 1.2 0 0 0 .738.246c.383 0 .698-.123.944-.37.246-.245.369-.56.369-.942v-.288a.278.278 0 0 0-.082-.205 6.555 6.555 0 0 0-1.149-1.927 6.694 6.694 0 0 0-1.722-1.436h-.082Z" fill="#fff"/></svg><svg fill="none" viewBox="0 0 84 84" id="food-2" xmlns="http://www.w3.org/2000/svg"><path d="M82.77 81.295h-2.707a5.599 5.599 0 0 0-1.108-2.502 5.648 5.648 0 0 0-2.092-1.682 5.53 5.53 0 0 0-1.763-.492 7.019 7.019 0 0 0-1.518 0 5.653 5.653 0 0 0-1.066-2.05 5.018 5.018 0 0 0-1.805-1.395c-.656-.328-1.299-.492-1.928-.492s-1.162.027-1.6.082V58.736l4.102-4.101h3.528c2.242 0 4.156-.793 5.742-2.38 1.586-1.585 2.379-3.5 2.379-5.741V43.15c0-.492-.192-.93-.575-1.312-.382-.383-.82-.574-1.312-.574h-3.363c-2.243 0-4.157.806-5.743 2.42-1.585 1.613-2.379 3.54-2.379 5.783v3.445l-2.378 2.379v-14.11l2.46-2.46c1.587-1.586 2.38-3.5 2.38-5.742 0-2.243-.793-4.157-2.38-5.743l-2.378-2.379a2.187 2.187 0 0 0-.575-.41 1.627 1.627 0 0 0-.738-.164c-.273 0-.52.055-.738.164a2.19 2.19 0 0 0-.574.41l-2.38 2.38c-1.585 1.585-2.378 3.5-2.378 5.741 0 2.243.793 4.157 2.379 5.743l2.46 2.46v21.493l-2.378-2.38V55.21c0-3.008-1.067-5.578-3.2-7.711-2.132-2.133-4.703-3.2-7.71-3.2h-4.922c-.547 0-.998.179-1.354.534-.355.355-.533.807-.533 1.353v4.922c0 3.008 1.066 5.578 3.2 7.711 2.132 2.133 4.702 3.2 7.71 3.2h5.086l4.102 4.101v4.512c-.93-.875-2.12-1.71-3.569-2.502-1.449-.793-3.13-1.244-5.045-1.354-.054 0-.246-.013-.574-.04a6.543 6.543 0 0 0-1.23.04c-.383 0-.684.137-.903.41a1.1 1.1 0 0 0-.246.903c0 .328.137.602.41.82.274.219.575.328.903.328.437-.054.779-.068 1.025-.04.246.027.397.04.451.04 2.461.164 4.444.903 5.948 2.215 1.504 1.313 2.529 2.352 3.076 3.117.273.383.615.643 1.025.78.41.136.834.123 1.272-.041.328-.11.697-.178 1.107-.205.41-.028.834.068 1.271.287.438.218.793.505 1.067.861.273.356.465.78.574 1.272.164.546.465.97.903 1.271.437.3.93.396 1.476.287.273-.055.602-.082.984-.082.383 0 .766.11 1.149.328.383.164.725.424 1.025.78.301.355.534.751.697 1.189H39.047a2.9 2.9 0 0 1 .369-.984c.191-.329.424-.575.697-.739a1.6 1.6 0 0 1 .862-.369c.3-.027.56-.014.779.041a2.041 2.041 0 0 0 1.477-.41c.437-.328.71-.738.82-1.23.11-.766.314-1.477.615-2.133.3-.657.643-1.258 1.025-1.805a11.207 11.207 0 0 1 1.641-1.764 9.88 9.88 0 0 1 2.05-1.353c.329-.164.534-.41.616-.739a1.438 1.438 0 0 0-.041-.902 1.244 1.244 0 0 0-.738-.656c-.328-.11-.63-.082-.903.082a15.186 15.186 0 0 0-2.543 1.682 11.918 11.918 0 0 0-2.05 2.173 10.303 10.303 0 0 0-1.23 2.133 17.43 17.43 0 0 0-.821 2.38h-.37a.814.814 0 0 0-.368.081 5.987 5.987 0 0 0-1.067-2.174 4.703 4.703 0 0 0-1.886-1.435c-.766-.383-1.504-.56-2.215-.533-.711.027-1.285.123-1.723.287-.766-1.04-2.133-2.338-4.102-3.897-1.968-1.558-4.43-2.338-7.382-2.338V58.9l4.183-4.101h3.445c2.243 0 4.157-.793 5.743-2.38 1.586-1.585 2.379-3.5 2.379-5.741v-3.363c0-.493-.178-.93-.534-1.313-.355-.383-.806-.574-1.353-.574H33.14c-2.243 0-4.17.806-5.784 2.42-1.613 1.613-2.42 3.54-2.42 5.783v3.445l-2.378 2.38V36.751l4.183-4.102h3.445c2.243 0 4.157-.793 5.743-2.378 1.586-1.586 2.379-3.5 2.379-5.743v-3.363c0-.492-.178-.93-.534-1.313-.355-.382-.806-.574-1.353-.574H33.14c-2.243 0-4.17.807-5.784 2.42-1.613 1.613-2.42 3.541-2.42 5.783v3.446l-2.378 2.379V16.9l2.46-2.46c1.587-1.586 2.38-3.5 2.38-5.743 0-2.242-.794-4.156-2.38-5.742L22.724.576a2.653 2.653 0 0 0-.657-.369 2.09 2.09 0 0 0-.738-.123c-.219 0-.451.041-.697.123a1.545 1.545 0 0 0-.615.37l-2.38 2.378c-1.585 1.586-2.378 3.5-2.378 5.742 0 2.243.793 4.157 2.379 5.743l2.46 2.46v23.79l-2.378-2.38v-5.085c0-.82-.082-1.627-.246-2.42a9.533 9.533 0 0 0-.82-2.338 1.313 1.313 0 0 0-.698-.574c-.3-.11-.615-.11-.943 0-.274.164-.479.41-.616.738-.136.328-.123.629.041.902.274.602.479 1.203.616 1.805.136.601.205 1.23.205 1.887v2.625L10.5 31.01a1.412 1.412 0 0 0-.902-.328c-.328 0-.63.109-.903.328a1.412 1.412 0 0 0-.328.902c0 .328.11.602.328.82l4.84 4.84H10.91c-2.297 0-4.28-.82-5.947-2.46-1.668-1.641-2.502-3.637-2.502-5.989v-4.348h4.348c.765 0 1.517.096 2.255.288a6.976 6.976 0 0 1 2.01.86c.328.165.656.206.985.124.328-.082.574-.26.738-.533.164-.328.205-.657.123-.985a1.147 1.147 0 0 0-.533-.738 11.172 11.172 0 0 0-5.578-1.477H1.887c-.547 0-.998.178-1.354.534C.178 23.203 0 23.654 0 24.2v4.922c0 3.008 1.066 5.578 3.2 7.711 2.132 2.133 4.702 3.2 7.71 3.2h5.086l4.102 4.1V65.3l-1.559-1.559v-4.347c0-2.625-.93-4.881-2.789-6.768-1.86-1.887-4.129-2.83-6.809-2.83H4.758c-.492 0-.93.191-1.313.574-.382.383-.574.82-.574 1.313v4.183c0 2.625.943 4.881 2.83 6.768 1.887 1.886 4.17 2.83 6.85 2.83h4.265l1.805 1.805c-1.258.273-2.584.793-3.978 1.558-1.395.766-2.612 1.887-3.65 3.364a10.302 10.302 0 0 0-1.231 2.132 17.432 17.432 0 0 0-.82 2.38c-.383 0-.835.054-1.354.163-.52.11-1.026.328-1.518.657a4.173 4.173 0 0 0-1.558 1.6 5.15 5.15 0 0 0-.657 2.173H1.23a1.18 1.18 0 0 0-.86.37 1.18 1.18 0 0 0-.37.86c0 .383.123.684.37.903.245.219.532.328.86.328h81.54c.328 0 .615-.11.86-.328.247-.219.37-.52.37-.903a1.18 1.18 0 0 0-.37-.86 1.18 1.18 0 0 0-.86-.37ZM72.022 49.467c0-1.586.561-2.94 1.682-4.06 1.121-1.122 2.447-1.682 3.979-1.682h2.789v2.789c0 1.53-.56 2.857-1.682 3.978-1.121 1.121-2.447 1.682-3.978 1.682h-1.067l2.543-2.461c.219-.273.328-.574.328-.903 0-.328-.11-.601-.328-.82-.273-.273-.574-.41-.902-.41-.328 0-.63.137-.903.41l-2.46 2.461v-.984Zm-12.14 8.367-4.84-4.84c-.219-.219-.506-.328-.861-.328-.356 0-.643.11-.862.328a1.412 1.412 0 0 0-.328.903c0 .328.11.601.328.82l4.84 4.84h-2.625c-2.351 0-4.347-.82-5.988-2.461-1.64-1.64-2.461-3.637-2.461-5.989V46.76h4.348c2.297 0 4.279.82 5.947 2.46 1.668 1.641 2.502 3.637 2.502 5.989v2.625Zm6.07-24.856a1.18 1.18 0 0 0-.861.37 1.18 1.18 0 0 0-.37.861v3.527l-.738-.738c-1.093-1.094-1.64-2.433-1.64-4.02 0-1.585.547-2.925 1.64-4.019l1.97-1.969 1.968 1.969c1.094 1.094 1.64 2.434 1.64 4.02 0 1.586-.546 2.925-1.64 4.019l-.738.738V34.21a1.18 1.18 0 0 0-.37-.861 1.18 1.18 0 0 0-.86-.37ZM27.398 49.631c0-1.586.561-2.94 1.682-4.06 1.121-1.122 2.475-1.682 4.06-1.682h2.708v2.789c0 1.531-.547 2.857-1.641 3.978-1.094 1.121-2.434 1.682-4.02 1.682h-.984l2.461-2.461c.219-.274.328-.574.328-.902 0-.328-.11-.602-.328-.82-.273-.274-.574-.41-.902-.41-.328 0-.602.136-.82.41l-2.544 2.46v-.984Zm0-22.149c0-1.585.561-2.939 1.682-4.06 1.121-1.121 2.475-1.682 4.06-1.682h2.708v2.79c0 1.53-.547 2.857-1.641 3.978-1.094 1.12-2.434 1.681-4.02 1.681h-.984l2.461-2.46c.219-.274.328-.575.328-.903 0-.328-.11-.601-.328-.82-.273-.274-.574-.41-.902-.41-.328 0-.602.136-.82.41l-2.544 2.46v-.984ZM16.078 61.28l-3.855-3.855a1.05 1.05 0 0 0-.862-.41 1.05 1.05 0 0 0-.861.41c-.219.219-.328.506-.328.861 0 .356.11.643.328.862l3.855 3.855h-1.804c-1.969 0-3.664-.697-5.086-2.092-1.422-1.394-2.133-3.076-2.133-5.045v-3.61h3.61c1.968 0 3.65.698 5.044 2.093 1.395 1.394 2.092 3.076 2.092 5.045v1.886Zm4.02-51.351v3.527l-.657-.738c-1.148-1.094-1.722-2.42-1.722-3.979 0-1.558.574-2.912 1.722-4.06l1.887-1.887 1.969 1.887c1.094 1.148 1.64 2.502 1.64 4.06 0 1.559-.546 2.885-1.64 3.979l-.738.738V9.928c0-.328-.11-.616-.329-.862-.218-.246-.52-.369-.902-.369a1.18 1.18 0 0 0-.861.37 1.18 1.18 0 0 0-.37.86Zm16.406 71.367H6.316a2.9 2.9 0 0 1 .37-.984c.19-.329.423-.575.697-.739a1.6 1.6 0 0 1 .861-.369c.3-.027.56-.014.78.041a2.041 2.041 0 0 0 1.476-.41c.438-.328.71-.738.82-1.23a7.71 7.71 0 0 1 .615-2.133c.301-.657.643-1.258 1.026-1.805 1.75-2.46 3.883-3.814 6.398-4.06 2.516-.247 3.801-.37 3.856-.37 2.46.164 4.443.903 5.947 2.215 1.504 1.313 2.53 2.352 3.076 3.117.274.383.63.643 1.067.78.437.136.847.123 1.23-.041.328-.11.697-.178 1.108-.205.41-.028.834.068 1.271.287a3.225 3.225 0 0 1 1.723 2.215 4.873 4.873 0 0 0-1.436 1.64 6.288 6.288 0 0 0-.697 2.05Z" fill="#fff"/></svg><svg fill="none" viewBox="0 0 84 72" id="food-3" xmlns="http://www.w3.org/2000/svg"><path d="M14.93 49.455c-1.86 0-3.46.67-4.8 2.01-1.339 1.34-2.009 2.94-2.009 4.799 0 1.859.67 3.445 2.01 4.758 1.34 1.312 2.94 1.968 4.799 1.968 1.86 0 3.445-.656 4.758-1.968 1.312-1.313 1.968-2.899 1.968-4.758 0-1.86-.656-3.46-1.968-4.8-1.313-1.339-2.899-2.009-4.758-2.009Zm0 10.828c-1.149 0-2.12-.396-2.912-1.19-.793-.792-1.19-1.736-1.19-2.83 0-1.148.397-2.118 1.19-2.911.792-.793 1.763-1.19 2.912-1.19 1.093 0 2.037.397 2.83 1.19.793.793 1.19 1.763 1.19 2.912 0 1.093-.397 2.037-1.19 2.83-.793.793-1.737 1.19-2.83 1.19Zm57.832-27.07 3.691 2.46c.11.11.233.179.37.206.136.027.259.04.368.04h5.415c.382 0 .71-.136.984-.41.273-.273.41-.6.41-.984v-5.414c0-.328-.137-.629-.41-.902a1.342 1.342 0 0 0-.984-.41h-2.297l-3.692-2.461a.715.715 0 0 0-.369-.205 1.904 1.904 0 0 0-.37-.041h-5.413V8.85h1.312c.383 0 .711-.137.985-.41.273-.274.41-.602.41-.985V2.041c0-.383-.137-.697-.41-.943a1.42 1.42 0 0 0-.985-.37H42c-.164 0-.328.028-.492.083a2.072 2.072 0 0 0-.492.246L35.602 6.47a1.804 1.804 0 0 0-.329.738c-.054.273-.027.52.082.738.11.274.274.492.493.657a1.2 1.2 0 0 0 .738.246h31.172v6.726h-4.102c-.383 0-.697.137-.943.41a1.42 1.42 0 0 0-.37.985v6.726c0 .383-.136.711-.41.985-.273.273-.601.41-.984.41h-8.12c-.384 0-.698.137-.944.41-.246.273-.37.574-.37.902v5.414c0 .383.124.711.37.985.246.273.56.41.943.41h2.625L43.887 41.58a1.703 1.703 0 0 0-.37.533 1.544 1.544 0 0 0-.123.615v4.02h-8.203v-2.707h1.395c.383 0 .697-.137.943-.41.246-.274.37-.574.37-.903v-4.101H42c.164 0 .328-.027.492-.082.164-.055.328-.164.492-.328l2.707-2.707-1.968-1.887-2.297 2.297h-3.528v-3.527l12.223-12.141 1.723 1.723 1.968-1.887-5.414-5.414-1.968 1.887 1.804 1.722L37.898 28.62v-2.215c0-.328-.123-.629-.369-.902a1.212 1.212 0 0 0-.943-.41h-4.102v-1.395c0-.328-.123-.629-.369-.902a1.212 1.212 0 0 0-.943-.41h-1.395v-6.809c0-1.094-.396-2.037-1.19-2.83-.792-.793-1.735-1.19-2.83-1.19h-4.1v2.708h4.1c.384 0 .698.123.944.369s.37.56.37.943v6.809h-1.313c-.383 0-.711.136-.985.41-.273.273-.41.574-.41.902V27.8H14.93c-1.149 0-2.12.396-2.912 1.19-.793.792-1.19 1.736-1.19 2.83v11.484c-.328.11-.67.232-1.025.369-.356.137-.698.287-1.026.451l-1.066-1.066a1.468 1.468 0 0 0-.943-.329c-.356 0-.67.11-.944.329l-4.101 4.101a1.468 1.468 0 0 0-.328.944c0 .355.109.67.328.943l1.066 1.066c-.164.329-.3.67-.41 1.026-.11.355-.246.697-.41 1.025h-.574c-.383 0-.711.137-.985.41-.273.274-.41.602-.41.985v5.414c0 .383.137.697.41.943.274.246.602.37.985.37h.574c.11.382.232.738.369 1.066.137.328.314.656.533.984L1.723 63.4a1.527 1.527 0 0 0-.328.985c0 .383.109.71.328.984l4.101 4.02c.274.273.588.41.944.41.355 0 .67-.137.943-.41l1.066-1.067c.328.164.67.315 1.026.451.355.137.697.26 1.025.37v.656c0 .383.137.697.41.943.274.246.602.37.985.37h5.414c.383 0 .697-.124.943-.37s.37-.56.37-.943v-.656c.382-.11.738-.233 1.066-.37.328-.136.656-.287.984-.45l1.066 1.066c.274.273.602.41.985.41s.683-.137.902-.41l4.102-4.02c.273-.273.41-.601.41-.984s-.137-.711-.41-.985l-1.067-1.066c.164-.328.315-.656.451-.984.137-.328.26-.684.37-1.067h.656c.383 0 .697-.123.943-.369s.37-.56.37-.943v-1.395h2.706v1.395c0 .383.137.697.41.943.274.246.602.37.985.37h10.828c.383 0 .711-.124.984-.37.274-.246.41-.56.41-.943v-1.395h4.594c.164.711.383 1.408.657 2.092.273.684.601 1.326.984 1.928l-.492.492c-.11.11-.192.246-.246.41a1.549 1.549 0 0 0-.082.492c0 .219.027.41.082.575.054.163.136.3.246.41l4.101 4.101c.274.219.602.328.985.328s.683-.11.902-.328l.492-.492c.602.383 1.244.71 1.928.984.683.274 1.38.52 2.092.739v.492c0 .383.123.697.369.943s.56.37.943.37h5.414c.383 0 .711-.124.985-.37.273-.246.41-.56.41-.943v-.492a27.032 27.032 0 0 0 2.092-.739 11.625 11.625 0 0 0 1.927-.984l.41.492c.165.11.329.192.493.246.164.055.328.082.492.082.164 0 .328-.027.492-.082.164-.054.328-.136.492-.246l4.02-4.101c.273-.274.41-.602.41-.985s-.137-.683-.41-.902l-.41-.41c.383-.656.71-1.326.984-2.01.274-.684.492-1.38.656-2.092h.493c.382 0 .71-.123.984-.369.273-.246.41-.56.41-.943V50.85c0-.383-.137-.711-.41-.985a1.342 1.342 0 0 0-.984-.41h-.493a12.806 12.806 0 0 0-.656-2.05 16.518 16.518 0 0 0-.984-1.97l.41-.41c.11-.164.205-.328.287-.492.082-.164.123-.328.123-.492 0-.164-.041-.328-.123-.492a4.585 4.585 0 0 0-.287-.492l-4.02-4.02a1.343 1.343 0 0 0-.984-.41c-.383 0-.711.137-.985.41l-.41.41a16.52 16.52 0 0 0-1.968-.984 12.816 12.816 0 0 0-2.051-.656v-.492c0-.383-.137-.712-.41-.985a1.342 1.342 0 0 0-.985-.41h-1.312v-2.707h5.004ZM42.574 3.436h27.89v2.707H39.868l2.707-2.707ZM79.16 30.26c.11.11.233.177.37.205.136.027.26.04.368.04h1.395v2.708h-3.691l-3.692-2.461a.715.715 0 0 0-.369-.205 1.897 1.897 0 0 0-.37-.041h-6.234l2.707-2.707h5.825l3.691 2.46Zm-24.937-2.461h6.726c1.149 0 2.12-.397 2.912-1.19.793-.793 1.19-1.763 1.19-2.912v-5.414h2.707v7.63l-4.676 4.593h-8.86v-2.707ZM43.395 49.455v2.707H35.19v-2.707h8.203Zm-10.91-17.637v-4.02h2.706v13.536h-5.414v-8.121h1.395c.383 0 .697-.137.943-.41a1.42 1.42 0 0 0 .37-.985Zm-5.415-6.726h2.707v5.414H27.07v-5.414Zm-12.14 5.414h4.02v5.414h-5.415v-4.102c0-.328.137-.629.41-.902.274-.273.602-.41.985-.41Zm12.14 27.07h-.328c-.328 0-.615.096-.861.287a1.198 1.198 0 0 0-.451.78 8.928 8.928 0 0 1-.492 1.722 6.419 6.419 0 0 1-.82 1.477 1.288 1.288 0 0 0-.165.902c.055.328.192.602.41.82l.82.82-2.132 2.134-.82-.82a1.47 1.47 0 0 0-.82-.41c-.329-.056-.63 0-.903.163a8.485 8.485 0 0 1-1.559.82 19.55 19.55 0 0 1-1.64.575 1.198 1.198 0 0 0-.78.45 1.363 1.363 0 0 0-.287.862v.246h-2.707v-.246c0-.328-.095-.615-.287-.861a1.598 1.598 0 0 0-.78-.533 8.322 8.322 0 0 1-1.599-.492 12.712 12.712 0 0 1-1.6-.82c-.273-.165-.56-.22-.86-.165-.302.055-.561.191-.78.41l-.82.82-2.215-2.132.902-.903a1.23 1.23 0 0 0 .37-.779c.027-.3-.042-.588-.206-.861a8.48 8.48 0 0 1-.82-1.559 9.352 9.352 0 0 1-.492-1.64 1.198 1.198 0 0 0-.452-.78 1.363 1.363 0 0 0-.86-.287h-.329V54.87h.328c.328 0 .615-.096.861-.287.247-.191.397-.451.452-.78.164-.546.355-1.093.574-1.64.219-.547.465-1.066.738-1.559.164-.273.233-.56.205-.86a1.23 1.23 0 0 0-.369-.78l-.902-.82 2.215-2.215.82.902c.219.219.478.342.78.37.3.027.587-.042.86-.206a8.484 8.484 0 0 1 1.56-.82 9.36 9.36 0 0 1 1.64-.492c.328-.055.588-.205.779-.452.192-.246.287-.533.287-.86v-.329h2.707v.328c0 .328.096.615.287.861.192.247.451.397.78.452a9.36 9.36 0 0 1 1.64.492 8.485 8.485 0 0 1 1.559.82c.273.164.56.233.861.205.3-.027.56-.15.78-.369l.902-.902 2.133 2.215-.82.82a1.444 1.444 0 0 0-.41.78c-.056.3 0 .587.163.86a12.7 12.7 0 0 1 .82 1.6c.22.52.383 1.053.493 1.6.11.328.287.588.533.779.246.191.533.287.861.287h.246v2.707Zm2.707-2.707v-1.312c0-.383-.123-.711-.369-.985a1.212 1.212 0 0 0-.943-.41h-.656c-.11-.328-.233-.656-.37-.984a15.81 15.81 0 0 0-.45-.985l1.066-1.148c.273-.273.41-.588.41-.943 0-.356-.137-.67-.41-.944l-4.102-4.101c-.219-.22-.52-.329-.902-.329-.383 0-.711.11-.985.329L21 44.205a5.224 5.224 0 0 0-1.025-.533c-.356-.137-.698-.26-1.026-.37v-.574c0-.382-.123-.71-.369-.984a1.213 1.213 0 0 0-.943-.41h-4.102v-2.707h6.809c.383 0 .697-.137.943-.41.246-.274.37-.574.37-.902v-6.81h2.706v1.313c0 .383.137.711.41.985.274.273.602.41.985.41h1.312v9.515c0 .329.137.63.41.903.274.273.602.41.985.41h4.02v10.828h-2.708Zm5.414 2.707V54.87h8.203v2.707h-8.203Zm33.633-17.39c.93.164 1.819.423 2.666.779.848.355 1.654.806 2.42 1.353.274.164.574.233.903.205a1.27 1.27 0 0 0 .82-.369l.246-.246 2.133 2.133-.246.246a1.27 1.27 0 0 0-.37.82c-.027.328.041.63.206.903.546.765.998 1.572 1.353 2.42.356.847.615 1.736.78 2.666.054.328.204.588.45.779.247.191.534.287.862.287h.246v2.707h-.246c-.328 0-.615.11-.861.328a1.367 1.367 0 0 0-.452.82 20.19 20.19 0 0 1-.82 2.667 10.967 10.967 0 0 1-1.312 2.42c-.165.273-.233.56-.206.86.028.302.15.589.37.862l.246.164-2.133 2.215-.246-.246a1.27 1.27 0 0 0-.82-.37 1.474 1.474 0 0 0-.903.206c-.766.492-1.572.916-2.42 1.271-.847.356-1.736.616-2.666.78a1.198 1.198 0 0 0-.78.45 1.363 1.363 0 0 0-.286.862v.246H65.05v-.246c0-.328-.11-.615-.328-.861a1.367 1.367 0 0 0-.82-.451 12.736 12.736 0 0 1-2.585-.78 19.576 19.576 0 0 1-2.502-1.271c-.273-.219-.56-.3-.86-.246-.302.054-.562.191-.78.41l-.246.246-2.133-2.215.164-.246c.273-.219.424-.478.451-.78.028-.3-.068-.587-.287-.86a19.582 19.582 0 0 1-1.272-2.502 12.739 12.739 0 0 1-.779-2.584 1.367 1.367 0 0 0-.451-.82 1.256 1.256 0 0 0-.861-.329h-.246v-2.707h.246c.328 0 .615-.096.861-.287.246-.191.397-.451.451-.78.164-.929.424-1.818.78-2.665.355-.848.779-1.655 1.271-2.42.164-.274.232-.575.205-.903a1.27 1.27 0 0 0-.37-.82l-.245-.246 2.215-2.133.164.246a1.6 1.6 0 0 0 .861.37c.3.027.588-.042.861-.206a10.958 10.958 0 0 1 2.42-1.312 20.18 20.18 0 0 1 2.666-.82c.329-.055.602-.206.82-.452.22-.246.329-.533.329-.861v-.246h2.707v.246c0 .328.096.615.287.861.191.246.451.397.78.451Zm-3.773-4.266h-1.395c-.383 0-.697.137-.943.41a1.42 1.42 0 0 0-.37.985v.492a14.26 14.26 0 0 0-2.091.656c-.684.273-1.354.602-2.01.984l-.41-.41a1.56 1.56 0 0 0-.41-.287 1.092 1.092 0 0 0-.492-.123c-.22 0-.41.041-.575.123a1.56 1.56 0 0 0-.41.287l-4.101 4.02a1.527 1.527 0 0 0-.328.984c0 .383.109.711.328.984l.492.41c-.383.602-.711 1.245-.984 1.928-.274.684-.493 1.381-.657 2.092h-.574c-.383 0-.697.137-.943.41a1.42 1.42 0 0 0-.37.985v4.02h-2.706V43.384l13.945-10.172h5.004v2.707ZM56.93 53.557c0 2.625.916 4.853 2.748 6.685 1.832 1.832 4.06 2.748 6.685 2.748s4.868-.916 6.727-2.748c1.86-1.832 2.789-4.06 2.789-6.685s-.93-4.867-2.79-6.727c-1.858-1.86-4.1-2.789-6.726-2.789-2.625 0-4.853.93-6.685 2.79-1.832 1.858-2.748 4.1-2.748 6.726Zm16.242 0c0 1.859-.67 3.445-2.01 4.758-1.34 1.312-2.94 1.968-4.799 1.968-1.86 0-3.445-.656-4.758-1.968-1.312-1.313-1.968-2.899-1.968-4.758 0-1.86.656-3.46 1.968-4.8 1.313-1.339 2.899-2.009 4.758-2.009 1.86 0 3.46.67 4.8 2.01 1.339 1.34 2.009 2.94 2.009 4.799Z" fill="#fff"/></svg><svg fill="none" viewBox="0 0 14 13" id="instagram" xmlns="http://www.w3.org/2000/svg"><path d="M6.985 3.605a3.15 3.15 0 0 1 2.229.916 3.15 3.15 0 0 1 .67 3.446 3.234 3.234 0 0 1-.67 1.005 3.095 3.095 0 0 1-2.229.923c-.428 0-.834-.082-1.216-.247a3.175 3.175 0 0 1-1.682-1.681A3.056 3.056 0 0 1 3.84 6.75a3.095 3.095 0 0 1 .923-2.229 3.234 3.234 0 0 1 1.005-.67 3.056 3.056 0 0 1 1.216-.246Zm0 5.182c.565 0 1.049-.198 1.45-.595.4-.396.601-.877.601-1.442s-.2-1.048-.601-1.45a1.975 1.975 0 0 0-1.45-.6c-.565 0-1.046.2-1.442.6a1.987 1.987 0 0 0-.595 1.45c0 .565.2 1.046.602 1.442.4.397.88.595 1.435.595Zm4.006-5.305c0 .2-.07.372-.212.513a.715.715 0 0 1-.526.212c-.2 0-.371-.07-.513-.212a.698.698 0 0 1-.212-.513c0-.21.071-.385.212-.526a.698.698 0 0 1 .513-.212c.21 0 .385.07.526.212a.715.715 0 0 1 .212.526Zm2.078.739c.019.255.032.615.041 1.08V8.199c-.009.465-.022.825-.04 1.08a5.015 5.015 0 0 1-.24 1.374c-.141.433-.39.827-.745 1.183a2.84 2.84 0 0 1-1.183.752 5.632 5.632 0 0 1-1.387.246 72.38 72.38 0 0 1-3.979.027c-.465-.009-.825-.018-1.08-.027a5.54 5.54 0 0 1-1.38-.246c-.43-.137-.826-.387-1.19-.752a2.899 2.899 0 0 1-.739-1.183A5.595 5.595 0 0 1 .901 9.28 16.194 16.194 0 0 1 .874 8.2a74.375 74.375 0 0 1 0-2.912c0-.456.01-.811.027-1.066.028-.492.11-.955.246-1.388a2.9 2.9 0 0 1 .739-1.183A3.076 3.076 0 0 1 3.082.905 5.018 5.018 0 0 1 4.456.666c.255-.018.615-.032 1.08-.041h2.899c.464.01.824.023 1.08.041.492.027.954.11 1.387.246a2.9 2.9 0 0 1 1.183.738c.355.365.604.761.745 1.19.141.428.221.889.24 1.38Zm-1.299 6.138c.073-.2.128-.46.165-.779a15.114 15.114 0 0 0 .082-2.01V5.916c.009-.328.006-.665-.007-1.012a12.781 12.781 0 0 0-.075-.984 3.496 3.496 0 0 0-.165-.78 2.092 2.092 0 0 0-.464-.71c-.2-.2-.438-.356-.711-.465-.2-.073-.46-.128-.78-.164-.31-.037-.638-.062-.984-.075a15.055 15.055 0 0 0-1.012-.007H6.165a15.055 15.055 0 0 0-2.01.082 3.494 3.494 0 0 0-.779.164c-.273.11-.51.264-.711.465-.2.2-.35.437-.451.71-.082.201-.141.46-.178.78-.036.31-.06.638-.068.984-.01.347-.014.684-.014 1.012.01.328.014.606.014.834 0 .219-.005.492-.014.82 0 .328.005.666.014 1.012.009.346.032.68.068.998.037.32.096.579.178.78.11.273.264.508.465.704.2.195.433.348.697.457.2.082.46.142.78.178.318.037.651.06.997.069.347.009.684.013 1.012.013.328-.009.602-.013.82-.013.228 0 .506.004.834.013.328 0 .666-.004 1.012-.013.346-.01.675-.032.984-.069.32-.036.58-.095.78-.178a2.091 2.091 0 0 0 1.175-1.162Z" fill="#1F1E17"/></svg><svg fill="none" viewBox="0 0 25 35" id="location" xmlns="http://www.w3.org/2000/svg"><path d="M12.421 31.063a.686.686 0 0 1-.421-.141.93.93 0 0 1-.282-.328 14.594 14.594 0 0 0-2.062-3.867 79.475 79.475 0 0 0-2.766-3.493 114.457 114.457 0 0 1-2.601-3.28 18.692 18.692 0 0 1-2.18-3.657.845.845 0 0 1 .023-.586.631.631 0 0 1 .399-.399.647.647 0 0 1 .562-.023c.188.078.329.211.422.399a16.424 16.424 0 0 0 1.992 3.398 105.436 105.436 0 0 0 2.508 3.164c1 1.188 1.961 2.406 2.883 3.656a16.666 16.666 0 0 1 2.227 4.172.778.778 0 0 1-.024.563.632.632 0 0 1-.398.375.377.377 0 0 1-.164.047h-.117Zm0 0h-.117a.159.159 0 0 1-.117-.047.641.641 0 0 1-.445-.375.778.778 0 0 1-.024-.563 16.666 16.666 0 0 1 2.227-4.172 72.204 72.204 0 0 1 2.883-3.656c.875-1.063 1.71-2.117 2.508-3.164a16.425 16.425 0 0 0 1.992-3.398.807.807 0 0 1 .422-.399c.187-.078.39-.07.609.024a.567.567 0 0 1 .375.398.939.939 0 0 1 0 .586 19.394 19.394 0 0 1-2.156 3.656 67.077 67.077 0 0 1-2.625 3.281 79.44 79.44 0 0 0-2.766 3.493 14.594 14.594 0 0 0-2.062 3.867.93.93 0 0 1-.282.328.686.686 0 0 1-.421.14Zm0-13.313c-1.624 0-3.03-.594-4.218-1.781-1.188-1.188-1.781-2.594-1.781-4.219 0-1.625.593-3.031 1.78-4.219 1.188-1.187 2.595-1.781 4.22-1.781 1.624 0 3.03.594 4.218 1.781 1.188 1.188 1.782 2.594 1.782 4.219 0 1.625-.594 3.031-1.782 4.219-1.187 1.187-2.594 1.781-4.219 1.781Zm0-10.5c-1.218 0-2.273.445-3.164 1.336-.89.89-1.335 1.945-1.335 3.164s.445 2.273 1.335 3.164c.891.89 1.946 1.336 3.165 1.336 1.218 0 2.273-.445 3.164-1.336.89-.89 1.336-1.945 1.336-3.164s-.446-2.273-1.336-3.164c-.891-.89-1.946-1.336-3.165-1.336Zm9.61 9.469h-.164a.16.16 0 0 1-.117-.047.807.807 0 0 1-.399-.422.778.778 0 0 1-.023-.563 9.557 9.557 0 0 0 .797-4.453 9.953 9.953 0 0 0-1.313-4.359 9.936 9.936 0 0 0-3.164-3.328 9.428 9.428 0 0 0-4.242-1.5A9.47 9.47 0 0 0 9 2.633 9.57 9.57 0 0 0 5.297 5.14c-1.313 1.406-2.133 3.078-2.461 5.015-.329 1.938-.102 3.781.68 5.531a.867.867 0 0 1 0 .563.711.711 0 0 1-.376.422c-.218.094-.422.101-.61.023a.807.807 0 0 1-.421-.398c-.875-2.031-1.125-4.164-.75-6.399.375-2.234 1.313-4.164 2.813-5.789A11.056 11.056 0 0 1 8.437 1.25c1.656-.625 3.36-.86 5.11-.703 1.78.187 3.421.765 4.921 1.734 1.5.969 2.704 2.25 3.61 3.844.937 1.594 1.46 3.273 1.57 5.04a11.013 11.013 0 0 1-.914 5.132.78.78 0 0 1-.703.422ZM12.468 35c-1.28 0-2.671-.078-4.171-.234a18.768 18.768 0 0 1-4.36-.985c-.562-.187-1.43-.61-2.601-1.265-1.172-.657-1.555-1.61-1.149-2.86.094-.343.281-.672.563-.984.28-.313.64-.594 1.078-.844a9.011 9.011 0 0 1 2.156-1.008c.75-.234 1.453-.43 2.11-.586a.824.824 0 0 1 .562.118c.187.109.297.257.328.445a.691.691 0 0 1-.07.586.663.663 0 0 1-.492.305c-.75.187-1.438.382-2.063.585a7.37 7.37 0 0 0-1.734.82c-.282.157-.508.321-.68.493-.172.172-.29.352-.352.539-.093.375.094.75.563 1.125s1.234.75 2.297 1.125c1.469.531 3 .852 4.594.96 1.593.11 3.03.165 4.312.165 1.781-.031 3.36-.18 4.734-.445 1.375-.266 2.579-.664 3.61-1.196.312-.156.687-.406 1.125-.75.437-.343.562-.718.375-1.125-.344-.687-1-1.187-1.969-1.5a25.445 25.445 0 0 0-2.578-.703l-.234-.093a.713.713 0 0 1-.47-.305.645.645 0 0 1-.093-.586.624.624 0 0 1 .328-.445.824.824 0 0 1 .563-.118l.234.047c.906.219 1.93.532 3.07.938 1.141.406 1.961 1.093 2.461 2.062.344.719.328 1.422-.047 2.11-.375.687-1.062 1.28-2.062 1.78-1.156.595-2.477 1.04-3.961 1.337-1.484.297-3.164.46-5.04.492h-.937Z" fill="#4BAF47"/></svg><svg fill="none" viewBox="0 0 31 29" id="mail" xmlns="http://www.w3.org/2000/svg"><path d="M30.27 11.322v-.073a.1.1 0 0 0-.029-.073.817.817 0 0 0-.293-.44l-4.306-2.959V4.555a.736.736 0 0 0-.22-.542.737.737 0 0 0-.542-.22h-4.922L15.739.863a.872.872 0 0 0-.44-.117.871.871 0 0 0-.439.117l-4.218 2.93H5.72a.736.736 0 0 0-.542.22.736.736 0 0 0-.22.542v3.164L.622 10.707a.915.915 0 0 0-.234.278.694.694 0 0 0-.088.337v.03l.03 16.64c0 .098.019.195.058.293.039.098.088.186.146.264.078.058.166.107.264.146.098.04.195.059.293.059l28.447-.03a.736.736 0 0 0 .542-.22.736.736 0 0 0 .22-.541l-.03-16.64Zm-4.628-1.699 2.46 1.729-2.46 1.699V9.623ZM15.3 2.445l1.963 1.348h-3.926L15.3 2.445Zm-8.819 2.9h17.637v8.76L18.2 18.236l-2.431-1.875a.874.874 0 0 0-.47-.16.641.641 0 0 0-.468.16L12.4 18.236l-5.918-4.072V5.346ZM4.958 9.595v3.486l-2.549-1.728 2.549-1.758Zm-3.105 3.222 9.287 6.416-9.287 7.207V12.816ZM3.347 27.23 15.3 17.944l11.953 9.258-23.906.03Zm16.113-7.998 9.287-6.474v13.681l-9.287-7.207Zm1.055-10.84h-10.43a.729.729 0 0 0-.527.235.76.76 0 0 0-.235.557c0 .214.078.395.235.542.156.146.332.22.527.22h10.43a.752.752 0 0 0 .527-.22.714.714 0 0 0 .234-.542.76.76 0 0 0-.234-.557.729.729 0 0 0-.527-.234Zm0 4.014h-10.43a.752.752 0 0 0-.527.22.713.713 0 0 0-.235.542c0 .215.078.396.235.542.156.146.332.22.527.22h10.43a.752.752 0 0 0 .527-.22.714.714 0 0 0 .234-.542.714.714 0 0 0-.234-.542.752.752 0 0 0-.527-.22Z" fill="#4BAF47"/></svg><svg fill="none" viewBox="0 0 15 12" id="mail-footer" xmlns="http://www.w3.org/2000/svg"><path d="M14.22 4.223c.046-.046.101-.053.165-.02.064.031.095.079.095.143v5.591c0 .365-.127.675-.382.93a1.266 1.266 0 0 1-.93.383H1.793c-.365 0-.675-.128-.93-.383a1.266 1.266 0 0 1-.383-.93V4.346c0-.064.03-.112.09-.144.059-.032.116-.025.17.02.31.238.743.561 1.3.971.555.41 1.53 1.121 2.925 2.133.282.21.652.481 1.107.814.456.332.925.494 1.408.485.493.01.967-.155 1.422-.492.456-.337.825-.606 1.108-.807a355.296 355.296 0 0 0 2.919-2.133c.551-.41.982-.733 1.292-.97ZM7.48 7.75c-.319.01-.676-.137-1.073-.438-.396-.3-.708-.533-.936-.697A291.862 291.862 0 0 1 2.053 4.12c-.465-.35-.907-.69-1.326-1.018a.751.751 0 0 1-.178-.233.634.634 0 0 1-.069-.287v-.52c0-.364.128-.674.383-.93.255-.254.565-.382.93-.382h11.375c.365 0 .674.128.93.383.255.255.382.565.382.93v.519c0 .1-.022.196-.068.287a.752.752 0 0 1-.178.233c-.419.328-.861.667-1.326 1.018-.465.351-1.604 1.183-3.418 2.495-.228.164-.54.397-.936.697-.397.301-.755.447-1.074.438Z" fill="#EEC044"/></svg><svg fill="none" viewBox="0 0 31 31" id="phane" xmlns="http://www.w3.org/2000/svg"><path d="m29.718 24.217-5.888-5.889c-.332-.332-.747-.498-1.245-.498a1.79 1.79 0 0 0-1.275.498l-1.553 1.553c-.234.234-.39.513-.468.835-.079.322-.069.63.029.923l-.586.586c-.195.195-.864.078-2.007-.352-1.142-.43-2.485-1.416-4.028-2.959-1.543-1.543-2.53-2.886-2.96-4.028-.429-1.143-.546-1.812-.35-2.007l.585-.586c.078.02.161.039.25.059.087.02.17.029.248.029a1.763 1.763 0 0 0 1.26-.527l1.553-1.553c.332-.352.498-.777.498-1.275 0-.498-.166-.913-.498-1.245L7.394 1.893a1.776 1.776 0 0 0-.586-.396 1.84 1.84 0 0 0-.703-.132 1.763 1.763 0 0 0-1.26.528L3.322 3.416c-.235.234-.39.513-.469.835-.078.322-.078.64 0 .952l-.249.25-.249.248c-.82.918-1.304 2.066-1.45 3.443-.147 1.377.054 2.915.6 4.614.254.84.586 1.69.997 2.549.41.84.888 1.68 1.435 2.52.547.839 1.152 1.67 1.816 2.49.665.82 1.377 1.62 2.14 2.402a34.86 34.86 0 0 0 2.401 2.138c.82.665 1.65 1.27 2.49 1.817.84.547 1.68 1.025 2.52 1.435.86.41 1.71.743 2.55.996.663.215 1.308.376 1.933.484.625.107 1.22.161 1.787.161.937 0 1.787-.142 2.549-.425a5.395 5.395 0 0 0 1.962-1.245l.323-.322c.097.02.185.034.263.044a1.9 1.9 0 0 0 .235.014c.254 0 .488-.043.703-.131.215-.088.41-.22.586-.396l1.523-1.523c.352-.352.528-.777.528-1.275 0-.498-.176-.923-.528-1.274ZM6.105 3.152l5.889 5.889-1.524 1.524-5.888-5.89 1.523-1.523Zm18.72 24.639c-.644.645-1.523 1.02-2.636 1.128-1.113.107-2.383-.064-3.809-.513a20.546 20.546 0 0 1-2.314-.937 25.972 25.972 0 0 1-2.344-1.333 23.955 23.955 0 0 1-2.314-1.685A30.618 30.618 0 0 1 9.18 22.43a30.616 30.616 0 0 1-2.021-2.227 23.951 23.951 0 0 1-1.685-2.314 25.968 25.968 0 0 1-1.333-2.344 20.532 20.532 0 0 1-.937-2.315c-.45-1.425-.62-2.695-.513-3.808.107-1.113.483-1.992 1.128-2.637l.146-.176 4.57 4.57-.41.41c-.43.45-.644 1.007-.644 1.67.02.665.195 1.387.527 2.169.332.781.801 1.591 1.407 2.431.605.82 1.27 1.602 1.992 2.344a19.407 19.407 0 0 0 3.56 2.783c1.26.762 2.387 1.143 3.383 1.143a2.404 2.404 0 0 0 1.67-.645l.41-.41 4.57 4.57-.175.147Zm2.11-.762-5.889-5.888 1.524-1.524 5.889 5.889-.762.762-.762.761ZM23.654 7.957a9.27 9.27 0 0 0-2.945-1.948 8.951 8.951 0 0 0-3.471-.689.877.877 0 0 0-.645.264.843.843 0 0 0-.263.615c0 .254.088.469.263.645.176.176.39.263.645.263.976 0 1.904.186 2.783.557.879.371 1.66.899 2.344 1.582a7.306 7.306 0 0 1 1.582 2.344c.37.879.556 1.806.556 2.783 0 .254.088.469.264.645.176.175.39.263.645.263.234 0 .44-.088.615-.263a.877.877 0 0 0 .264-.645 8.95 8.95 0 0 0-.689-3.472 9.27 9.27 0 0 0-1.948-2.944Zm3.223-3.223a13.187 13.187 0 0 0-2.08-1.699 12.34 12.34 0 0 0-2.344-1.26 14.2 14.2 0 0 0-2.55-.761A13.271 13.271 0 0 0 17.239.75a.877.877 0 0 0-.645.264.877.877 0 0 0-.263.644c0 .235.088.44.263.615.176.176.39.264.645.264 1.582 0 3.09.298 4.526.894a11.49 11.49 0 0 1 3.823 2.592 11.49 11.49 0 0 1 2.593 3.824c.596 1.435.894 2.944.894 4.526 0 .254.088.469.263.645.176.175.381.263.616.263a.877.877 0 0 0 .644-.263.877.877 0 0 0 .264-.645c0-.918-.088-1.807-.264-2.666a14.204 14.204 0 0 0-.762-2.549 12.339 12.339 0 0 0-1.26-2.344 13.192 13.192 0 0 0-1.698-2.08Zm-6.475 6.475a4.108 4.108 0 0 0-1.45-.996 4.571 4.571 0 0 0-1.714-.322.877.877 0 0 0-.645.263.843.843 0 0 0-.263.616c0 .253.088.468.263.644.176.176.39.264.645.264a2.636 2.636 0 0 1 1.904.79 2.636 2.636 0 0 1 .791 1.904c0 .255.088.47.264.646.176.175.39.263.644.263.235 0 .44-.088.616-.263a.877.877 0 0 0 .263-.645c0-.605-.107-1.177-.322-1.714a4.11 4.11 0 0 0-.996-1.45Z" fill="#4BAF47"/></svg><svg fill="none" viewBox="0 0 12 15" id="pi" xmlns="http://www.w3.org/2000/svg"><path d="M6.188.928c.648 0 1.267.105 1.86.314a5.006 5.006 0 0 1 1.565.916c.452.392.814.862 1.087 1.408.274.556.41 1.172.41 1.846 0 .638-.082 1.276-.246 1.914a5.447 5.447 0 0 1-.765 1.737c-.347.51-.784.93-1.313 1.257-.529.32-1.157.479-1.887.479-.346 0-.706-.085-1.08-.253-.373-.169-.642-.412-.806-.732a68.558 68.558 0 0 1-.704 2.578c-.15.487-.568 1.2-1.251 2.14a1.335 1.335 0 0 1-.117.04.489.489 0 0 1-.075-.082l-.082-.765a7.182 7.182 0 0 1-.04-.766c0-.42.04-.88.122-1.38.082-.493.185-.994.308-1.505.123-.51.248-1.007.376-1.49.137-.492.25-.943.342-1.354-.1-.21-.169-.435-.205-.676a4.717 4.717 0 0 1-.055-.704c0-.547.132-.976.396-1.286.265-.31.559-.499.882-.567.324-.068.618-.007.882.185.273.191.41.51.41.957 0 .537-.12 1.06-.362 1.565a3.537 3.537 0 0 0-.362 1.538c0 .356.125.645.376.868.25.224.544.335.881.335.474 0 .87-.15 1.19-.45.31-.302.56-.666.752-1.095a5.66 5.66 0 0 0 .41-1.367c.082-.483.123-.907.123-1.271a3.17 3.17 0 0 0-.246-1.285 2.689 2.689 0 0 0-.677-.944 2.817 2.817 0 0 0-1.032-.574 4.131 4.131 0 0 0-1.285-.191 4.12 4.12 0 0 0-1.518.273 3.67 3.67 0 0 0-1.217.772A3.467 3.467 0 0 0 2.43 4.51c-.2.455-.301.961-.301 1.517 0 .529.107.937.321 1.224.214.287.322.494.322.622 0 .11-.037.299-.11.567-.073.27-.178.404-.314.404-.328 0-.7-.262-1.115-.786C.818 7.534.61 6.788.61 5.822c0-.756.16-1.435.479-2.037A4.839 4.839 0 0 1 2.347 2.24a5.758 5.758 0 0 1 1.79-.97A6.287 6.287 0 0 1 6.189.928Z" fill="#1F1E17"/></svg><svg fill="none" viewBox="0 0 24 25" id="search" xmlns="http://www.w3.org/2000/svg"><path d="m23.79 23.281-5.837-5.836a10.526 10.526 0 0 0 1.84-3.07 9.9 9.9 0 0 0 .668-3.633c0-1.422-.266-2.75-.797-3.984A10.1 10.1 0 0 0 17.473 3.5a10.665 10.665 0 0 0-3.27-2.203A9.912 9.912 0 0 0 10.243.5c-1.423 0-2.75.266-3.985.797A10.518 10.518 0 0 0 3 3.5 10.518 10.518 0 0 0 .797 6.758C.266 7.992 0 9.32 0 10.742c0 1.406.266 2.727.797 3.961A10.517 10.517 0 0 0 3 17.961a10.519 10.519 0 0 0 3.258 2.203c1.234.531 2.562.797 3.984.797a9.9 9.9 0 0 0 3.633-.668 10.526 10.526 0 0 0 3.07-1.84l5.836 5.836c.063.063.14.113.235.152.093.04.18.059.257.059a.884.884 0 0 0 .282-.047.495.495 0 0 0 .234-.164c.14-.14.211-.309.211-.504a.688.688 0 0 0-.21-.504ZM1.43 10.742c0-1.219.234-2.36.703-3.422a8.699 8.699 0 0 1 1.875-2.812A8.699 8.699 0 0 1 6.82 2.633a8.382 8.382 0 0 1 3.422-.703 8.49 8.49 0 0 1 3.422.703 8.766 8.766 0 0 1 2.79 1.875 8.698 8.698 0 0 1 1.874 2.812 8.381 8.381 0 0 1 .703 3.422 8.49 8.49 0 0 1-.703 3.422 8.765 8.765 0 0 1-1.875 2.79 9.098 9.098 0 0 1-2.789 1.898 8.743 8.743 0 0 1-3.422.68 8.631 8.631 0 0 1-3.422-.68 9.02 9.02 0 0 1-2.812-1.899 8.766 8.766 0 0 1-1.875-2.789 8.49 8.49 0 0 1-.703-3.422Z" fill="#1F1E17"/></svg><svg fill="none" viewBox="0 0 15 12" id="twitter" xmlns="http://www.w3.org/2000/svg"><path d="M13.425 2.893v.382c0 .948-.178 1.905-.533 2.871a8.286 8.286 0 0 1-1.566 2.625c-.688.784-1.542 1.427-2.563 1.928-1.012.492-2.179.739-3.5.739-.401 0-.798-.028-1.19-.083a9.236 9.236 0 0 1-1.141-.26 8.62 8.62 0 0 1-1.074-.396 9.551 9.551 0 0 1-.998-.547 9.404 9.404 0 0 0 .698.028c.665 0 1.3-.107 1.907-.322a5.824 5.824 0 0 0 1.647-.895 2.82 2.82 0 0 1-1.675-.588 2.84 2.84 0 0 1-1.004-1.408l.266.027c.087.01.18.014.28.014.128 0 .256-.007.383-.02.128-.014.251-.04.37-.076a2.85 2.85 0 0 1-1.641-.984 2.755 2.755 0 0 1-.656-1.832v-.028c.191.1.396.183.615.246.219.064.442.1.67.11a2.861 2.861 0 0 1-.923-1.012 2.8 2.8 0 0 1-.349-1.38c0-.265.034-.518.103-.76.068-.241.162-.467.28-.676.356.428.752.82 1.19 1.175A8.15 8.15 0 0 0 7.75 3.59a8.141 8.141 0 0 1-.048-.327 2.925 2.925 0 0 1 .198-1.45c.155-.346.363-.649.622-.909.26-.26.563-.462.91-.608.346-.155.72-.232 1.12-.232.41 0 .796.082 1.156.246.36.164.672.382.937.656a4.8 4.8 0 0 0 .95-.26c.305-.118.594-.26.868-.424-.1.328-.26.63-.479.903a2.744 2.744 0 0 1-.779.67c.292-.028.577-.08.854-.158.278-.077.545-.17.8-.28-.191.283-.41.55-.656.8a6.38 6.38 0 0 1-.78.677Z" fill="#1F1E17"/></svg></svg>