<svg width="9" height="6" viewBox="0 0 9 6" fill="none" xmlns="http://www.w3.org/2000/svg">
<path d="M4.13408 5.20744L0.712969 1.78633C0.630885 1.70424 0.589844 1.60457 0.589844 1.48731C0.589844 1.37005 0.630885 1.27037 0.712969 1.18829L1.11752 0.792531C1.19961 0.710447 1.29781 0.669405 1.41214 0.669405C1.52647 0.669405 1.62761 0.710447 1.71556 0.792531L4.4331 3.50128L7.15065 0.792531C7.23859 0.710447 7.33973 0.669405 7.45406 0.669405C7.56839 0.669405 7.6666 0.710447 7.74868 0.792531L8.15324 1.18829C8.23532 1.27037 8.27636 1.37005 8.27636 1.48731C8.27636 1.60457 8.23532 1.70424 8.15324 1.78633L4.73212 5.20744C4.65004 5.28952 4.55036 5.33057 4.4331 5.33057C4.31584 5.33057 4.21617 5.28952 4.13408 5.20744Z" fill="#878680"/>
</svg>
